<svg width="1551" height="875" viewBox="0 0 1551 875" fill="none" xmlns="http://www.w3.org/2000/svg">
<path d="M1550.35 589C1550.35 533.312 1550.35 477.625 1549.99 421.562C1538.77 422.543 1528.04 425.916 1516.95 422.07C1513.94 421.028 1510.39 421.633 1507.1 421.311C1499.05 420.521 1490.94 420.051 1482.98 418.659C1475.72 417.386 1468.64 415.026 1461.45 413.272C1460.38 413.012 1459.15 413.47 1457.99 413.568C1451.04 414.156 1444.64 413.308 1438.58 409.052C1434.71 406.334 1429.79 403.77 1425.26 403.639C1417.59 403.418 1411.4 399.738 1404.66 397.344C1398.13 395.022 1391.9 391.782 1385.29 389.736C1375.74 386.776 1366.82 382.762 1358.74 376.862C1357.82 376.193 1356.72 375.435 1355.66 375.357C1347.2 374.735 1341.46 368.923 1334.87 364.712C1329.5 361.275 1324.11 357.87 1318.72 354.457C1318.59 354.371 1318.39 354.379 1318.25 354.309C1315.92 353.204 1313.65 351.944 1311.26 351.01C1303.59 348.021 1301.98 337.782 1293.27 336.045C1292.93 335.976 1292.8 335.162 1292.43 334.862C1287.06 330.458 1281.82 325.879 1276.22 321.785C1273.23 319.597 1268.93 318.936 1266.44 316.392C1261.51 311.359 1257.58 305.364 1252.93 300.044C1251.13 297.992 1248.15 296.993 1246.28 294.987C1242.68 291.138 1239.01 287.207 1236.23 282.77C1232.64 277.023 1224.2 275.113 1223.85 266.902C1223.84 266.518 1223.23 266.163 1222.9 265.788C1218.63 260.858 1212.82 256.567 1210.43 250.848C1206.6 241.665 1195.01 238.165 1194.32 227.199C1194.3 226.95 1193.8 226.767 1193.65 226.486C1191.51 222.477 1189.41 218.449 1187.28 214.441C1185.75 211.58 1184.64 208.326 1182.53 205.985C1178.87 201.927 1176.11 197.735 1175.4 192.157C1175.11 189.867 1173.58 187.732 1172.59 185.536C1169.15 177.878 1165.72 170.216 1162.25 162.572C1159.2 155.873 1156.1 149.203 1153.07 142.498C1152.62 141.513 1152.39 140.419 1152.15 139.355C1151.27 135.441 1150.56 131.481 1149.52 127.61C1148.67 124.436 1147.06 121.434 1146.46 118.229C1145.03 110.667 1144.03 103.026 1142.78 95.4301C1142.66 94.6706 1141.85 94.049 1141.57 93.285C1140.35 89.8923 1138.41 86.5142 1138.22 83.0509C1137.85 76.1321 1139.94 69.082 1136.42 62.3621C1135.72 61.0272 1136.12 59.1269 1135.97 57.4909C1135.84 56.0335 1136.2 54.0523 1135.39 53.218C1131.93 49.6312 1133.06 45.9507 1134.52 42.1198C1136.06 38.0523 1136.78 34.1652 1133.26 30.5127C1132.48 29.6942 1132.44 27.7865 1132.63 26.4598C1133.87 17.5467 1135.31 8.65314 1131.35 0C1077 0 1022.64 0 967.819 0.428838C967.403 4.17891 967.474 7.49998 967.504 10.8214C967.643 26.4071 967.401 42.0083 968.05 57.5724C968.399 65.9437 970.219 74.2591 971.465 82.5862C973.011 92.9156 974.614 103.237 976.274 113.548C976.719 116.309 977.584 119.002 978.036 121.762C978.641 125.458 978.688 129.275 979.591 132.885C981.189 139.276 983.454 145.5 985.07 151.886C986.993 159.481 987.989 167.346 990.365 174.781C993.269 183.871 997.334 192.584 1000.64 201.556C1005.26 214.119 1009.66 226.766 1014.11 239.391C1014.78 241.267 1015.24 243.214 1015.79 245.131C1017.3 250.452 1018.83 255.744 1023.57 259.322C1024.3 259.871 1024.76 260.849 1025.18 261.709C1029.68 270.904 1033.72 280.353 1038.73 289.259C1044.29 299.153 1050.84 308.483 1056.73 318.198C1061.43 325.942 1065.46 334.109 1070.4 341.681C1073.91 347.053 1078.53 351.69 1082.52 356.762C1084.92 359.814 1087.09 363.046 1089.3 366.246C1090.57 368.087 1091.53 370.16 1092.93 371.887C1094.79 374.187 1096.93 376.265 1098.97 378.413C1101.47 381.033 1104.09 383.542 1106.48 386.259C1108.21 388.235 1109.66 390.465 1111.21 392.595C1112.66 394.581 1113.84 396.833 1115.56 398.541C1126.63 409.539 1138.23 420.037 1148.81 431.475C1155.55 438.748 1162.5 445.71 1170.15 451.89C1178.77 458.853 1188.04 465.002 1196.84 471.754C1199.27 473.616 1200.6 477.052 1203.15 478.58C1211.61 483.657 1220.52 487.999 1227.76 494.936C1229.18 496.3 1230.76 497.605 1232.49 498.517C1239.27 502.091 1246.25 505.29 1252.94 509.016C1262.09 514.114 1270.94 519.762 1280.12 524.799C1286.63 528.372 1293.51 531.273 1300.18 534.573C1304.88 536.898 1309.35 539.72 1314.17 541.738C1324.07 545.881 1334.14 549.62 1344.13 553.552C1349.2 555.548 1354.14 557.941 1359.32 559.552C1368.97 562.549 1378.68 565.394 1388.49 567.778C1405.96 572.023 1423.49 576.048 1441.06 579.82C1449.08 581.541 1457.25 582.635 1465.39 583.667C1479.96 585.514 1494.53 587.411 1509.15 588.669C1517.28 589.368 1525.51 588.801 1533.7 588.838C1539.25 588.862 1544.8 588.944 1550.35 589Z" fill="white"/>
<path d="M1550.35 589.469C1544.8 588.944 1539.25 588.862 1533.7 588.838C1525.51 588.801 1517.28 589.368 1509.15 588.669C1494.53 587.411 1479.96 585.514 1465.39 583.667C1457.25 582.635 1449.08 581.541 1441.06 579.82C1423.49 576.048 1405.96 572.023 1388.49 567.778C1378.68 565.394 1368.97 562.549 1359.32 559.552C1354.14 557.941 1349.2 555.548 1344.13 553.552C1334.14 549.62 1324.07 545.881 1314.17 541.738C1309.35 539.72 1304.88 536.898 1300.18 534.573C1293.51 531.273 1286.63 528.372 1280.12 524.799C1270.94 519.762 1262.09 514.114 1252.94 509.016C1246.25 505.29 1239.27 502.091 1232.49 498.517C1230.76 497.605 1229.18 496.3 1227.76 494.936C1220.52 487.999 1211.61 483.657 1203.15 478.58C1200.6 477.052 1199.27 473.616 1196.84 471.754C1188.04 465.002 1178.77 458.853 1170.15 451.89C1162.5 445.71 1155.55 438.748 1148.81 431.475C1138.23 420.037 1126.63 409.539 1115.56 398.541C1113.84 396.833 1112.66 394.581 1111.21 392.595C1109.66 390.465 1108.21 388.235 1106.48 386.259C1104.09 383.542 1101.47 381.033 1098.97 378.413C1096.93 376.265 1094.79 374.187 1092.93 371.887C1091.53 370.16 1090.57 368.087 1089.3 366.246C1087.09 363.046 1084.92 359.814 1082.52 356.762C1078.53 351.69 1073.91 347.053 1070.4 341.681C1065.46 334.109 1061.43 325.942 1056.73 318.198C1050.84 308.483 1044.29 299.153 1038.73 289.259C1033.72 280.353 1029.68 270.904 1025.18 261.709C1024.76 260.849 1024.3 259.871 1023.57 259.322C1018.83 255.744 1017.3 250.452 1015.79 245.131C1015.24 243.214 1014.78 241.267 1014.11 239.391C1009.66 226.766 1005.26 214.119 1000.64 201.556C997.334 192.584 993.269 183.871 990.365 174.781C987.989 167.346 986.993 159.481 985.07 151.886C983.454 145.5 981.189 139.276 979.591 132.885C978.688 129.275 978.641 125.458 978.036 121.762C977.584 119.002 976.719 116.309 976.274 113.548C974.614 103.237 973.011 92.9156 971.465 82.5863C970.219 74.2591 968.399 65.9437 968.05 57.5724C967.401 42.0083 967.643 26.4071 967.504 10.8214C967.474 7.49998 967.403 4.17892 967.35 0.428844C929.329 6.28829e-06 891.308 6.30319e-06 852.713 0.345446C850.989 7.07034 848.124 13.2873 850.487 19.9997C850.844 21.0147 850.479 22.2654 850.564 23.3984C850.824 26.8809 851.14 30.3592 851.434 33.8391C851.656 36.4568 851.937 39.0714 852.075 41.6936C852.161 43.3285 851.941 44.9789 852.015 46.6154C852.332 53.6852 852.72 60.7519 853.056 67.8209C853.272 72.3579 853.277 76.9116 853.673 81.4319C854.229 87.7831 854.86 94.1409 855.828 100.439C856.877 107.267 858.716 113.986 859.532 120.833C860.319 127.439 859.797 134.206 860.657 140.796C861.701 148.795 866.125 155.792 867.916 163.855C869.664 171.722 869.385 179.974 872.742 187.844C877.37 198.692 879.348 210.646 882.836 222.012C885.38 230.304 888.752 238.352 891.553 246.549C895.514 258.139 898.213 270.361 905.375 281.046C910.88 289.26 913.64 299.294 917.798 308.439C921.698 317.017 925.728 325.541 929.932 333.973C930.932 335.979 933.798 337.343 934.178 339.316C935.447 345.898 938.483 351.107 943.579 355.394C944.663 356.306 944.597 358.475 945.344 359.918C947.356 363.805 949.01 368.058 951.822 371.279C953.438 373.129 954.5 374.273 954.695 376.895C954.881 379.399 956.305 382.105 957.918 384.141C960.514 387.42 966.109 390.17 966.175 393.235C966.328 400.328 971.184 404.491 974.212 409.373C979.497 417.894 986.667 425.241 992.984 433.131C994.638 435.196 996.041 437.46 997.59 439.611C1001.26 444.712 1009 446.672 1009.13 454.533C1009.14 454.797 1009.48 455.091 1009.73 455.31C1013.59 458.79 1017.47 462.246 1021.31 465.743C1022.42 466.747 1023.54 467.765 1024.45 468.94C1028.81 474.629 1032.91 480.534 1037.5 486.029C1039.8 488.775 1043.76 490.325 1045.51 493.28C1047.94 497.391 1049.77 501.302 1055.23 502.01C1056.49 502.174 1058.06 504.078 1058.53 505.5C1060.32 510.887 1064.31 514.151 1068.59 517.401C1071.88 519.898 1074.33 523.828 1077.91 525.539C1082.93 527.938 1086.06 531.651 1088.91 536.007C1089.61 537.084 1090.66 537.957 1091.63 538.841C1096 542.848 1102.73 544.122 1104.99 550.737C1105.43 552.022 1107.85 552.99 1109.53 553.424C1116.23 555.151 1120.63 560.135 1125.56 564.35C1130.57 568.64 1135.15 573.466 1140.4 577.439C1144.11 580.251 1148.74 581.812 1152.7 584.343C1155.87 586.373 1158.42 589.399 1161.65 591.318C1168.3 595.278 1175.22 598.777 1182.01 602.508C1183.18 603.146 1184.47 603.791 1185.28 604.784C1188.56 608.847 1191.71 612.936 1197.87 611.98C1198.38 611.901 1199.04 612.556 1199.59 612.925C1206.68 617.663 1213.53 622.848 1220.95 626.991C1225.32 629.428 1230.56 630.443 1235.51 631.66C1238.85 632.482 1241.36 633.737 1242.52 637.202C1242.82 638.071 1244.35 639.356 1244.88 639.177C1248.26 638.043 1250.12 639.202 1251.65 642.267C1252.08 643.137 1254.2 643.167 1255.54 643.586C1260.76 645.217 1266.14 646.473 1271.16 648.575C1277.82 651.36 1284.22 654.763 1290.7 657.983C1296.19 660.713 1303.61 658.729 1307.73 665.024C1308.05 665.523 1310.19 664.588 1311.39 664.822C1313.3 665.196 1316.11 665.447 1316.82 666.711C1319.15 670.915 1322.45 671.415 1326.56 670.71C1327.67 670.519 1328.92 670.479 1329.99 670.792C1337.39 672.973 1344.77 675.254 1352.15 677.534C1353.1 677.827 1354.17 678.092 1354.88 678.718C1363.54 686.407 1374.99 684.933 1385.1 687.797C1388.8 688.845 1392.94 688.22 1396.84 688.677C1398.78 688.905 1400.61 689.959 1402.54 690.454C1406.25 691.405 1409.99 692.222 1413.71 693.097C1415.87 693.604 1418.04 694.045 1420.18 694.637C1424.41 695.811 1428.95 698.718 1432.76 697.94C1440.09 696.442 1446.43 699.517 1453.2 700.231C1464.39 701.411 1475.45 703.788 1486.64 704.854C1495.79 705.725 1505.06 705.243 1514.25 705.714C1518.41 705.927 1522.51 707.494 1526.65 707.569C1534.54 707.712 1542.45 707.225 1550.35 707C1550.35 667.979 1550.35 628.958 1550.35 589.469Z" fill="white"/>
<path d="M1131.82 0C1135.31 8.65314 1133.87 17.5467 1132.63 26.4598C1132.44 27.7865 1132.48 29.6942 1133.26 30.5127C1136.78 34.1652 1136.06 38.0523 1134.52 42.1198C1133.06 45.9507 1131.93 49.6312 1135.39 53.218C1136.2 54.0523 1135.84 56.0335 1135.97 57.4909C1136.12 59.1269 1135.72 61.0272 1136.42 62.3621C1139.94 69.082 1137.85 76.1321 1138.22 83.0509C1138.41 86.5142 1140.35 89.8923 1141.57 93.285C1141.84 94.049 1142.66 94.6706 1142.78 95.4301C1144.03 103.026 1145.03 110.667 1146.46 118.229C1147.06 121.434 1148.67 124.436 1149.52 127.61C1150.56 131.481 1151.27 135.441 1152.15 139.355C1152.39 140.419 1152.62 141.513 1153.07 142.498C1156.1 149.203 1159.2 155.873 1162.25 162.572C1165.72 170.216 1169.15 177.878 1172.59 185.536C1173.58 187.732 1175.11 189.867 1175.4 192.157C1176.11 197.735 1178.87 201.927 1182.53 205.985C1184.64 208.326 1185.75 211.58 1187.28 214.441C1189.41 218.449 1191.51 222.477 1193.65 226.486C1193.8 226.767 1194.3 226.95 1194.32 227.199C1195.01 238.165 1206.6 241.665 1210.43 250.848C1212.82 256.567 1218.63 260.858 1222.9 265.788C1223.23 266.163 1223.84 266.518 1223.85 266.902C1224.2 275.113 1232.64 277.023 1236.23 282.77C1239.01 287.207 1242.68 291.138 1246.28 294.987C1248.15 296.993 1251.13 297.992 1252.93 300.044C1257.58 305.364 1261.51 311.359 1266.44 316.392C1268.93 318.936 1273.23 319.597 1276.22 321.785C1281.82 325.879 1287.06 330.458 1292.43 334.862C1292.8 335.162 1292.93 335.976 1293.27 336.045C1301.98 337.782 1303.59 348.021 1311.26 351.01C1313.65 351.944 1315.92 353.204 1318.25 354.309C1318.39 354.379 1318.59 354.371 1318.72 354.457C1324.11 357.87 1329.5 361.275 1334.87 364.712C1341.46 368.923 1347.2 374.735 1355.66 375.357C1356.72 375.435 1357.82 376.193 1358.74 376.862C1366.82 382.762 1375.74 386.776 1385.29 389.736C1391.9 391.782 1398.13 395.022 1404.66 397.344C1411.4 399.738 1417.59 403.418 1425.26 403.639C1429.79 403.77 1434.71 406.334 1438.58 409.052C1444.64 413.308 1451.04 414.156 1457.99 413.568C1459.15 413.47 1460.38 413.012 1461.45 413.272C1468.64 415.026 1475.71 417.386 1482.98 418.659C1490.94 420.051 1499.05 420.521 1507.1 421.311C1510.39 421.633 1513.94 421.028 1516.95 422.07C1528.04 425.916 1538.77 422.543 1549.99 421.093C1550.35 362.979 1550.35 304.958 1549.91 246.469C1542.12 245.568 1534.77 244.728 1527.43 244.795C1514.53 244.912 1502.48 240.978 1490.15 238.144C1485.9 237.167 1481.68 237.092 1478.92 233.101C1478.6 232.633 1477.79 232.408 1477.16 232.254C1472.72 231.169 1468.31 229.703 1463.8 229.166C1453.87 227.985 1446.47 221.518 1437.93 217.454C1431.15 214.225 1423.68 212.2 1418.32 206.437C1418.22 206.332 1418 206.279 1417.85 206.293C1409.72 207.013 1406.27 200.07 1401.46 195.799C1393.63 188.847 1386.48 181.123 1379.1 173.661C1374.59 169.092 1369.92 164.631 1365.84 159.691C1362.99 156.246 1361.2 151.958 1358.63 148.258C1356.76 145.566 1355.82 142.189 1351.51 141.294C1349.5 140.879 1347.7 137.429 1346.64 134.993C1344.54 130.204 1343.11 125.127 1341.18 120.261C1340.86 119.458 1339.38 119.085 1338.4 118.584C1337.57 118.155 1336.18 118.056 1335.89 117.421C1332.58 110.159 1328.94 102.992 1326.37 95.4663C1322.25 83.405 1322.27 70.178 1315.58 58.7035C1313.49 55.121 1313.75 50.1645 1312.99 45.8277C1312.91 45.3781 1313.05 44.763 1313.33 44.3968C1318.16 37.8829 1314.8 31.0306 1313.33 24.7587C1311.4 16.4878 1311.33 8.30227 1311.35 0C1251.66 0 1191.97 0 1131.82 0Z" fill="white"/>
<path d="M1550.35 707.469C1542.45 707.225 1534.54 707.712 1526.65 707.569C1522.51 707.494 1518.41 705.927 1514.25 705.714C1505.06 705.243 1495.79 705.725 1486.64 704.854C1475.45 703.788 1464.39 701.411 1453.2 700.231C1446.43 699.517 1440.09 696.442 1432.76 697.94C1428.95 698.718 1424.41 695.811 1420.18 694.637C1418.04 694.045 1415.87 693.604 1413.71 693.097C1409.99 692.222 1406.25 691.405 1402.54 690.454C1400.61 689.959 1398.78 688.905 1396.84 688.677C1392.94 688.22 1388.8 688.845 1385.1 687.797C1374.99 684.933 1363.54 686.407 1354.88 678.718C1354.17 678.092 1353.1 677.827 1352.15 677.534C1344.77 675.254 1337.39 672.973 1329.99 670.792C1328.92 670.479 1327.67 670.519 1326.56 670.71C1322.45 671.415 1319.15 670.915 1316.82 666.711C1316.11 665.447 1313.3 665.196 1311.39 664.822C1310.19 664.588 1308.05 665.523 1307.73 665.024C1303.61 658.729 1296.19 660.713 1290.7 657.983C1284.22 654.763 1277.82 651.36 1271.16 648.575C1266.14 646.473 1260.76 645.217 1255.54 643.586C1254.2 643.167 1252.08 643.137 1251.65 642.267C1250.12 639.202 1248.26 638.043 1244.88 639.177C1244.35 639.356 1242.82 638.071 1242.52 637.202C1241.36 633.737 1238.85 632.482 1235.51 631.66C1230.56 630.443 1225.32 629.428 1220.95 626.991C1213.53 622.848 1206.68 617.663 1199.59 612.925C1199.04 612.556 1198.38 611.901 1197.87 611.98C1191.71 612.936 1188.56 608.847 1185.28 604.784C1184.47 603.791 1183.18 603.146 1182.01 602.508C1175.22 598.777 1168.3 595.278 1161.65 591.318C1158.42 589.399 1155.87 586.373 1152.7 584.343C1148.74 581.812 1144.11 580.251 1140.4 577.439C1135.15 573.466 1130.57 568.64 1125.56 564.35C1120.63 560.135 1116.23 555.151 1109.53 553.424C1107.85 552.99 1105.43 552.022 1104.99 550.737C1102.73 544.122 1096 542.848 1091.63 538.841C1090.66 537.957 1089.61 537.084 1088.91 536.007C1086.06 531.651 1082.93 527.938 1077.91 525.539C1074.33 523.828 1071.88 519.898 1068.59 517.401C1064.31 514.151 1060.32 510.887 1058.53 505.5C1058.06 504.078 1056.49 502.174 1055.23 502.01C1049.77 501.302 1047.94 497.391 1045.51 493.28C1043.76 490.325 1039.8 488.775 1037.5 486.029C1032.91 480.534 1028.81 474.629 1024.45 468.94C1023.54 467.765 1022.42 466.747 1021.31 465.743C1017.47 462.246 1013.59 458.79 1009.73 455.31C1009.48 455.091 1009.14 454.797 1009.13 454.533C1009 446.672 1001.26 444.712 997.59 439.611C996.041 437.46 994.638 435.196 992.984 433.131C986.667 425.241 979.497 417.894 974.212 409.373C971.184 404.491 966.328 400.328 966.175 393.235C966.109 390.17 960.514 387.42 957.918 384.141C956.305 382.105 954.881 379.399 954.695 376.895C954.5 374.273 953.438 373.129 951.822 371.279C949.01 368.058 947.356 363.805 945.344 359.918C944.597 358.475 944.663 356.306 943.579 355.394C938.483 351.107 935.447 345.898 934.178 339.316C933.798 337.343 930.932 335.979 929.932 333.973C925.728 325.541 921.698 317.017 917.798 308.439C913.64 299.294 910.88 289.26 905.375 281.046C898.213 270.361 895.514 258.139 891.553 246.549C888.752 238.352 885.38 230.304 882.836 222.012C879.348 210.646 877.37 198.692 872.742 187.844C869.385 179.974 869.664 171.722 867.916 163.855C866.125 155.792 861.701 148.795 860.657 140.796C859.797 134.206 860.319 127.439 859.532 120.833C858.716 113.986 856.877 107.267 855.828 100.439C854.86 94.1409 854.229 87.7831 853.673 81.4319C853.277 76.9116 853.272 72.3579 853.056 67.8209C852.72 60.7519 852.332 53.6852 852.015 46.6154C851.941 44.9789 852.161 43.3285 852.075 41.6936C851.937 39.0714 851.656 36.4568 851.434 33.8391C851.14 30.3592 850.824 26.8809 850.564 23.3984C850.479 22.2654 850.844 21.0147 850.487 19.9997C848.124 13.2873 850.989 7.07034 852.244 0.34544C843.662 2.98023e-08 834.974 0 825.818 0C827.302 4.07746 826.77 6.2864 822.352 9.27784C818.545 11.8562 815.563 17.5634 814.858 22.2819C814.131 27.1455 811.327 28.5807 808.386 31.0712C806.548 32.6276 805.331 35.4601 804.819 37.9243C803.826 42.7155 800.822 45.8054 797.519 48.9765C796.338 50.1109 796.096 52.2237 795.094 54.7122C788.431 55.6036 784.743 61.9043 781.115 68.7318C779.938 68.0851 778.754 67.4347 776.929 66.432C776.132 69.784 775.342 73.1076 774.427 76.9529C781.049 73.034 780.628 79.8244 783.104 82.9824C779.729 90.4339 779.985 97.3167 781.648 104.517C783.287 111.616 785.106 118.899 785.076 126.094C785.045 133.361 786.771 140.016 788.387 146.87C789.783 152.795 790.701 158.831 791.834 164.818C793.197 172.018 794.214 179.307 796.036 186.389C797.594 192.448 800.315 198.199 802.079 204.215C803.756 209.936 804.493 215.942 806.312 221.608C808.274 227.715 811.817 233.379 810.093 240.25C809.848 241.229 810.385 242.515 810.833 243.539C812.816 248.076 815.198 252.461 816.888 257.1C821.251 269.073 825.288 281.165 829.533 293.182C830.908 297.077 831.684 301.582 834.187 304.606C841.818 313.826 842.629 326.18 849.687 335.784C854.346 342.123 856.39 350.362 859.757 357.681C861.375 361.197 863.351 364.548 865.153 367.981C868.962 375.241 872.574 382.613 876.617 389.74C881.421 398.205 886.593 406.461 891.602 414.809C891.686 414.95 891.743 415.113 891.786 415.273C894.381 424.835 900.964 431.988 906.601 439.698C910.394 444.885 914.505 449.84 918.238 455.067C925.524 465.272 931.606 476.569 940.099 485.619C950.376 496.568 958.092 509.524 968.986 519.917C975.734 526.355 981.474 533.837 987.914 540.616C993.138 546.115 998.73 551.264 1004.16 556.568C1009.69 561.974 1015.11 567.507 1020.8 572.744C1025.52 577.088 1030.66 580.973 1035.44 585.259C1042.54 591.628 1049.21 598.493 1056.56 604.545C1063.25 610.055 1070.71 614.629 1077.63 619.869C1082.89 623.845 1087.93 628.125 1092.91 632.446C1097.25 636.21 1101.34 640.254 1105.62 644.095C1106.57 644.951 1107.82 645.485 1108.95 646.144C1120.18 652.723 1131.42 659.285 1142.64 665.879C1148.95 669.59 1155.23 673.359 1161.54 677.085C1162.96 677.925 1164.43 678.69 1165.87 679.498C1169.87 681.746 1173.81 684.118 1177.89 686.217C1182.27 688.475 1187.39 689.73 1191.14 692.731C1203.28 702.436 1218.35 706.148 1231.68 713.382C1236.83 716.183 1242.73 717.595 1248.23 719.811C1256.48 723.14 1264.62 726.751 1272.91 729.99C1278.13 732.03 1283.6 733.446 1288.84 735.437C1295.29 737.891 1301.63 740.665 1308.04 743.253C1308.44 743.416 1309.03 743.044 1309.5 743.129C1312.36 743.65 1315.31 743.92 1318.03 744.853C1324.43 747.045 1330.68 749.666 1337.06 751.91C1340.49 753.114 1344.05 754.675 1347.56 754.71C1354.62 754.779 1361.22 755.682 1367.23 759.698C1368.2 760.35 1369.77 760.08 1371.06 760.305C1374.13 760.843 1377.18 761.443 1380.25 761.977C1382.95 762.449 1385.67 762.874 1388.38 763.302C1389.67 763.505 1391 763.552 1392.26 763.868C1396.86 765.021 1401.39 766.545 1406.04 767.392C1412.14 768.501 1418.52 768.427 1424.44 770.068C1434.55 772.865 1444.86 773.375 1455.15 774.397C1460.43 774.922 1465.71 775.461 1470.98 776.066C1481.62 777.287 1492.23 778.871 1502.9 779.684C1508.74 780.13 1514.69 778.983 1520.57 779.17C1524.74 779.302 1528.87 780.524 1533.04 781.129C1534.28 781.309 1535.72 781.388 1536.83 780.933C1541.39 779.065 1545.85 778.85 1550.35 781C1550.35 756.646 1550.35 732.292 1550.35 707.469Z" fill="white"/>
<path d="M646.263 160.846C645.324 161.813 643.396 163.155 643.599 163.689C645.721 169.281 643.608 173.818 641.025 177.549C638.816 177.826 636.506 177.475 635.873 178.344C634.894 179.689 634.929 181.857 634.77 183.696C634.523 186.545 634.28 189.418 634.385 192.269C634.557 196.931 630.966 196.786 628.063 197.46C623.949 198.415 623.808 202.236 622.419 205.115C621.756 206.491 621.559 208.092 621.128 209.677C619.694 209.128 618.651 208.728 617.451 208.268C617.037 208.997 616.383 209.663 616.281 210.405C615.332 217.304 610.71 222.502 607.994 228.575C607.569 229.526 607.34 230.576 607.113 231.601C606.943 232.372 607.095 233.789 606.807 233.871C602.536 235.076 602.342 238.63 602.495 241.155C600.858 240.535 599.445 240.001 598.031 239.466C597.868 239.918 597.704 240.37 597.54 240.822C602.202 243.929 602.403 247.625 590.784 261.59C591.403 258.789 592.002 256.084 592.716 252.856C587.324 255.056 586.011 261 589.301 264.167C589.978 264.818 590.016 266.134 590.553 267.723C590.938 270.187 591.378 272.096 591.217 273.952C591.08 275.529 589.564 277.186 589.848 278.563C590.847 283.412 592.255 288.187 593.701 292.93C595.464 298.712 597.406 304.438 599.299 310.179C601.579 317.096 603.861 324.013 606.194 330.912C608.243 336.968 610.428 342.979 612.435 349.048C614.305 354.7 615.733 360.513 617.871 366.056C621.084 374.388 624.781 382.532 628.199 390.786C629.343 393.548 630.007 396.531 631.332 399.194C636.595 409.777 642.951 419.925 647.11 430.913C650.35 439.472 655.084 447.158 658.583 455.49C659.796 458.381 660.66 461.456 662.168 464.179C667.113 473.11 672.385 481.861 677.337 490.788C682.869 500.762 687.846 511.059 693.71 520.827C698.362 528.577 704.034 535.711 709.138 543.195C710.133 544.653 710.597 546.471 711.315 548.119C712.423 550.662 712.954 553.761 714.755 555.644C722.342 563.58 728.367 572.47 733.041 582.374C734.086 584.589 735.849 586.488 737.407 588.432C741.868 593.999 746.501 599.431 750.869 605.069C757.059 613.063 762.021 622.378 769.433 628.961C778.367 636.895 783.214 647.573 790.903 656.32C800.042 666.718 809.237 677.169 818.489 687.515C825.29 695.119 832.574 702.295 839.724 709.581C843.161 713.083 846.416 716.938 850.406 719.686C858.92 725.548 865.528 733.327 872.791 740.458C878.852 746.407 883.621 753.883 892.321 756.72C893.475 757.096 894.451 758.251 895.326 759.211C899.326 763.601 902.84 768.539 907.303 772.38C917.991 781.578 929.045 790.359 940.108 799.109C943.176 801.535 946.903 803.111 950.134 805.356C953.804 807.905 957.138 810.941 960.83 813.455C967.791 818.194 974.91 822.7 981.952 827.32C989.343 832.169 996.777 836.956 1004.09 841.921C1012.28 847.482 1019.68 854.292 1029.29 857.595C1029.86 857.793 1030.22 858.549 1030.77 858.909C1035.18 861.797 1039.68 864.548 1044.01 867.547C1047.89 870.229 1051.58 873.172 1055.35 876C1122.7 876 1190.06 876 1257.84 875.649C1257.01 874.108 1255.96 872.425 1254.46 871.812C1248.24 869.261 1241.89 867.023 1235.58 864.689C1232.21 863.441 1228.87 862.081 1225.43 861.042C1221.24 859.775 1216.77 859.255 1212.76 857.591C1204.5 854.163 1196.47 850.171 1188.32 846.474C1187.62 846.152 1186.67 846.402 1185.87 846.211C1182.59 845.419 1179.12 844.996 1176.09 843.625C1171.41 841.513 1167.11 838.593 1162.51 836.281C1158.52 834.27 1154.22 832.853 1150.27 830.769C1143.92 827.419 1137.8 823.639 1131.49 820.219C1124.82 816.607 1117.97 813.309 1111.31 809.681C1104.18 805.8 1097.15 801.752 1090.13 797.667C1084.61 794.452 1078.91 791.445 1073.79 787.669C1066.8 782.51 1056.59 776.767 1047.99 774.124C1047.29 773.908 1046.46 773.176 1046.23 772.501C1044.38 766.983 1039.32 766.088 1034.91 763.766C1029.16 760.744 1024.64 755.998 1018.36 753.117C1011.5 749.964 1006.96 741.984 1000.24 738.19C991.194 733.087 984.202 725.801 976.355 719.445C966.842 711.74 957.807 703.448 948.389 695.622C943.966 691.945 938.618 689.274 934.604 685.237C928.749 679.348 924.131 672.18 915.971 668.93C915.442 668.719 915.132 667.943 914.735 667.419C911.887 663.664 909.248 659.726 906.138 656.203C903.301 652.99 899.868 650.31 896.852 647.243C891.332 641.63 885.845 635.978 880.491 630.207C874.592 623.85 868.715 617.461 863.089 610.864C856.984 603.704 851.645 595.831 845.084 589.139C840.518 584.48 835.129 580.742 832.776 574.284C832.396 573.24 831.423 572.4 830.677 571.504C825.626 565.435 820.301 559.573 815.565 553.268C808.822 544.289 802.387 535.069 796.049 525.795C791.291 518.832 786.976 511.568 782.311 504.54C777.904 497.9 773.102 491.516 768.843 484.786C765.594 479.651 762.482 474.337 760.134 468.756C758.224 464.212 756.473 460.181 752.997 456.201C747.864 450.323 744.947 442.498 741.168 435.458C739.994 433.269 739.24 430.851 738.032 428.684C734.099 421.634 729.968 414.694 726.071 407.625C724.093 404.036 721.983 400.41 720.757 396.54C717.863 387.408 714.917 378.457 709.405 370.368C707.143 367.047 707.268 362.183 705.868 358.175C702.208 347.694 694.982 338.526 694.358 326.911C694.324 326.274 693.983 325.641 693.727 325.03C690.333 316.95 686.941 308.869 683.518 300.801C682.874 299.282 682.025 297.848 681.399 296.322C680.458 294.031 679.364 291.755 678.805 289.362C677.209 282.521 676.207 275.523 674.295 268.777C672.51 262.477 670.104 256.319 667.534 250.284C663.506 240.824 665.25 230.073 660.652 220.781C660.443 220.358 660.526 219.796 660.438 219.305C658.972 211.164 657.706 202.979 655.958 194.898C654.807 189.576 652.891 184.423 651.465 179.154C651.048 177.613 650.898 175.914 651.038 174.323C651.502 169.065 651.474 164.061 646.263 160.846Z" fill="white"/>
<path d="M646.427 160.516C651.474 164.061 651.502 169.065 651.038 174.323C650.898 175.914 651.048 177.613 651.465 179.154C652.891 184.423 654.807 189.576 655.958 194.898C657.707 202.979 658.973 211.164 660.438 219.305C660.527 219.796 660.443 220.358 660.652 220.781C665.25 230.073 663.506 240.824 667.534 250.284C670.104 256.319 672.51 262.477 674.295 268.777C676.207 275.522 677.21 282.521 678.806 289.362C679.364 291.755 680.458 294.031 681.399 296.322C682.025 297.848 682.874 299.282 683.518 300.801C686.941 308.869 690.334 316.95 693.727 325.03C693.983 325.641 694.324 326.274 694.359 326.911C694.982 338.526 702.208 347.694 705.868 358.175C707.269 362.183 707.143 367.047 709.406 370.367C714.917 378.457 717.863 387.408 720.757 396.54C721.984 400.41 724.094 404.036 726.071 407.624C729.968 414.694 734.099 421.633 738.032 428.684C739.24 430.851 739.994 433.269 741.168 435.458C744.947 442.498 747.865 450.323 752.997 456.201C756.473 460.181 758.224 464.212 760.135 468.755C762.482 474.337 765.595 479.651 768.843 484.786C773.102 491.516 777.904 497.9 782.311 504.54C786.976 511.568 791.291 518.832 796.049 525.795C802.387 535.069 808.822 544.289 815.566 553.268C820.301 559.573 825.626 565.435 830.677 571.504C831.423 572.4 832.396 573.24 832.776 574.284C835.129 580.742 840.518 584.48 845.084 589.139C851.645 595.831 856.984 603.704 863.089 610.864C868.715 617.461 874.592 623.85 880.491 630.207C885.846 635.978 891.332 641.63 896.852 647.243C899.869 650.31 903.301 652.99 906.138 656.203C909.248 659.726 911.887 663.664 914.735 667.419C915.132 667.943 915.442 668.719 915.971 668.93C924.132 672.18 928.749 679.348 934.604 685.237C938.618 689.274 943.966 691.945 948.389 695.621C957.807 703.448 966.842 711.74 976.355 719.445C984.202 725.801 991.194 733.087 1000.24 738.19C1006.96 741.984 1011.5 749.964 1018.36 753.117C1024.64 755.998 1029.16 760.744 1034.91 763.766C1039.32 766.088 1044.38 766.983 1046.23 772.501C1046.46 773.176 1047.29 773.908 1047.99 774.124C1056.59 776.767 1066.8 782.51 1073.79 787.669C1078.91 791.445 1084.61 794.452 1090.13 797.667C1097.15 801.752 1104.18 805.8 1111.31 809.681C1117.97 813.309 1124.82 816.607 1131.49 820.219C1137.8 823.639 1143.92 827.419 1150.27 830.769C1154.22 832.853 1158.52 834.27 1162.51 836.281C1167.11 838.593 1171.41 841.513 1176.09 843.625C1179.12 844.996 1182.59 845.419 1185.87 846.211C1186.67 846.402 1187.62 846.152 1188.32 846.474C1196.48 850.171 1204.5 854.163 1212.76 857.591C1216.77 859.255 1221.24 859.775 1225.43 861.042C1228.87 862.081 1232.21 863.441 1235.58 864.689C1241.89 867.023 1248.24 869.261 1254.46 871.812C1255.96 872.425 1257.01 874.108 1258.31 875.649C1355.68 876 1453.02 876 1550.35 876C1550.35 871.265 1550.35 866.605 1549.94 861.52C1545.29 860.891 1541.05 860.705 1536.81 860.477C1535.33 860.396 1533.84 860.057 1532.36 860.103C1524.25 860.354 1516.14 860.834 1508.04 860.922C1504.75 860.957 1501.46 860.202 1498.18 859.797C1496.2 859.553 1494.24 859.172 1492.25 859.058C1484.2 858.595 1475.94 859.148 1468.14 857.51C1461.57 856.131 1455.16 857.695 1448.32 855.593C1437.02 852.125 1424.72 851.932 1412.84 850.406C1403.46 849.201 1394.52 844.664 1384.64 846.814C1383.13 847.143 1381.24 845.795 1379.54 845.166C1377.99 844.59 1376.52 843.745 1374.92 843.353C1368.71 841.819 1362.44 840.496 1356.23 838.943C1350.97 837.629 1345.85 835.659 1340.53 834.808C1335.66 834.029 1330.61 834.388 1325.64 834.162C1325.04 834.135 1324.38 833.696 1323.88 833.278C1317.96 828.275 1310.9 826.481 1303.42 825.375C1299.56 824.806 1295.9 822.994 1292.12 821.844C1288.41 820.713 1284.67 819.639 1280.91 818.678C1279.01 818.191 1276.88 818.361 1275.1 817.629C1267.2 814.377 1259.48 810.686 1251.53 807.577C1243.67 804.504 1235.58 802.02 1227.65 799.108C1224.75 798.041 1222.08 796.333 1219.19 795.189C1213.55 792.95 1207.69 791.225 1202.19 788.694C1195.27 785.505 1188.58 781.781 1181.85 778.177C1175.32 774.68 1167.35 773.929 1162.12 767.898C1161.77 767.501 1160.85 767.408 1160.23 767.475C1153.88 768.165 1149.86 763.201 1144.84 760.849C1139.09 758.16 1134.06 753.99 1128.61 750.636C1125.82 748.921 1122.84 747.518 1119.88 746.092C1116.79 744.596 1113.39 743.6 1110.54 741.754C1103.96 737.502 1097.75 732.677 1091.16 728.438C1083.3 723.378 1074.86 719.161 1067.29 713.716C1058.08 707.091 1050.09 698.768 1039.44 694.18C1038.56 693.802 1037.85 692.973 1037.14 692.282C1027.8 683.283 1018.14 674.771 1005.86 669.801C1004.41 669.214 1003.6 667.122 1002.42 665.792C999.054 661.999 995.845 658.038 992.201 654.53C989.268 651.705 985.746 649.5 982.567 646.92C978.46 643.586 974.434 640.153 970.373 636.763C969.103 635.703 967.744 634.732 966.576 633.569C958.062 625.091 949.584 616.576 941.099 608.07C936.778 603.739 931.372 600.034 928.405 594.917C923.906 587.156 915.385 583.684 910.856 575.653C908.104 570.775 901.752 567.344 898.82 561.631C893.956 552.15 883.888 546.682 879.612 536.716C879.228 535.821 877.831 535.331 876.861 534.723C872.315 531.873 868.034 528.871 867.082 522.968C866.48 519.233 865.056 516.008 861.049 514.519C860.131 514.178 859.532 512.828 858.911 511.862C852.162 501.364 845.459 490.836 838.699 480.345C834.788 474.277 830.93 468.169 826.801 462.25C822.875 456.622 821.494 449.6 815.655 444.858C812.004 441.893 809.95 436.836 807.535 432.519C805.649 429.147 804.649 425.265 802.656 421.972C799.058 416.026 792.741 411.508 793.554 403.325C793.656 402.301 792.209 401.15 791.549 400.018C787.554 393.174 783.235 386.49 779.689 379.419C775.636 371.336 772.168 362.951 768.65 354.611C765.835 347.937 763.323 341.136 760.684 334.388C758.789 329.541 758.973 323.794 754.306 320.121C753.516 319.499 753.359 318.069 752.919 317.008C750.059 310.111 747.161 303.229 744.375 296.302C743.728 294.693 743.348 292.947 743.064 291.228C742.753 289.348 743.29 287.087 742.429 285.579C737.87 277.595 736.073 268.724 733.698 260.033C732.268 254.801 731.1 249.492 729.499 244.314C726.87 235.813 723.606 227.491 721.324 218.903C719.341 211.442 718.239 203.736 716.965 196.102C716.386 192.632 716.488 189.05 715.973 185.565C715.719 183.847 714.612 182.274 714.152 180.565C711.908 172.234 708.177 163.912 708.005 155.524C707.83 147.039 704.743 139.427 703.885 131.28C703.758 130.081 701.695 129.086 700.528 127.997C698.736 129.227 696.944 130.457 694.177 132.357C694.612 129.333 694.94 127.059 695.332 124.337C692.819 122.899 692.582 113.892 696.468 112.2C700.26 110.549 703.361 109.027 703.858 104.453C703.91 103.972 705.389 103.646 706.784 102.965C704.815 101.997 703.417 101.31 702.029 100.628C702.321 96.4719 702.618 92.2562 702.954 87.4827C704.482 88.0938 706.26 88.805 708.038 89.5163C708.397 89.3389 708.756 89.1614 709.115 88.984C706.373 85.1003 703.632 81.2166 700.305 76.5039C698.786 80.5801 697.534 83.9395 696.199 87.5233C695.285 85.3481 694.553 83.6066 693.822 81.8652C691.766 86.026 687.464 87.0744 685.503 91.0906C683.882 94.4098 681.902 98.0541 679.987 101.518C678.948 103.398 676.812 104.671 674.919 106.454C675.23 106.644 676.057 107.148 677.338 107.93C673.872 114.998 670.391 122.097 666.867 129.284C665.308 128.816 663.65 128.319 663.426 128.251C659.552 131.396 656.436 133.958 653.283 136.475C651.095 138.221 651.643 142.439 654.147 144.153C655.106 144.81 655.703 145.999 656.577 147.085C649.576 148.964 649.064 149.681 651.499 153.176C649.822 155.572 648.207 157.879 646.427 160.516Z" fill="white"/>
<path d="M1054.88 876C1051.58 873.172 1047.89 870.228 1044.01 867.547C1039.68 864.548 1035.18 861.796 1030.77 858.909C1030.22 858.549 1029.86 857.793 1029.29 857.595C1019.68 854.291 1012.28 847.482 1004.09 841.921C996.777 836.956 989.343 832.169 981.952 827.32C974.91 822.7 967.791 818.193 960.83 813.455C957.138 810.941 953.804 807.905 950.134 805.356C946.903 803.111 943.177 801.535 940.108 799.109C929.045 790.359 917.991 781.578 907.303 772.38C902.84 768.539 899.326 763.601 895.326 759.211C894.451 758.25 893.475 757.096 892.321 756.72C883.621 753.883 878.852 746.407 872.791 740.458C865.528 733.327 858.92 725.548 850.407 719.685C846.416 716.938 843.161 713.083 839.724 709.581C832.574 702.295 825.29 695.119 818.489 687.515C809.237 677.169 800.042 666.718 790.903 656.32C783.214 647.573 778.367 636.895 769.433 628.961C762.021 622.378 757.06 613.063 750.869 605.069C746.502 599.431 741.869 593.999 737.407 588.432C735.849 586.488 734.086 584.588 733.041 582.374C728.367 572.469 722.342 563.58 714.755 555.644C712.954 553.761 712.423 550.662 711.315 548.119C710.597 546.471 710.133 544.653 709.138 543.195C704.034 535.711 698.362 528.577 693.71 520.827C687.847 511.058 682.87 500.761 677.337 490.788C672.385 481.861 667.113 473.11 662.168 464.179C660.66 461.456 659.796 458.38 658.583 455.489C655.085 447.157 650.35 439.472 647.11 430.913C642.951 419.925 636.595 409.777 631.332 399.194C630.007 396.531 629.343 393.548 628.199 390.785C624.781 382.531 621.084 374.387 617.871 366.056C615.733 360.513 614.305 354.7 612.436 349.048C610.428 342.979 608.243 336.968 606.194 330.912C603.861 324.013 601.579 317.096 599.299 310.179C597.406 304.438 595.464 298.712 593.701 292.93C592.255 288.187 590.847 283.412 589.848 278.563C589.564 277.186 591.08 275.528 591.217 273.951C591.378 272.096 590.938 270.187 590.532 268.114C589.991 267.999 589.728 268.157 589.257 268.888C588.105 269.928 587.211 270.482 586.317 271.035C585.022 272.392 583.689 273.714 582.444 275.115C581.391 276.301 579.48 277.695 579.614 278.793C580.12 282.934 577.723 288.102 584.093 291.018C584.452 290.373 585.065 289.271 585.589 288.33C586.831 291.234 587.962 293.878 589.258 296.91C585.873 298.124 587.796 307.34 579.359 303.972C579.769 306.239 579.911 308.178 580.491 309.976C581.557 313.284 579.466 314.491 577.23 316.077C575.127 317.568 572.621 319.363 571.776 321.587C569.387 327.877 565.08 332.605 560.89 337.586C559.567 339.159 559.525 341.865 559.054 344.086C558.589 346.277 558.136 348.501 558.019 350.728C557.888 353.246 555.173 356.225 559.106 358.267C559.309 358.372 559.036 360.387 558.457 360.843C555.221 363.39 552.338 365.567 558.447 368.279C559.651 368.813 560.059 371.141 560.576 372.142C559.25 374.395 557.983 376.899 556.392 379.176C553.328 383.562 549.914 387.712 546.996 392.189C545.898 393.875 545.773 396.196 545.318 398.479C546.589 399.406 548.149 399.821 548.796 400.824C549.545 401.986 549.279 403.751 549.818 405.108C555.085 418.353 560.247 431.643 565.805 444.765C570.465 455.768 575.614 466.564 580.544 477.452C582.429 481.615 584.259 485.803 586.204 489.937C588.87 495.603 591.593 501.244 594.371 506.855C594.715 507.551 595.675 507.917 596.135 508.584C597.616 510.732 599.185 512.852 600.378 515.159C602.949 520.132 604.515 525.868 607.976 530.07C611.423 534.255 615.127 537.798 615.685 543.557C615.832 545.086 616.954 546.595 617.858 547.962C622.657 555.225 627.738 562.31 632.307 569.713C635.544 574.957 637.741 580.853 641.074 586.026C648.345 597.31 655.999 608.349 663.604 619.414C665.277 621.848 667.576 623.849 669.28 626.265C673.875 632.782 678.087 639.578 682.853 645.964C689.863 655.358 697.165 664.536 704.448 673.723C710.013 680.743 715.711 687.657 721.408 694.571C724.665 698.523 727.992 702.42 731.37 706.269C735.045 710.457 738.819 714.558 742.54 718.706C743.306 719.56 744.058 720.431 744.77 721.331C748.685 726.284 751.875 732.137 756.676 735.978C762.296 740.473 764.119 749.066 772.488 750.453C773.001 750.538 773.256 751.858 773.734 752.53C775.068 754.404 776.243 756.456 777.858 758.056C786.309 766.43 794.849 774.713 803.412 782.973C811.539 790.812 819.679 798.64 827.936 806.341C829.852 808.128 832.482 809.146 834.416 810.919C841.238 817.171 847.792 823.718 854.669 829.908C858.312 833.188 863.601 835.211 866.067 839.115C872.165 848.768 883.364 851.662 890.789 859.484C895.475 864.42 901.629 867.947 906.995 872.267C908.079 873.14 908.58 874.737 909.35 876C957.704 876 1006.06 876 1054.88 876Z" fill="white"/>
<path d="M1550.35 781.469C1545.85 778.85 1541.39 779.064 1536.83 780.933C1535.72 781.388 1534.28 781.309 1533.04 781.129C1528.87 780.523 1524.74 779.302 1520.57 779.17C1514.69 778.983 1508.74 780.13 1502.9 779.684C1492.23 778.871 1481.62 777.287 1470.98 776.066C1465.71 775.461 1460.43 774.922 1455.15 774.397C1444.86 773.375 1434.55 772.865 1424.44 770.068C1418.52 768.427 1412.14 768.501 1406.04 767.392C1401.39 766.545 1396.86 765.021 1392.26 763.868C1391 763.552 1389.67 763.505 1388.38 763.302C1385.67 762.874 1382.95 762.448 1380.25 761.977C1377.18 761.443 1374.13 760.843 1371.06 760.305C1369.77 760.08 1368.2 760.35 1367.23 759.698C1361.22 755.682 1354.62 754.779 1347.56 754.71C1344.05 754.675 1340.49 753.114 1337.06 751.91C1330.68 749.666 1324.43 747.045 1318.03 744.853C1315.31 743.919 1312.36 743.65 1309.5 743.129C1309.03 743.044 1308.44 743.416 1308.04 743.253C1301.63 740.665 1295.29 737.891 1288.84 735.437C1283.6 733.446 1278.13 732.03 1272.91 729.99C1264.62 726.751 1256.48 723.14 1248.23 719.81C1242.73 717.594 1236.83 716.183 1231.68 713.382C1218.35 706.148 1203.28 702.436 1191.14 692.731C1187.39 689.73 1182.27 688.475 1177.89 686.217C1173.81 684.118 1169.87 681.746 1165.87 679.498C1164.43 678.689 1162.96 677.925 1161.54 677.085C1155.23 673.359 1148.95 669.589 1142.64 665.879C1131.42 659.285 1120.18 652.723 1108.95 646.144C1107.82 645.484 1106.57 644.951 1105.62 644.095C1101.34 640.254 1097.25 636.21 1092.91 632.445C1087.93 628.125 1082.89 623.845 1077.63 619.869C1070.71 614.629 1063.25 610.055 1056.56 604.545C1049.21 598.493 1042.54 591.628 1035.44 585.259C1030.66 580.973 1025.52 577.088 1020.8 572.744C1015.11 567.507 1009.69 561.974 1004.16 556.568C998.73 551.264 993.138 546.115 987.914 540.616C981.474 533.837 975.734 526.355 968.986 519.917C958.092 509.524 950.376 496.568 940.099 485.618C931.606 476.569 925.524 465.272 918.238 455.067C914.505 449.84 910.394 444.884 906.601 439.698C900.964 431.988 894.381 424.834 891.786 415.273C891.743 415.113 891.686 414.95 891.602 414.809C886.593 406.461 881.421 398.205 876.617 389.74C872.574 382.613 868.962 375.241 865.153 367.981C863.351 364.548 861.375 361.197 859.757 357.681C856.39 350.362 854.346 342.122 849.687 335.784C842.629 326.18 841.818 313.826 834.187 304.606C831.684 301.582 830.908 297.077 829.533 293.182C825.288 281.165 821.251 269.073 816.888 257.1C815.198 252.461 812.816 248.076 810.833 243.539C810.385 242.515 809.848 241.229 810.093 240.25C811.817 233.379 808.274 227.715 806.312 221.608C804.493 215.942 803.756 209.936 802.079 204.215C800.315 198.198 797.594 192.448 796.036 186.389C794.214 179.307 793.197 172.018 791.834 164.817C790.701 158.831 789.783 152.794 788.387 146.87C786.771 140.016 785.045 133.361 785.076 126.094C785.106 118.899 783.287 111.615 781.648 104.516C779.985 97.3166 779.729 90.4338 783.194 83.3352C776.994 83.0779 777.265 89.0626 774.666 92.5354C771.475 96.7987 768.042 100.901 764.461 104.844C762.535 106.966 760.083 108.611 757.598 110.697C757.556 110.62 757.038 109.671 756.263 108.251C753.063 111.308 750.088 114.151 746.56 117.522C746.035 117.297 744.44 116.613 742.386 115.732C744.648 120.67 741.392 122.536 738.928 125.095C737.573 126.502 737.328 128.977 736.95 130.959C737.317 130.948 737.27 131.005 737.38 130.73C738.073 130.62 738.656 130.785 739.535 131.131C740.171 132.509 740.644 133.685 740.831 134.906C741.727 140.746 742.61 146.59 743.372 152.448C743.975 157.091 744.245 161.781 744.965 166.403C745.303 168.573 746.358 170.631 747.079 172.743C747.817 174.905 748.589 177.057 749.257 179.241C749.669 180.587 749.853 182.001 750.249 183.353C750.742 185.038 751.515 186.656 751.875 188.364C753.54 196.261 754.926 204.221 756.77 212.075C757.893 216.86 759.825 221.449 761.107 226.202C763.201 233.965 764.77 241.878 767.092 249.568C770.185 259.806 773.648 269.94 777.209 280.028C780.791 290.177 784.408 300.33 788.531 310.265C792.303 319.354 796.887 328.102 800.894 337.097C803.686 343.366 805.839 349.925 808.748 356.135C815.7 370.975 822.911 385.694 830.072 400.436C831.003 402.352 832.248 404.116 833.355 405.946C837.278 412.431 841.384 418.813 845.076 425.427C848.693 431.902 851.362 438.956 855.399 445.135C860.848 453.474 867.121 461.285 873.193 469.206C883.938 483.221 891.695 499.318 904.074 512.248C912.071 520.601 918.946 530.022 926.429 538.876C929.833 542.904 933.558 546.66 937.019 550.643C941.13 555.376 944.997 560.323 949.181 564.988C953.832 570.174 958.664 575.2 963.522 580.194C968.016 584.813 972.531 589.424 977.252 593.807C982.226 598.424 987.587 602.628 992.53 607.276C996.197 610.725 999.358 614.707 1002.95 618.239C1005.16 620.407 1007.8 622.127 1010.18 624.132C1016.34 629.331 1022.37 634.677 1028.62 639.774C1033.71 643.936 1039.15 647.689 1044.21 651.888C1046.87 654.093 1048.75 657.296 1051.53 659.298C1058.33 664.205 1065.48 668.625 1072.42 673.339C1077.84 677.016 1083.09 680.937 1088.55 684.557C1090.98 686.174 1093.93 687.043 1096.3 688.733C1100.86 691.985 1104.97 695.901 1109.64 698.963C1118.28 704.621 1128.34 708.018 1135.86 715.482C1136.32 715.934 1136.99 716.18 1137.58 716.48C1145.27 720.377 1153.06 724.098 1160.62 728.229C1164.38 730.287 1167.44 733.848 1171.34 735.418C1182.39 739.859 1193.88 743.236 1203.56 750.571C1204.07 750.957 1204.75 751.134 1205.36 751.359C1211.01 753.42 1216.76 755.256 1222.3 757.566C1235.73 763.16 1249 769.151 1262.47 774.636C1270.85 778.049 1279.5 780.817 1288.01 783.914C1289.26 784.368 1290.37 785.214 1291.63 785.593C1297.49 787.354 1303.36 789.072 1309.26 790.691C1313.01 791.72 1316.82 792.504 1320.58 793.483C1324.22 794.43 1327.83 795.522 1331.46 796.487C1338.5 798.353 1345.55 800.137 1352.58 802.024C1360.67 804.195 1368.64 806.991 1376.85 808.502C1385.21 810.042 1393.8 810.346 1402.29 811.209C1402.77 811.259 1403.24 811.491 1403.72 811.61C1410.92 813.382 1418.03 815.819 1425.33 816.771C1438.75 818.518 1452.27 819.384 1465.75 820.628C1477.28 821.692 1488.79 822.865 1500.33 823.812C1507.97 824.44 1515.62 824.901 1523.28 825.154C1528 825.311 1532.75 824.734 1537.47 824.862C1541.77 824.978 1546.06 825.6 1550.35 826C1550.35 811.312 1550.35 796.625 1550.35 781.469Z" fill="white"/>
<path d="M1311.82 0C1311.33 8.30227 1311.4 16.4878 1313.33 24.7587C1314.8 31.0306 1318.16 37.8829 1313.33 44.3968C1313.05 44.763 1312.91 45.3781 1312.99 45.8277C1313.75 50.1645 1313.5 55.121 1315.58 58.7035C1322.27 70.178 1322.25 83.405 1326.37 95.4663C1328.94 102.992 1332.58 110.159 1335.89 117.421C1336.18 118.056 1337.57 118.155 1338.4 118.584C1339.38 119.085 1340.86 119.458 1341.18 120.261C1343.11 125.127 1344.54 130.204 1346.64 134.993C1347.7 137.429 1349.5 140.879 1351.51 141.294C1355.82 142.189 1356.76 145.566 1358.63 148.258C1361.2 151.958 1363 156.246 1365.84 159.691C1369.92 164.631 1374.59 169.092 1379.1 173.661C1386.48 181.123 1393.63 188.847 1401.46 195.799C1406.27 200.07 1409.72 207.013 1417.85 206.293C1418 206.279 1418.22 206.332 1418.32 206.437C1423.68 212.2 1431.15 214.225 1437.93 217.454C1446.47 221.518 1453.87 227.985 1463.8 229.166C1468.31 229.703 1472.72 231.169 1477.16 232.254C1477.79 232.408 1478.6 232.633 1478.92 233.101C1481.68 237.092 1485.9 237.167 1490.15 238.144C1502.48 240.978 1514.53 244.912 1527.43 244.795C1534.77 244.728 1542.12 245.568 1549.91 246C1550.35 164.074 1550.35 82.148 1550.35 0C1471 0 1391.64 0 1311.82 0Z" fill="white"/>
<path d="M1550.35 826.469C1546.06 825.601 1541.77 824.978 1537.47 824.862C1532.75 824.734 1528 825.311 1523.28 825.154C1515.62 824.901 1507.97 824.44 1500.33 823.813C1488.79 822.865 1477.28 821.692 1465.75 820.628C1452.27 819.384 1438.75 818.518 1425.33 816.771C1418.03 815.819 1410.92 813.382 1403.72 811.61C1403.24 811.491 1402.77 811.259 1402.29 811.209C1393.8 810.346 1385.21 810.042 1376.85 808.502C1368.64 806.991 1360.67 804.195 1352.58 802.024C1345.55 800.137 1338.5 798.353 1331.46 796.487C1327.83 795.522 1324.22 794.43 1320.58 793.483C1316.82 792.504 1313.01 791.72 1309.26 790.691C1303.36 789.072 1297.49 787.354 1291.63 785.593C1290.37 785.214 1289.26 784.368 1288.01 783.915C1279.5 780.817 1270.85 778.049 1262.47 774.636C1249 769.151 1235.73 763.16 1222.3 757.566C1216.76 755.256 1211.01 753.42 1205.36 751.359C1204.75 751.134 1204.07 750.957 1203.56 750.571C1193.88 743.236 1182.39 739.859 1171.34 735.418C1167.44 733.848 1164.38 730.287 1160.62 728.229C1153.06 724.098 1145.27 720.377 1137.58 716.48C1136.99 716.18 1136.32 715.934 1135.86 715.482C1128.34 708.018 1118.28 704.621 1109.64 698.964C1104.97 695.901 1100.86 691.985 1096.3 688.733C1093.93 687.043 1090.98 686.174 1088.55 684.557C1083.09 680.937 1077.84 677.017 1072.42 673.339C1065.48 668.625 1058.33 664.205 1051.53 659.298C1048.75 657.296 1046.87 654.093 1044.21 651.888C1039.15 647.689 1033.71 643.936 1028.62 639.774C1022.37 634.677 1016.34 629.332 1010.18 624.132C1007.8 622.127 1005.16 620.407 1002.95 618.239C999.358 614.707 996.197 610.725 992.53 607.277C987.587 602.628 982.226 598.424 977.252 593.807C972.531 589.424 968.016 584.813 963.522 580.194C958.664 575.2 953.832 570.174 949.181 564.988C944.997 560.323 941.13 555.376 937.019 550.643C933.558 546.66 929.833 542.904 926.429 538.876C918.946 530.022 912.071 520.601 904.074 512.248C891.695 499.318 883.938 483.221 873.193 469.206C867.121 461.285 860.848 453.474 855.399 445.135C851.362 438.956 848.693 431.902 845.076 425.427C841.384 418.813 837.278 412.431 833.355 405.946C832.248 404.116 831.003 402.352 830.072 400.436C822.911 385.694 815.7 370.975 808.748 356.135C805.839 349.925 803.686 343.366 800.894 337.098C796.887 328.102 792.303 319.354 788.531 310.265C784.408 300.33 780.791 290.177 777.209 280.028C773.648 269.94 770.185 259.806 767.092 249.568C764.77 241.879 763.201 233.965 761.107 226.203C759.825 221.449 757.893 216.86 756.77 212.075C754.926 204.222 753.54 196.261 751.875 188.364C751.515 186.656 750.742 185.038 750.249 183.353C749.853 182.001 749.669 180.587 749.257 179.241C748.589 177.057 747.817 174.905 747.079 172.743C746.358 170.631 745.303 168.574 744.965 166.403C744.245 161.781 743.975 157.091 743.372 152.449C742.61 146.59 741.727 140.746 740.831 134.906C740.644 133.686 740.171 132.509 739.166 131.297C738.092 131.189 737.681 131.097 737.27 131.005C737.27 131.005 737.317 130.949 737.32 130.912C736.794 132.002 736.265 133.127 735.779 134.726C736.046 136.008 736.271 136.816 736.495 137.624C735.771 137.395 735.047 137.167 734.323 136.938C732.571 135.079 730.818 133.219 728.358 131.176C726.86 131.011 726.071 131.03 725.281 131.048C724.601 131.369 723.811 131.563 723.261 132.036C721.924 133.187 720.699 134.467 719.429 135.694C720.862 136.449 722.226 137.426 723.747 137.892C725.076 138.299 726.58 138.13 729.027 138.276C727.526 139.552 726.763 140.201 725.661 141.386C724.659 143.67 723.996 145.418 723.224 147.456C721.442 146.338 720.343 145.648 719.244 144.958C718.701 145.12 718.157 145.282 717.247 145.843C716.059 146.148 715.238 146.055 714.417 145.961C714.896 144.812 715.374 143.662 716.173 142.037C716.705 141.052 716.917 140.544 717.129 140.035C717.182 139.104 717.235 138.173 716.725 137.069C715.606 136.567 715.049 136.238 714.493 135.91C715.114 133.871 715.735 131.832 716.666 129.253C717.834 128.56 718.692 128.405 719.551 128.25C719.551 128.25 719.611 128.236 719.599 127.885C719.836 126.737 720.085 125.94 720.334 125.143C720.334 125.143 720.486 125.096 720.326 124.759C719.892 123.687 719.619 122.952 719.346 122.217C719.346 122.217 718.923 122.038 718.409 121.909C717.37 121.494 716.845 121.207 716.32 120.921C715.248 120.614 714.177 120.306 712.37 119.994C710.852 119.983 710.07 119.978 709.287 119.973C708.505 120.675 707.722 121.377 706.568 122.584C704.546 124.04 702.895 124.992 701.245 125.944C700.969 126.428 700.694 126.912 700.473 127.697C701.695 129.086 703.758 130.081 703.885 131.28C704.743 139.427 707.83 147.039 708.005 155.524C708.177 163.912 711.908 172.234 714.152 180.565C714.612 182.274 715.719 183.847 715.973 185.565C716.488 189.05 716.386 192.632 716.965 196.102C718.239 203.736 719.341 211.442 721.324 218.903C723.606 227.491 726.87 235.813 729.499 244.314C731.1 249.492 732.268 254.801 733.698 260.033C736.073 268.724 737.87 277.595 742.429 285.579C743.29 287.087 742.753 289.348 743.064 291.228C743.348 292.947 743.728 294.692 744.375 296.302C747.161 303.229 750.059 310.111 752.919 317.008C753.359 318.069 753.516 319.499 754.306 320.121C758.973 323.794 758.789 329.541 760.684 334.388C763.323 341.135 765.835 347.937 768.65 354.611C772.168 362.951 775.636 371.336 779.689 379.419C783.235 386.49 787.554 393.174 791.549 400.018C792.209 401.15 793.656 402.301 793.554 403.325C792.741 411.508 799.058 416.025 802.656 421.972C804.649 425.265 805.649 429.147 807.535 432.518C809.95 436.836 812.004 441.893 815.655 444.858C821.494 449.6 822.875 456.621 826.801 462.25C830.93 468.169 834.788 474.277 838.699 480.345C845.459 490.836 852.162 501.364 858.911 511.862C859.532 512.828 860.131 514.178 861.049 514.519C865.056 516.008 866.48 519.233 867.082 522.968C868.034 528.871 872.315 531.873 876.861 534.723C877.831 535.331 879.228 535.821 879.612 536.716C883.888 546.682 893.956 552.15 898.82 561.631C901.752 567.344 908.104 570.775 910.856 575.653C915.385 583.684 923.906 587.156 928.405 594.917C931.372 600.034 936.778 603.739 941.099 608.07C949.584 616.576 958.062 625.091 966.576 633.569C967.744 634.732 969.103 635.703 970.373 636.763C974.434 640.153 978.46 643.586 982.567 646.92C985.746 649.5 989.268 651.705 992.201 654.53C995.845 658.038 999.054 661.999 1002.42 665.792C1003.6 667.122 1004.41 669.214 1005.86 669.801C1018.14 674.771 1027.8 683.283 1037.14 692.282C1037.85 692.973 1038.56 693.802 1039.44 694.18C1050.09 698.768 1058.08 707.091 1067.29 713.716C1074.86 719.161 1083.3 723.378 1091.16 728.438C1097.75 732.677 1103.96 737.502 1110.54 741.754C1113.39 743.6 1116.79 744.596 1119.88 746.092C1122.84 747.518 1125.82 748.921 1128.61 750.636C1134.06 753.99 1139.09 758.16 1144.84 760.848C1149.86 763.2 1153.88 768.165 1160.23 767.475C1160.85 767.408 1161.77 767.501 1162.12 767.898C1167.35 773.929 1175.32 774.679 1181.85 778.177C1188.58 781.78 1195.27 785.505 1202.19 788.694C1207.69 791.225 1213.55 792.95 1219.19 795.189C1222.08 796.333 1224.75 798.04 1227.65 799.108C1235.58 802.02 1243.67 804.504 1251.53 807.577C1259.48 810.686 1267.2 814.377 1275.1 817.629C1276.88 818.361 1279.01 818.191 1280.91 818.678C1284.67 819.639 1288.41 820.713 1292.12 821.844C1295.9 822.994 1299.56 824.806 1303.42 825.375C1310.9 826.481 1317.96 828.275 1323.88 833.278C1324.38 833.696 1325.04 834.135 1325.64 834.162C1330.61 834.388 1335.66 834.029 1340.53 834.808C1345.85 835.659 1350.97 837.629 1356.23 838.943C1362.44 840.496 1368.71 841.819 1374.92 843.353C1376.52 843.745 1377.99 844.59 1379.54 845.166C1381.24 845.795 1383.13 847.143 1384.64 846.814C1394.52 844.664 1403.46 849.201 1412.84 850.406C1424.72 851.932 1437.02 852.125 1448.32 855.593C1455.16 857.695 1461.57 856.131 1468.14 857.51C1475.94 859.148 1484.2 858.595 1492.25 859.058C1494.24 859.172 1496.2 859.553 1498.18 859.797C1501.46 860.202 1504.75 860.957 1508.04 860.921C1516.14 860.834 1524.25 860.354 1532.36 860.103C1533.84 860.057 1535.33 860.396 1536.81 860.477C1541.05 860.705 1545.29 860.891 1549.94 861.047C1550.35 849.646 1550.35 838.292 1550.35 826.469Z" fill="white"/>
<path d="M908.881 876C908.58 874.737 908.079 873.14 906.995 872.267C901.629 867.947 895.475 864.42 890.789 859.484C883.364 851.662 872.165 848.768 866.067 839.115C863.601 835.211 858.312 833.188 854.669 829.908C847.792 823.718 841.238 817.171 834.416 810.919C832.482 809.146 829.852 808.128 827.936 806.341C819.679 798.64 811.539 790.812 803.412 782.973C794.849 774.713 786.309 766.43 777.858 758.056C776.242 756.456 775.068 754.405 773.734 752.53C773.256 751.858 773.001 750.538 772.488 750.453C764.119 749.066 762.296 740.473 756.676 735.978C751.875 732.137 748.685 726.284 744.77 721.331C744.058 720.431 743.306 719.56 742.54 718.706C738.819 714.558 735.044 710.458 731.37 706.269C727.992 702.42 724.665 698.523 721.408 694.571C715.711 687.658 710.013 680.743 704.448 673.723C697.165 664.536 689.862 655.358 682.853 645.964C678.087 639.578 673.875 632.782 669.28 626.265C667.576 623.849 665.277 621.848 663.604 619.414C655.999 608.349 648.345 597.31 641.074 586.026C637.741 580.853 635.544 574.957 632.307 569.713C627.738 562.311 622.657 555.225 617.857 547.963C616.954 546.596 615.832 545.086 615.685 543.557C615.127 537.798 611.423 534.255 607.976 530.07C604.515 525.868 602.949 520.133 600.378 515.16C599.185 512.852 597.616 510.732 596.135 508.585C595.675 507.918 594.715 507.551 594.371 506.855C591.593 501.244 588.87 495.603 586.204 489.937C584.259 485.803 582.429 481.615 580.544 477.452C575.614 466.564 570.465 455.768 565.805 444.766C560.247 431.643 555.085 418.353 549.818 405.108C549.279 403.751 549.545 401.987 548.796 400.824C548.149 399.821 546.589 399.406 545.089 398.817C543.711 399.374 542.677 399.844 541.378 400.836C540.825 401.893 540.536 402.427 540.247 402.961C540.367 404.242 540.487 405.522 540.727 408.073C542.118 405.782 542.847 404.581 543.955 403.149C544.552 402.845 544.77 402.773 544.988 402.701C544.822 403.119 544.655 403.538 544.489 403.957C543.749 406.832 543.009 409.707 542.269 412.583C541.81 412.638 541.352 412.693 540.894 412.748C539.964 411.301 539.034 409.855 538.209 408.572C535.853 410.175 533.839 410.89 532.969 412.308C531.97 413.935 530.996 417.375 531.717 417.974C537.053 422.405 532.41 426.002 530.558 428.953C526.582 435.289 521.248 440.579 515.06 445.007C513.68 445.994 513.496 448.653 512.342 451.621C510.507 450.734 508.547 449.766 506.569 448.837C504.54 447.884 502.419 446.564 500.636 450.052C498.855 453.074 497.081 452.211 495.253 450.949C494.602 452.067 493.951 453.184 493.441 454.941C494.862 456.078 496.142 456.577 497.399 457.057C497.376 457.038 497.376 457.098 497.474 457.009C497.806 456.776 498.056 456.746 498.766 456.855C499.761 456.685 500.312 456.489 500.866 456.26C500.87 456.227 500.979 456.199 501.314 456.08C503.955 455.21 506.261 454.459 508.567 453.708C508.773 454.145 508.979 454.581 509.185 455.017C506.304 457.904 503.424 460.79 500.528 464.098C501.098 467.273 501.381 470.135 502.323 472.76C505.422 481.393 508.227 490.207 512.297 498.377C513.719 501.232 515.503 503.522 515.865 506.968C516.116 509.356 517.672 512.376 519.609 513.659C523.688 516.363 524.53 520.05 525.827 524.354C527.673 530.478 530.953 536.242 534.12 541.879C538.435 549.56 543.353 556.901 547.761 564.532C550.949 570.053 553.905 575.725 556.632 581.487C558.906 586.288 562.601 589.989 565.505 594.17C572.151 603.738 576.842 614.651 582.488 624.929C586.644 632.493 589.24 641.249 597.804 645.609C598.576 646.002 598.953 647.182 599.496 648.008C607.471 660.131 614.399 673.157 623.796 684.053C629.697 690.895 632.785 699.494 639.962 705.655C644.075 709.186 646.157 715.623 650.656 719.981C654.969 724.159 657.856 729.774 661.659 734.526C664.075 737.545 667.054 740.11 669.719 742.936C673.439 746.88 678.354 750.318 680.444 755.005C682.658 759.968 686.049 762.935 689.837 766.128C691.542 767.565 692.709 769.684 693.972 771.591C694.97 773.098 695.526 774.931 696.652 776.317C704.254 785.676 715.788 791.289 721.564 802.415C721.774 802.82 722.365 803.008 722.701 803.369C724.984 805.822 727.242 808.298 729.518 810.758C730.854 812.201 732.056 813.821 733.585 815.021C736.914 817.636 740.843 819.622 743.731 822.63C746.951 825.983 748.537 831.35 752.205 833.717C756.68 836.604 760.432 839.644 763.671 843.836C765.518 846.227 768.854 847.405 771.224 849.469C776.417 853.989 781.603 858.547 786.447 863.431C790.343 867.36 793.734 871.792 797.349 876C834.37 876 871.391 876 908.881 876Z" fill="white"/>
<path d="M796.881 876C793.734 871.791 790.343 867.36 786.447 863.431C781.603 858.547 776.417 853.989 771.224 849.469C768.854 847.405 765.518 846.227 763.671 843.836C760.432 839.644 756.68 836.604 752.205 833.717C748.537 831.35 746.951 825.983 743.731 822.629C740.843 819.622 736.914 817.636 733.585 815.021C732.056 813.821 730.854 812.201 729.518 810.758C727.242 808.298 724.984 805.822 722.701 803.369C722.365 803.008 721.774 802.819 721.564 802.415C715.788 791.289 704.254 785.675 696.652 776.317C695.526 774.931 694.97 773.098 693.972 771.591C692.709 769.684 691.542 767.565 689.837 766.128C686.049 762.935 682.658 759.968 680.444 755.005C678.354 750.318 673.439 746.88 669.719 742.936C667.054 740.109 664.075 737.545 661.659 734.525C657.856 729.774 654.969 724.159 650.656 719.981C646.157 715.623 644.075 709.185 639.962 705.655C632.785 699.494 629.697 690.894 623.796 684.053C614.399 673.157 607.471 660.131 599.496 648.008C598.953 647.182 598.576 646.002 597.804 645.609C589.24 641.249 586.644 632.493 582.488 624.929C576.842 614.65 572.151 603.737 565.505 594.17C562.601 589.988 558.906 586.288 556.632 581.487C553.905 575.725 550.949 570.052 547.761 564.532C543.353 556.9 538.435 549.56 534.12 541.879C530.953 536.242 527.673 530.478 525.827 524.353C524.53 520.05 523.688 516.363 519.609 513.659C517.672 512.376 516.116 509.356 515.865 506.968C515.503 503.522 513.719 501.232 512.297 498.377C508.227 490.207 505.422 481.393 502.323 472.759C501.381 470.135 501.098 467.273 500.499 463.759C499.567 460.971 495.861 460.385 497.423 457.075C496.142 456.577 494.862 456.078 493.357 455.312C490.617 458.474 488.018 461.845 485.623 465.355C484.415 467.125 483.575 469.145 482.569 471.052C482.901 471.315 483.232 471.579 483.564 471.842C484.286 471.453 485.009 471.063 485.89 470.589C486.274 472.055 486.666 473.549 486.866 474.312C484.532 477.47 482.481 480.26 480.412 483.037C479.878 483.755 479.428 484.78 478.702 485.071C473.849 487.015 473.644 490.579 474.81 493.966C473.242 496.646 472.055 498.822 470.716 500.899C470.067 501.906 469.19 502.79 468.314 503.623C466.092 505.737 464.312 507.767 462.919 510.879C461.191 514.74 461.179 520.177 455.266 522.27C452.003 523.425 450.057 528.083 447.272 530.923C446.239 531.976 444.507 532.345 442.726 533.035C442.359 533.044 442.421 533.023 442.421 533.023C442.646 533.901 442.871 534.778 443.21 536.1C442.92 536.419 442.083 537.335 441.557 538.812C443.936 543.346 446.126 547.262 448.049 551.305C453.349 562.454 458.333 573.758 463.83 584.807C468.577 594.348 473.764 603.674 478.925 613.002C483.694 621.621 488.57 630.186 493.624 638.64C497.008 644.301 500.704 649.782 504.408 655.243C509.675 663.008 515.986 670.224 520.149 678.529C523.824 685.858 527.705 692.643 532.963 699.008C539.774 707.251 545.39 716.484 551.495 725.308C555.83 731.575 559.257 738.772 564.638 743.942C572.596 751.589 577.631 761.211 584.497 769.531C586.174 771.563 587.185 774.152 588.89 776.154C595.598 784.032 602.59 791.671 609.229 799.606C615.27 806.827 620.903 814.388 626.898 821.649C629.054 824.259 632.426 826.047 634.018 828.895C636.147 832.704 636.434 837.703 642.393 837.97C643.039 837.999 643.621 839.388 644.24 840.14C645.604 841.798 646.646 844.26 648.396 844.966C655.513 847.838 656.504 857.195 664.1 859.368C664.359 859.442 664.68 859.853 664.699 860.126C665.032 864.917 668.821 866.851 671.95 869.556C673.661 871.036 674.253 873.81 675.349 876C715.704 876 756.058 876 796.881 876Z" fill="white"/>
<path d="M355.485 581.993C355.841 582.864 356.435 583.716 356.504 584.608C356.649 586.486 357.318 589.171 356.365 590.14C352.12 594.454 347.227 598.12 342.86 602.324C338.263 606.75 336.589 601.279 334.111 599.727C331.657 598.191 330.002 595.377 327.823 592.927C319.736 602.376 311.846 611.93 303.555 621.123C300.147 624.902 295.689 627.717 292.075 631.337C290.305 633.11 289.371 635.719 287.785 638.414C278.536 642.765 272.653 651.643 266.659 661.21C263.719 657.213 261.71 658.692 259.103 660.85C254.981 664.263 249.865 666.573 246.116 670.301C243.838 672.565 240.019 675.087 241.997 680.028C242.553 681.414 240.351 683.904 239.723 685.235C241.818 687.113 245.235 689.008 245.006 690.202C244.452 693.084 242.562 695.979 240.497 698.208C239.034 699.787 236.082 699.908 234.375 701.361C232.084 703.313 230.353 705.923 228.39 708.836C227.44 709.955 226.481 710.487 225.523 711.018C225.036 712.006 224.55 712.994 223.718 714.443C224.042 716.646 224.71 718.389 225.658 719.973C226.421 718.907 226.905 717.999 227.421 716.75C228.362 715.269 229.271 714.128 230.367 712.769C232.501 711.675 234.448 710.799 236.374 709.933C236.532 710.357 236.93 711.42 237.46 712.835C239.112 711.373 240.347 710.279 242.619 708.267C241.217 711.983 239.484 714.398 239.632 716.693C239.86 720.241 238.564 722.632 236.236 725.247C234.865 726.378 233.561 727.159 232.274 727.953C232.29 727.967 232.272 727.924 232.283 728.336C232.656 731.596 232.212 734.908 233.534 737.201C237.184 743.527 241.647 749.378 245.617 755.528C246.647 757.124 246.78 759.292 247.784 760.912C251.064 766.209 258.519 769.008 257.318 777.019C257.246 777.501 257.994 778.119 258.383 778.657C261.088 782.406 264.065 785.991 266.443 789.937C269.492 794.994 271.872 800.453 274.886 805.535C278.513 811.652 282.483 817.567 286.355 823.537C287.071 824.641 288.094 825.541 288.861 826.616C294.104 833.967 299.399 841.283 304.498 848.733C306.634 851.854 308.244 855.329 310.256 858.541C311.866 861.112 313.649 863.584 315.487 866C317.753 868.98 320.865 871.58 319.35 876C372.37 876 425.391 876 478.724 875.709C473.558 870.546 468.897 865.297 465.278 858.606C461.455 851.537 455.388 845.658 450.162 839.376C440.881 828.22 431.466 817.223 423.894 804.719C418.192 795.304 411.533 786.468 405.272 777.393C404.15 775.767 402.758 774.319 401.712 772.649C396.735 764.7 391.876 756.676 386.883 748.735C385.062 745.838 383.545 742.238 380.882 740.515C377.768 738.501 376.555 736.334 376.243 732.965C376.094 731.369 375.596 729.63 374.726 728.302C368.506 718.811 362.332 709.279 355.773 700.022C351.377 693.817 350.459 686.13 345.156 679.998C339.836 673.846 336.816 665.45 333.814 657.643C331.992 652.905 332.117 647.419 331.367 642.268C330.589 641.502 329.81 640.737 328.697 640.348C329.141 642.658 329.919 644.59 330.92 647.075C329.185 645.606 328.145 644.842 327.251 643.933C326.56 643.229 326.052 642.345 325.463 641.541C326.448 641.06 327.433 640.579 328.418 640.098C327.826 636.105 327.233 632.112 326.641 628.12C326.011 628.061 325.382 628.002 324.752 627.943C324.057 630.147 323.361 632.35 322.666 634.553C322.089 634.465 321.512 634.376 320.935 634.288C321.2 630.815 321.464 627.343 321.825 622.609C325.421 627.774 328.444 627.19 331.159 623.382C332.045 625.266 332.929 627.148 334.389 630.254C335.605 625.017 336.417 621.27 337.372 617.56C337.65 616.48 338.289 615.48 338.843 614.488C339.814 612.748 340.847 611.044 340.907 608.773C345.546 605.725 350.185 602.676 354.824 599.628C354.904 599.762 354.985 599.896 355.065 600.03C356.332 598.88 357.599 597.731 358.919 596.59C359.194 595.809 359.416 595.019 359.637 594.23C359.904 594.346 360.17 594.463 360.436 594.579C360.075 595.388 359.714 596.197 359.353 597.005C362.505 599.893 363.84 596.702 364.122 594.902C364.63 591.665 363.992 588.213 368.378 587.276C368.067 585.967 368.153 584.267 367.345 583.446C366.328 582.412 364.581 582.096 362.705 581.276C362.609 581.645 362.214 583.164 361.738 584.995C360.308 583.953 359.124 583.09 357.359 582.104C356.347 581.986 355.916 581.99 355.485 581.993ZM282.072 672.879C282.432 672.595 283.13 672.273 283.103 672.032C282.61 667.551 282.717 667.863 287.996 665.728C289.966 664.931 292.238 662.491 292.577 660.495C293.613 654.398 294.923 652.977 301.581 652.764C302.409 652.737 303.712 651.595 303.895 650.77C304.261 649.118 304.004 647.328 304.004 646.929C305.752 645.389 307.034 644.477 308.038 643.323C309.447 641.704 310.649 639.904 311.994 638.108C313.191 642.696 314.162 642.997 318.838 639.534C318.599 641.916 318.467 645.205 318.24 645.211C312.13 645.389 312.594 651.021 310.962 654.406C309.796 656.823 311.641 660.472 307.669 662.025C305.048 663.049 302.648 664.635 300.148 665.97C299.725 665.532 299.301 665.093 298.877 664.655C301.003 661.788 303.129 658.921 305.425 655.824C306.598 657.071 307.312 657.831 308.027 658.591C308.5 656.5 308.334 654.217 307.151 653.39C305.574 652.289 296.698 656.922 296.249 658.885C295.866 660.553 296.17 662.379 296.17 664.756C291.946 660.985 290.783 664.441 289.815 667.141C288.87 669.778 288.605 672.659 287.997 675.65C287.005 675.09 286.071 674.562 285.696 674.351C283.72 676.519 281.721 680.165 280.361 679.94C275.997 679.218 275.533 683.112 274.645 684.765C272.762 688.272 270.863 689.721 267.172 688.151C265.714 693.743 248.912 708.169 243.271 708.215C245.632 704.681 247.744 701.521 250.068 698.042C257.678 690.333 265.651 682.258 273.607 674.198C277.104 677.357 279.416 677.1 280.204 673.375C279.51 673.399 278.817 673.423 278.124 673.446C278.389 672.742 278.654 672.038 278.919 671.334C279.759 671.855 280.599 672.376 282.072 672.879ZM330.845 613.574C329.543 605.904 329.543 605.904 336.772 605.255C337.381 609.161 337.381 609.161 330.845 613.574ZM298.208 644.142C296.598 646.026 294.988 647.91 293.378 649.794C293.005 649.496 292.632 649.199 292.259 648.902C292.914 647.106 293.256 645.069 294.365 643.621C294.876 642.954 296.89 643.44 298.208 644.142Z" fill="white"/>
<path d="M674.881 876C674.253 873.81 673.661 871.036 671.95 869.557C668.821 866.852 665.032 864.917 664.699 860.126C664.68 859.853 664.359 859.442 664.1 859.368C656.504 857.195 655.514 847.838 648.396 844.966C646.647 844.26 645.604 841.798 644.24 840.14C643.621 839.388 643.039 838 642.393 837.97C636.434 837.703 636.147 832.704 634.018 828.895C632.426 826.047 629.054 824.259 626.898 821.649C620.903 814.388 615.27 806.827 609.229 799.606C602.59 791.671 595.598 784.033 588.89 776.154C587.185 774.152 586.174 771.563 584.497 769.531C577.631 761.211 572.596 751.589 564.638 743.942C559.257 738.772 555.83 731.575 551.495 725.308C545.39 716.484 539.774 707.251 532.963 699.008C527.705 692.643 523.824 685.859 520.149 678.529C515.986 670.225 509.675 663.008 504.408 655.243C500.704 649.782 497.008 644.301 493.624 638.64C488.57 630.186 483.694 621.621 478.925 613.002C473.764 603.674 468.577 594.348 463.83 584.807C458.333 573.758 453.349 562.455 448.049 551.306C446.127 547.262 443.936 543.346 441.561 539.169C439.612 540.53 437.969 542.093 435.961 544.004C435.564 541.995 435.211 540.207 434.636 537.295C425.983 546.238 417.94 554.55 410.07 562.683C410.189 562.819 409.38 561.896 407.702 559.98C407.458 562.991 406.501 565.38 407.302 566.706C409.566 570.452 407.743 572.866 405.414 575.264C405.007 575.683 403.821 575.335 402.995 575.359C402.047 575.387 400.799 575.061 400.204 575.539C397.555 577.669 395.087 580.026 392.574 582.322C392.346 582.531 392.202 583.166 392.116 583.147C385.924 581.832 386.171 589.605 381.62 590.566C381.794 590.849 381.969 591.131 382.473 591.878C385.535 599.279 394.168 602.625 394.285 611.189C394.292 611.73 395.061 612.231 395.385 612.802C397.71 616.904 400.244 620.909 402.265 625.158C404.91 630.717 406.759 636.677 409.661 642.084C412.586 647.536 417.563 652.111 419.538 657.8C423.21 668.376 433.366 674.973 435.798 686.093C436.012 687.071 437.242 687.826 437.995 688.689C440.085 691.081 442.506 693.265 444.186 695.917C447.073 700.474 449.42 705.369 452.135 710.04C456.464 717.487 460.875 724.886 465.334 732.256C466.171 733.641 467.432 734.763 468.43 736.058C473.395 742.504 478.339 748.967 483.284 755.429C483.38 755.555 483.406 755.737 483.461 755.894C485.681 762.278 488.264 768.35 495.514 770.655C496.064 770.83 496.529 771.502 496.877 772.043C500.014 776.914 502.886 781.974 506.275 786.662C513.542 796.714 521.18 806.498 528.441 816.555C531.691 821.057 533.897 826.38 537.476 830.561C542.47 836.396 550.354 839.777 552.24 848.247C552.307 848.547 552.58 848.822 552.808 849.06C557.445 853.902 562.318 858.542 566.658 863.637C569.91 867.455 572.477 871.858 575.35 876C608.37 876 641.391 876 674.881 876Z" fill="white"/>
<path d="M225.378 720.131C224.71 718.389 224.042 716.646 223.369 714.536C220.581 716.179 217.809 718.208 215.011 720.2C210.255 723.587 205.342 726.776 200.816 730.444C199.646 731.392 199.67 733.813 198.984 736.095C198.515 735.005 198.148 734.151 198.035 733.888C194.066 736.011 189.879 737.845 186.157 740.366C182.919 742.559 180.323 745.678 177.217 748.097C175.453 749.47 173.236 750.263 171.22 751.31C170.795 751.531 170.291 751.643 169.93 751.936C162.534 757.951 155.244 764.103 147.712 769.942C145.599 771.579 142.644 772.081 140.318 773.501C135.246 776.6 130.33 779.955 125.212 783.294C127.506 787.071 130.327 786.515 132.735 785.041C138.987 781.214 144.973 776.954 151.195 773.075C156.611 769.699 162.328 766.799 167.683 763.336C173.103 759.83 178.243 755.89 183.845 751.898C184.449 752.575 185.352 753.586 186.673 755.067C185.41 755.398 184.609 755.609 183.293 755.954C184.19 758.158 186.388 760.879 185.796 762.688C184.745 765.905 182.594 769.517 179.828 771.238C175.847 773.716 171.406 774.741 170.112 780.442C169.681 782.342 165.915 783.769 163.432 784.866C156.426 787.959 157.375 794.903 160.453 798.606C161.065 799.342 162.201 799.642 164.208 800.767C161.036 803.464 158.194 805.881 155.94 807.797C153.088 804.759 150.664 800.852 149.524 801.197C145.113 802.528 148.874 806.145 148.417 808.754C148.171 810.157 147.503 811.621 146.624 812.742C145.721 813.892 144.329 814.658 141.813 815.425C142.2 813.245 142.586 811.065 142.972 808.883C136.096 808.034 129.042 805.457 122.557 810.624C122.094 809.337 121.492 807.664 121.066 806.479C117.868 808.133 114.656 809.794 111.445 811.455C111.151 811.051 110.858 810.647 110.564 810.242C113.804 804.32 117.044 798.398 120.603 791.89C121.482 792.704 122.419 793.573 123.332 794.418C123.522 794.268 123.955 794.093 123.969 793.89C124.101 791.956 124.355 790.001 124.205 788.082C123.847 783.516 122.334 783.026 118.305 785.225C114.685 787.202 110.733 788.571 107.386 790.011C107.1 786.806 106.768 783.087 106.436 779.368C105.982 779.41 105.529 779.452 105.075 779.494C103.419 784.164 101.763 788.834 100.106 793.504C99.3426 793.255 98.5789 793.005 97.8151 792.755C100.51 783.592 103.206 774.428 105.92 765.201C111.199 767.143 115.108 765.618 117.164 761.365C119.483 756.566 121.445 751.479 128.23 751.807C128.856 751.837 129.659 751.029 130.157 750.425C134.229 745.49 138.248 740.51 142.396 735.405C146.057 739.65 149.164 738.774 151.672 734.114C154.334 729.167 157.268 724.365 159.848 719.378C160.273 718.557 159.47 716.105 159.273 716.109C156.85 716.165 153.722 715.687 152.159 716.997C148.441 720.113 145.897 724.672 142.085 727.624C136.565 731.899 130.349 735.276 124.42 739.022C123.455 739.631 122.031 739.918 121.517 740.773C117.07 748.16 109.651 748.096 102.306 748.832C102.656 747.233 103.208 745.849 103.161 744.487C103.135 743.723 102.117 742.994 101.545 742.249C100.836 742.816 99.4608 743.46 99.5169 743.937C100.261 750.26 95.3734 753.181 91.9067 756.975C91.1479 757.806 90.559 758.792 89.908 759.684C87.5053 756.708 86.0856 757.724 85.5111 761.033C85.2034 762.806 85.2672 764.643 85.2147 765.555C81.7159 766.494 78.5229 766.742 75.9959 768.169C72.06 770.393 68.723 771.335 65.4843 766.53C64.9692 767.722 64.4654 768.306 64.5388 768.805C65.6543 776.403 58.6296 778.568 54.5598 781.233C50.2704 784.042 46.7361 787.285 43.624 790.986C41.8035 793.151 40.9765 794.594 38.0793 792.71C36.4002 791.617 34.5773 790.981 32.9455 793.986C31.8729 795.962 29.5255 797.39 26.1033 797.92C22.183 798.526 18.9435 803.296 15.3176 806.142C13.559 807.522 11.5937 808.638 9.17035 810.238C9.17035 812.234 9.47614 815.359 9.09906 818.399C8.52631 823.016 10.9888 825.117 14.8737 824.811C19.2747 824.464 23.6004 823.031 27.9288 821.95C30.2144 821.379 32.472 820.645 34.6727 819.803C35.9538 819.313 37.986 818.637 38.1606 817.747C39.4151 811.347 44.565 809.167 49.2945 806.098C51.9277 804.39 53.3874 800.912 55.4877 798.322C56.2453 797.388 57.3209 796.709 58.2661 795.932C59.6342 794.806 60.8749 793.4 62.4297 792.659C64.1298 791.849 66.8541 790.647 67.8684 791.375C72.5299 794.722 75.3908 794.88 79.3486 790.16C82.7388 786.117 86.1627 782.58 91.7703 781.964C92.6676 781.865 93.4575 780.62 94.2596 779.865C95.2749 778.91 96.2518 777.914 98.0919 776.103C97.5727 779.937 97.2522 782.306 96.8803 785.051C90.3028 784.974 87.0268 788.736 86.2224 795.077C86.1626 795.548 85.9589 796.271 85.6348 796.398C80.6035 798.368 79.025 803.627 75.4724 806.993C74.1958 808.203 73.0633 809.564 71.8651 810.856C72.2511 811.578 72.6372 812.301 73.0231 813.023C79.4711 811.241 85.919 809.459 92.8972 807.53C94.9859 808.478 92.3696 814.834 97.9681 813.883C97.1245 811.127 96.4338 808.87 95.5695 806.047C99.9021 806.437 101.804 804.726 103.061 801.212C104.097 798.315 110.99 797.831 114.242 800.11C113.496 800.758 112.39 802.033 112.143 801.884C109.695 800.409 107.594 799.813 106.573 803.323C105.959 805.432 105.678 807.636 105.105 809.759C103.956 814.017 103.871 819.144 97.4934 819.341C96.982 819.357 96.3381 820.305 96.0466 820.952C95.6466 821.838 95.6367 822.897 95.2648 823.801C93.3327 828.504 92.4064 832.943 98.5759 835.521C95.5109 837.729 93.0305 839.516 90.5506 841.304C90.1461 841.595 89.4293 841.851 89.3867 842.189C88.4534 849.606 80.1533 853.276 80.0844 861.454C80.0457 866.053 77.6839 870.633 76.3591 875.611C79.0496 876 81.7496 876 84.7526 875.688C85.5382 872.185 86.3752 871.838 92.918 872.219C93.0588 873.452 93.2042 874.726 93.3496 876C103.704 876 114.058 876 124.713 875.69C123.078 871.379 126.667 870.516 128.993 868.208C130.227 871.073 131.288 873.536 132.35 876C133.416 876 134.483 876 135.936 875.643C137.161 872.56 137.999 869.835 139.086 866.302C141.232 869.57 142.715 871.83 144.196 874.086C145.319 873.332 146.659 872.779 147.465 871.79C148.206 870.88 148.374 869.502 148.809 868.287C150.121 869.673 151.228 870.844 152.457 871.681C152.677 870.583 152.953 869.792 152.845 869.057C152.207 864.726 156.445 860.729 161.255 861.628C157.387 853.399 167.422 855.859 168.636 851.928C170.294 852.435 171.941 852.938 173.659 853.463C173.004 856.386 172.199 858.505 168.225 857.235C167.006 856.845 164.866 858.651 163.431 859.804C161.75 861.154 160.489 863.017 158.847 864.426C155.943 866.918 154.6 869.421 157.746 873.395C155.919 872.906 154.093 872.417 152.216 872.272C150.893 873.744 149.621 874.872 148.35 876C205.037 876 261.725 876 318.881 876C320.864 871.58 317.753 868.98 315.487 866C313.649 863.584 311.866 861.112 310.256 858.541C308.244 855.329 306.634 851.854 304.498 848.733C299.399 841.283 294.104 833.967 288.861 826.616C288.094 825.541 287.071 824.641 286.355 823.537C282.483 817.567 278.513 811.652 274.886 805.535C271.872 800.453 269.492 794.994 266.443 789.936C264.065 785.991 261.088 782.406 258.383 778.657C257.994 778.118 257.246 777.501 257.318 777.018C258.519 769.008 251.064 766.209 247.784 760.912C246.78 759.292 246.647 757.124 245.617 755.528C241.647 749.378 237.184 743.527 233.534 737.201C232.211 734.908 232.656 731.596 231.988 728.492C228.044 730.921 223.533 732.959 220.955 736.432C216.083 742.996 209.722 746.936 202.505 749.971C200.987 750.609 199.012 750.528 197.822 751.49C196.26 752.754 195.267 754.723 194.33 755.984C192.25 754.504 190.936 753.906 190.135 752.9C189.401 751.979 188.668 749.716 188.882 749.585C191.818 747.781 194.578 743.488 196.394 743.274C203.177 742.475 203.787 738.094 204.57 733.399C206.24 732.668 207.96 732.192 209.366 731.248C214.758 727.624 220.05 723.849 225.378 720.131ZM138.112 816.482C138.628 816.374 139.145 816.266 139.662 816.157C139.273 816.376 138.885 816.594 138.112 816.482Z" fill="white"/>
<path d="M574.881 876C572.477 871.857 569.91 867.455 566.658 863.636C562.318 858.542 557.445 853.902 552.807 849.06C552.58 848.822 552.307 848.546 552.24 848.247C550.354 839.777 542.47 836.396 537.476 830.561C533.897 826.38 531.691 821.056 528.441 816.554C521.18 806.498 513.542 796.714 506.275 786.662C502.886 781.974 500.014 776.914 496.877 772.042C496.529 771.501 496.064 770.829 495.514 770.655C488.264 768.35 485.681 762.278 483.461 755.894C483.406 755.736 483.38 755.555 483.284 755.429C478.339 748.967 473.395 742.504 468.43 736.058C467.432 734.763 466.171 733.641 465.334 732.256C460.875 724.886 456.464 717.486 452.135 710.039C449.42 705.369 447.073 700.474 444.186 695.917C442.506 693.265 440.085 691.081 437.995 688.688C437.242 687.826 436.012 687.071 435.798 686.092C433.366 674.973 423.21 668.376 419.538 657.8C417.563 652.111 412.586 647.536 409.661 642.084C406.759 636.677 404.91 630.716 402.265 625.157C400.244 620.909 397.71 616.904 395.385 612.802C395.061 612.231 394.292 611.73 394.285 611.188C394.168 602.624 385.535 599.279 382.516 592.144C380.23 594.087 378.232 596.228 376.247 598.354C373.157 595.182 371.021 595.704 369.102 600.497C368.277 602.558 366.538 604.253 365.156 606.198C363.894 604.018 362.823 602.165 360.922 598.881C359.141 601.733 357.795 603.989 356.351 606.181C353.393 610.672 353.541 616.636 349.376 620.593C348.245 621.667 347.254 623.221 346.917 624.717C346.418 626.929 346.341 628.503 343.176 628.469C341.922 628.456 340.636 631.486 339.17 633.743C338.376 634.933 337.777 635.511 337.177 636.088C335.433 638.024 333.688 639.96 331.655 642.082C332.117 647.418 331.992 652.905 333.814 657.643C336.816 665.45 339.836 673.846 345.156 679.997C350.459 686.13 351.377 693.817 355.773 700.022C362.332 709.279 368.506 718.81 374.726 728.302C375.596 729.63 376.094 731.368 376.242 732.965C376.555 736.334 377.768 738.501 380.881 740.515C383.545 742.237 385.062 745.838 386.883 748.735C391.876 756.675 396.735 764.7 401.712 772.649C402.758 774.319 404.149 775.767 405.271 777.393C411.533 786.467 418.192 795.304 423.894 804.719C431.466 817.222 440.881 828.22 450.162 839.375C455.388 845.658 461.455 851.537 465.278 858.606C468.897 865.297 473.557 870.546 479.193 875.708C511.037 876 542.725 876 574.881 876Z" fill="white"/>
<path d="M147.889 876C149.621 874.872 150.893 873.744 152.233 872.294C152.301 871.972 152.336 872.014 152.336 872.014C151.228 870.844 150.121 869.673 148.809 868.287C148.374 869.502 148.207 870.88 147.465 871.79C146.659 872.779 145.319 873.332 144.196 874.086C142.715 871.83 141.232 869.57 139.086 866.302C137.999 869.835 137.161 872.56 136.336 875.643C140.042 876 143.735 876 147.889 876Z" fill="white"/>
<path d="M131.912 876C131.288 873.536 130.227 871.073 128.993 868.208C126.667 870.516 123.078 871.378 125.182 875.69C127.391 876 129.433 876 131.912 876Z" fill="white"/>
<path d="M92.9054 876C93.2041 874.726 93.0587 873.452 92.918 872.219C86.3751 871.838 85.5381 872.185 85.2025 875.688C87.7201 876 90.0906 876 92.9054 876Z" fill="white"/>
<path d="M286.152 609.987C284.834 606.376 283.551 603.124 282.039 599.295C281.733 599.274 280.326 599.18 278.671 599.068C278.671 601.179 278.671 603.101 278.671 605.302C276.816 605.973 274.98 606.637 272.498 607.535C274.729 614.075 267.763 613.503 264.875 616.239C255.096 625.5 245.193 634.624 235.92 644.403C235.038 645.333 234.374 646.599 233.987 647.828C233.682 648.796 233.586 650.222 234.103 650.923C234.473 651.423 236.015 651.096 237.032 651.068C238.419 651.031 239.952 650.506 241.164 650.929C245.447 652.425 248.268 649.795 251.368 647.775C254.573 645.687 257.855 643.713 260.995 641.534C261.623 641.098 261.765 639.961 262.406 638.539C263.645 640.348 264.491 641.583 266.147 644.001C266.656 641.313 267.672 639.409 267.125 638.23C264.7 633.005 266.512 630.426 271.693 628.998C275.735 627.884 274.934 625.691 272.671 623.65C277.662 619.807 284.154 617.414 286.152 609.987Z" fill="white"/>
<path d="M331.583 556.325C328.113 559.989 325.036 563.628 321.581 566.862C318.167 570.056 318.474 573.93 322.582 576.193C324.103 577.031 325.39 578.294 327.285 579.747C327.564 577.78 327.26 575.47 328.272 574.358C328.949 573.615 331.497 574.576 334.432 574.917C336.753 572.314 338.454 568.027 339.666 563.163C340.323 560.524 343.466 558.589 345.093 556.081C346.411 554.051 347.671 551.685 347.877 549.372C347.965 548.387 345.032 546.014 343.943 546.271C341.557 546.834 339.126 548.329 337.368 550.095C335.853 551.618 335.34 554.103 334.151 556.019C333.919 556.393 332.618 556.104 331.583 556.325Z" fill="white"/>
<path d="M420.319 528.973C416.805 527.914 417.916 530.877 417.279 532.399C416.147 535.107 414.975 537.945 412.042 536.002C409.626 538.023 407.123 539.635 405.257 541.797C402.714 544.741 401.079 548.548 398.299 551.19C393.359 555.886 390.801 564.015 381.499 563.041C382.249 571.123 373.965 571.6 370.909 576.456C370.062 577.803 369.49 579.322 368.791 580.762C370.025 580.837 371.582 581.432 372.439 580.9C377.755 577.599 383.366 575.057 386.822 568.912C389.315 564.479 394.548 561.642 398.316 557.851C400.666 555.488 402.213 551.989 405.645 553.406C407.096 551.354 408.42 549.6 409.595 547.752C409.98 547.147 410.251 546.236 410.104 545.568C409.512 542.873 410.445 542.16 413.191 541.728C415.675 541.338 418.169 539.79 420.229 538.197C423.579 535.604 421.998 532.529 420.302 529.285C420.268 528.924 420.319 528.973 420.319 528.973Z" fill="white"/>
<path d="M168.548 719.428C170.524 721.196 172.324 722.665 174.512 724.451C175.18 722.707 176.437 720.751 176.604 718.706C176.94 714.6 178.847 713.078 182.867 712.889C186.474 712.718 191.099 714.89 193.105 709.554C194.444 710.301 196.137 710.779 196.991 711.897C197.507 712.573 196.722 714.242 196.462 715.825C200.294 715.606 201.905 714.189 200.358 710.818C199.426 708.79 197.983 706.997 196.578 704.798C192.775 708.362 188.59 708.239 183.715 706.89C177.241 705.099 172.245 710.919 165.14 711.151C166.38 714.213 167.375 716.671 168.548 719.428Z" fill="white"/>
<path d="M292.975 588.558C292.023 587.676 291.265 587.076 290.507 586.476C290.106 586.549 289.705 586.622 289.304 586.695C289.569 588.101 289.834 589.506 290.099 590.911C290.421 590.851 290.742 590.791 291.063 590.73C290.507 592.183 289.712 593.605 289.52 595.104C289.451 595.649 290.823 596.377 291.537 597.022C294.486 593.667 297.802 597.054 300.826 596.475C303.11 596.037 305.819 595.229 307.277 593.622C310.067 590.545 312.171 586.826 314.394 583.27C314.887 582.482 314.692 581.264 314.814 580.244C313.506 580.098 311.984 579.45 310.93 579.9C307.666 581.294 304.58 583.105 300.902 585.027C301.007 583.332 301.093 581.94 301.201 580.195C299.245 581.373 297.583 582.374 296.241 583.182C297.358 584.246 298.495 585.33 299.552 586.336C296.056 591.049 295.247 591.31 292.975 588.558Z" fill="white"/>
<path d="M448.069 508.775C448.427 510.007 448.699 510.899 449.321 512.938C453.046 507.236 455.812 501.985 459.603 497.624C461.512 495.428 462.087 490.41 467.108 491.942C467.455 492.048 468.325 491.639 468.366 491.377C469.358 485.113 477.415 485.167 478.816 479.048C477.892 478.48 476.663 477.725 474.742 476.544C472.301 479.48 470.07 482.566 467.43 485.251C462.77 489.99 457.597 494.247 453.164 499.178C450.858 501.743 449.674 505.317 448.069 508.775Z" fill="white"/>
<path d="M420.248 528.895C422.32 529.519 424.412 530.172 426.504 530.825C427.029 527.12 434.832 529.484 432.769 523.3C432.561 522.675 434.968 520.933 436.382 520.072C438.212 518.959 441.617 518.564 441.965 517.237C442.971 513.391 442.849 509.236 442.954 505.197C442.962 504.873 440.766 504 440.542 504.246C439.621 505.257 438.538 506.584 438.495 507.829C438.425 509.884 439.114 511.965 438.298 513.104C432.326 518.161 426.354 523.218 420.351 528.624C420.319 528.973 420.269 528.924 420.248 528.895Z" fill="white"/>
<path d="M366.012 527.281C365.049 525.396 364.31 523.821 363.16 521.367C360.757 525.052 358.554 528.432 356.095 532.203C358.095 535.3 352.762 542.857 362.716 543.646C363.849 538.477 365.043 533.034 366.012 527.281Z" fill="white"/>
<path d="M349.645 564.58C347.464 568.644 345.67 572.361 350.399 575.812C352.309 572.476 354.214 569.15 356.91 564.443C356.457 560.638 355.778 554.94 355.099 549.243C354.527 549.243 353.955 549.243 353.383 549.243C351.486 553.244 347.827 556.771 350.724 562.061C350.961 562.494 350.145 563.503 349.645 564.58Z" fill="white"/>
<path d="M378.647 523.916C379.695 522.094 380.438 520.44 381.229 518.674C377.557 515.549 374.765 518.74 372.05 520.069C370.526 520.816 369.341 522.908 368.704 524.65C367.851 526.981 368.439 529.129 371.648 528.779C374.051 528.516 376.418 527.919 378.9 527.452C378.707 526.285 378.524 525.184 378.647 523.916Z" fill="white"/>
<path d="M724.893 130.97C726.071 131.03 726.86 131.011 728.045 130.987C728.694 130.503 728.949 130.025 729.139 129.087C728.826 128.158 728.576 127.689 728.327 127.22C728.621 126.57 728.958 125.346 729.203 125.364C730.685 125.473 732.145 125.866 734.034 126.249C734.483 122.652 734.86 119.627 735.385 115.427C733.023 118.571 731.736 120.286 730.909 121.387C728.999 119.787 727.702 118.7 726.795 117.94C725.735 120.806 724.746 122.603 724.453 124.506C724.134 126.583 724.46 128.759 724.893 130.97Z" fill="white"/>
<path d="M578.345 283.705C578.347 280.788 578.347 278.313 578.347 274.983C576.548 275.153 573.858 274.92 573.663 275.511C572.863 277.933 572.145 280.771 572.714 283.138C573.19 285.115 575.502 286.65 577.001 288.381C577.372 288.107 577.744 287.834 578.115 287.56C578.192 286.423 578.268 285.285 578.345 283.705Z" fill="white"/>
<path d="M104.721 745.474C106.048 745.642 107.913 745.881 108.285 745.245C109.846 742.583 111.064 739.698 112.157 736.8C112.402 736.149 111.858 734.663 111.28 734.383C110.646 734.075 108.995 734.459 108.748 734.989C107.207 738.304 105.934 741.744 104.721 745.474Z" fill="white"/>
<path d="M22.2557 748.085C21.2321 747.384 20.4965 746.822 19.7609 746.26C19.3633 746.573 18.9658 746.886 18.5682 747.199C20.7437 750.205 22.9189 753.211 25.4301 756.68C26.7605 754.018 28.0906 751.357 29.2798 748.977C26.5983 748.678 24.571 748.451 22.2557 748.085Z" fill="white"/>
<path d="M399.371 522.889C400.027 520.855 400.68 519.204 401.385 517.421C394.351 517.149 394.351 517.149 395.077 526.309C396.68 525.174 398.024 524.223 399.371 522.889Z" fill="white"/>
<path d="M293.45 624.225C293.93 622.112 294.177 620.276 294.495 617.908C288.023 618.929 289.829 624.344 287.168 626.774C287.525 627.204 287.882 627.634 288.239 628.064C289.898 626.877 291.558 625.69 293.45 624.225Z" fill="white"/>
<path d="M521.889 424.44C522.433 422.255 522.727 420.381 523.021 418.507C522.729 418.303 522.436 418.1 522.144 417.897C520.01 420.709 517.876 423.521 515.741 426.333C515.161 426.275 514.582 426.216 514.002 426.158C514.969 427.395 515.936 428.633 516.903 429.87C517.739 428.676 518.491 427.41 519.442 426.315C520.015 425.656 520.896 425.264 521.889 424.44Z" fill="white"/>
<path d="M216.957 669.495C217.901 667.46 218.68 665.757 219.458 664.055C219.03 663.596 218.603 663.137 218.175 662.678C216.229 664.289 214.053 665.706 212.454 667.609C211.858 668.318 212.609 670.16 212.746 671.485C214.094 670.933 215.442 670.381 216.957 669.495Z" fill="white"/>
<path d="M374.26 561.845C373.616 559.939 372.928 558.409 372.24 556.879C371.561 556.857 370.881 556.835 370.202 556.813C369.469 559.694 368.735 562.575 368.002 565.455C368.605 565.82 369.208 566.185 369.81 566.549C371.279 565.106 372.747 563.663 374.26 561.845Z" fill="white"/>
<path d="M148.95 795.772C148.981 793.789 149.178 792.083 149.375 790.377C148.965 790.171 148.554 789.965 148.143 789.759C146.603 790.82 145.063 791.882 143.429 793.009C144.184 794.751 144.566 796.423 145.543 797.604C146.161 798.352 147.665 798.368 148.771 798.712C148.886 797.825 149.002 796.937 148.95 795.772Z" fill="white"/>
<path d="M719.272 144.591C720.343 145.648 721.442 146.338 723.224 147.456C723.996 145.418 724.659 143.67 725.335 141.565C724.738 140.999 724.142 140.708 723.514 140.596C722.187 140.361 720.844 140.219 719.507 140.039C719.438 141.434 719.369 142.829 719.272 144.591Z" fill="white"/>
<path d="M442.351 533.075C442.674 530.951 443.005 528.797 443.479 525.725C443.06 525.336 441.796 524.162 441.048 523.467C440.156 525.101 439.291 526.381 438.741 527.785C438.243 529.058 438.088 530.465 437.782 531.813C439.118 532.031 440.453 532.249 442.105 532.745C442.421 533.023 442.36 533.044 442.351 533.075Z" fill="white"/>
<path d="M524.567 399.968C523.747 399.83 523.151 399.965 522.556 400.1C524.866 405.189 520.426 402.542 518.286 403.548C518.623 404.795 518.993 406.161 519.362 407.527C521.134 407.044 523.454 407.082 524.535 405.943C525.827 404.58 527.155 402.234 524.567 399.968Z" fill="white"/>
<path d="M6.64844 815.32C6.53943 813.875 6.1123 811.758 5.97937 811.776C4.05884 812.041 2.1781 812.592 0.322266 813.066C1.92786 818.95 2.82251 819.237 6.64844 815.32Z" fill="white"/>
<path d="M355.558 581.649C355.916 581.99 356.347 581.986 357.101 581.98C360.939 579.319 362.007 575.815 360.144 571.332C359.934 571.332 358.858 571.332 359.216 571.332C357.86 575.105 356.745 578.205 355.558 581.649Z" fill="white"/>
<path d="M27.0449 768.265C27.8552 766.236 28.5426 764.542 29.23 762.848C28.931 762.538 28.6322 762.229 28.3333 761.92C26.4132 763.796 24.423 765.611 22.6627 767.627C22.4453 767.876 23.5049 769.908 23.8826 769.881C24.9214 769.805 25.9121 769.073 27.0449 768.265Z" fill="white"/>
<path d="M585.979 271.021C587.211 270.482 588.105 269.928 589.125 269.08C587.718 267.827 585.741 265.772 584.755 266.17C583.312 266.753 582.579 269.094 580.823 271.792C583.383 271.374 584.512 271.19 585.979 271.021Z" fill="white"/>
<path d="M94.2835 736.958C93.5204 738.894 92.8455 740.476 92.1707 742.059C97.1713 740.924 99.1824 738.588 96.3217 733.668C95.5052 734.898 94.9385 735.752 94.2835 736.958Z" fill="white"/>
<path d="M136.631 800.101C138.11 798.72 139.425 797.077 140.818 795.336C139.306 793.087 139.306 793.087 134.269 796.196C135 797.407 135.733 798.623 136.631 800.101Z" fill="white"/>
<path d="M345.602 539.597C345.994 537.961 346.258 536.669 346.523 535.377C345.922 535.191 345.321 535.005 344.72 534.819C343.572 537.559 342.424 540.299 341.276 543.04C341.865 543.408 342.454 543.777 343.043 544.146C343.854 542.744 344.665 541.343 345.602 539.597Z" fill="white"/>
<path d="M336.818 636.046C337.777 635.511 338.376 634.934 339.137 634.087C337.245 631.068 334.787 630.109 330.445 632.303C332.954 633.847 334.706 634.926 336.818 636.046Z" fill="white"/>
<path d="M257.657 604.349C258.429 602.62 258.989 601.19 259.55 599.761C259.057 599.46 258.565 599.16 258.073 598.859C256.338 601.091 254.604 603.323 252.87 605.555C253.361 606.051 253.852 606.547 254.343 607.043C255.377 606.245 256.411 605.446 257.657 604.349Z" fill="white"/>
<path d="M0.948486 788.356C0.404053 788.975 -0.084229 789.49 0.012207 789.846C0.482055 791.579 1.10803 793.269 1.67871 794.975C2.48816 794.584 3.29785 794.194 4.10742 793.803C3.16296 791.928 2.21863 790.053 0.948486 788.356Z" fill="white"/>
<path d="M261.853 610.074C262.055 607.971 262.055 606.198 262.055 604.425C261.596 604.256 261.138 604.086 260.679 603.917C259.782 606.282 258.885 608.648 257.987 611.014C259.208 610.81 260.43 610.607 261.853 610.074Z" fill="white"/>
<path d="M462.499 475.3C462.263 477.295 461.967 478.933 461.671 480.57C462.299 480.759 462.926 480.948 463.553 481.137C464.358 478.635 465.162 476.133 465.966 473.631C464.79 474.068 463.615 474.505 462.499 475.3Z" fill="white"/>
<path d="M205.341 711.667C205.568 712.916 205.793 713.757 206.287 715.608C207.423 711.641 208.248 708.762 209.284 705.143C204.431 705.316 205.93 709.013 205.341 711.667Z" fill="white"/>
<path d="M117.146 778.606C117.639 779.937 118.228 780.917 118.817 781.898C119.571 780.958 121 779.96 120.925 779.091C120.806 777.697 119.692 776.389 118.308 773.708C117.713 776.248 117.478 777.252 117.146 778.606Z" fill="white"/>
<path d="M541.847 351.592C544.995 352.115 545.808 350.473 545.146 348.22C544.889 347.349 543.347 346.857 542.391 346.193C542.098 347.928 541.805 349.664 541.847 351.592Z" fill="white"/>
<path d="M495.413 450.634C497.081 452.211 498.855 453.074 500.315 450.036C499.927 448.255 499.369 446.736 498.561 444.536C497.387 446.809 496.48 448.564 495.413 450.634Z" fill="white"/>
<path d="M701.153 125.586C702.895 124.992 704.546 124.04 706.271 122.768C700.904 121.623 700.765 121.697 701.153 125.586Z" fill="white"/>
<path d="M734.351 136.635C735.047 137.167 735.771 137.395 736.495 137.624C736.271 136.816 736.047 136.008 735.575 135.053C735.011 135.381 734.695 135.856 734.351 136.635Z" fill="white"/>
<path d="M225.585 710.72C226.481 710.487 227.44 709.955 228.326 709.187C227.385 709.441 226.516 709.932 225.585 710.72Z" fill="white"/>
<path d="M714.796 135.969C715.049 136.238 715.606 136.567 716.425 136.88C716.158 136.586 715.628 136.307 714.796 135.969Z" fill="white"/>
<path d="M728.643 127.146C728.576 127.689 728.825 128.158 729.25 128.828C729.27 128.376 729.115 127.723 728.643 127.146Z" fill="white"/>
<path d="M719.664 122.264C719.619 122.952 719.892 123.687 720.303 124.683C720.287 124.066 720.134 123.189 719.664 122.264Z" fill="white"/>
<path d="M716.485 120.667C716.845 121.207 717.37 121.494 718.184 121.865C717.865 121.438 717.258 120.925 716.485 120.667Z" fill="white"/>
<path d="M720.342 125.477C720.085 125.94 719.836 126.737 719.59 127.855C719.846 127.387 720.097 126.599 720.342 125.477Z" fill="white"/>
<path d="M544.41 403.777C544.656 403.538 544.822 403.119 544.988 402.701C544.77 402.773 544.552 402.845 544.28 403.069C544.226 403.221 544.332 403.598 544.41 403.777Z" fill="white"/>
<path d="M709.461 119.705C710.069 119.978 710.852 119.983 712.025 119.98C711.489 119.794 710.562 119.616 709.461 119.705Z" fill="white"/>
<path d="M719.376 128.559C718.692 128.405 717.834 128.559 716.696 128.883C717.345 128.99 718.273 128.929 719.376 128.559Z" fill="white"/>
<path d="M714.777 146.019C715.238 146.055 716.059 146.149 717.105 146.094C716.599 145.989 715.869 146.033 714.777 146.019Z" fill="white"/>
<path d="M717.229 140.371C716.917 140.544 716.705 141.052 716.419 141.828C716.673 141.632 717.001 141.17 717.229 140.371Z" fill="white"/>
<path d="M540.25 402.618C540.536 402.427 540.825 401.893 541.171 401.058C540.903 401.264 540.578 401.77 540.25 402.618Z" fill="white"/>
<path d="M737.379 130.73C737.681 131.097 738.092 131.19 738.871 131.116C738.656 130.785 738.072 130.62 737.379 130.73Z" fill="white"/>
<path d="M497.399 457.057C495.861 460.385 499.567 460.971 500.514 463.338C503.424 460.79 506.304 457.903 509.185 455.017C508.979 454.581 508.773 454.144 508.567 453.708C506.261 454.459 503.955 455.21 501.343 456.127C501.036 456.292 500.862 456.293 500.862 456.293C500.312 456.489 499.761 456.685 498.532 456.932C497.855 456.984 497.376 457.098 497.376 457.098C497.376 457.098 497.376 457.038 497.399 457.057Z" fill="white"/>
<path d="M500.866 456.26C500.863 456.293 501.036 456.292 501.008 456.245C500.979 456.199 500.87 456.227 500.866 456.26Z" fill="white"/>
<path d="M497.474 457.009C497.376 457.098 497.855 456.984 498.088 456.907C498.057 456.745 497.806 456.776 497.474 457.009Z" fill="white"/>
<path d="M225.658 719.973C220.05 723.849 214.758 727.624 209.366 731.248C207.96 732.192 206.24 732.668 204.57 733.399C203.787 738.094 203.177 742.475 196.394 743.274C194.578 743.488 191.818 747.781 188.882 749.585C188.668 749.716 189.401 751.979 190.135 752.9C190.936 753.906 192.25 754.504 194.33 755.984C195.267 754.723 196.26 752.754 197.822 751.49C199.012 750.528 200.987 750.609 202.505 749.971C209.722 746.936 216.083 742.996 220.955 736.432C223.533 732.959 228.044 730.921 231.977 728.08C232.272 727.923 232.29 727.967 232.34 727.615C233.694 726.473 234.999 725.685 236.303 724.897C238.564 722.632 239.86 720.241 239.632 716.693C239.484 714.398 241.217 711.983 242.619 708.267C240.347 710.279 239.112 711.372 237.46 712.835C236.93 711.42 236.532 710.356 236.374 709.933C234.448 710.799 232.501 711.674 230.405 713.101C229.301 714.798 228.345 715.945 227.388 717.091C226.905 717.999 226.421 718.907 225.658 719.973Z" fill="white"/>
<path d="M280.642 673.67C279.416 677.1 277.105 677.357 273.607 674.198C265.651 682.258 257.679 690.333 250.068 698.042C247.744 701.521 245.633 704.681 243.271 708.215C248.913 708.169 265.714 693.743 267.172 688.151C270.863 689.721 272.762 688.272 274.645 684.765C275.533 683.112 275.997 679.218 280.361 679.94C281.721 680.165 283.721 676.519 285.696 674.351C286.071 674.562 287.006 675.09 287.998 675.65C288.605 672.659 288.87 669.778 289.815 667.141C290.783 664.441 291.946 660.985 296.17 664.756C296.17 662.379 295.866 660.553 296.249 658.885C296.699 656.922 305.575 652.289 307.151 653.39C308.334 654.217 308.501 656.5 308.027 658.591C307.313 657.831 306.598 657.071 305.426 655.824C303.129 658.921 301.003 661.788 298.877 664.655C299.301 665.093 299.725 665.532 300.149 665.97C302.648 664.635 305.049 663.049 307.669 662.025C311.641 660.472 309.797 656.823 310.962 654.406C312.594 651.021 312.131 645.389 318.24 645.211C318.468 645.205 318.599 641.916 318.838 639.534C314.162 642.997 313.191 642.696 311.994 638.108C310.649 639.904 309.447 641.704 308.039 643.323C307.035 644.477 305.752 645.389 304.004 646.929C304.004 647.328 304.262 649.118 303.896 650.77C303.713 651.595 302.409 652.737 301.581 652.764C294.923 652.977 293.613 654.398 292.577 660.495C292.238 662.491 289.966 664.931 287.996 665.728C282.717 667.863 282.61 667.551 283.104 672.032C283.13 672.273 282.433 672.595 281.558 673.083C280.91 673.415 280.776 673.543 280.642 673.67Z" fill="white"/>
<path d="M331.207 613.635C337.381 609.161 337.381 609.161 336.772 605.255C329.543 605.904 329.543 605.904 331.207 613.635Z" fill="white"/>
<path d="M298.215 643.773C296.89 643.44 294.876 642.954 294.366 643.62C293.256 645.069 292.914 647.106 292.259 648.902C292.632 649.199 293.005 649.496 293.378 649.793C294.988 647.91 296.598 646.026 298.215 643.773Z" fill="white"/>
<path d="M328.399 640.072C327.433 640.579 326.448 641.06 325.463 641.541C326.052 642.345 326.56 643.229 327.251 643.933C328.145 644.842 329.185 645.606 330.92 647.075C329.919 644.59 329.141 642.658 328.352 640.36C328.341 639.995 328.381 640.046 328.399 640.072Z" fill="white"/>
<path d="M236.235 725.247C234.998 725.685 233.694 726.473 232.324 727.6C233.561 727.158 234.865 726.378 236.235 725.247Z" fill="white"/>
<path d="M227.421 716.75C228.345 715.945 229.301 714.798 230.219 713.32C229.272 714.128 228.362 715.269 227.421 716.75Z" fill="white"/>
<path d="M281.241 673.093C280.599 672.376 279.759 671.855 278.919 671.334C278.654 672.038 278.389 672.742 278.124 673.446C278.817 673.422 279.51 673.399 280.423 673.523C280.776 673.542 280.91 673.415 281.241 673.093Z" fill="white"/>
<path d="M359.383 597.022C359.715 596.197 360.076 595.388 360.437 594.579C360.17 594.463 359.904 594.346 359.637 594.229C359.416 595.019 359.194 595.809 359.222 596.834C359.472 597.069 359.412 597.039 359.383 597.022Z" fill="white"/>
<path d="M152.284 871.951C154.093 872.418 155.919 872.906 157.745 873.395C154.6 869.421 155.943 866.918 158.846 864.426C160.489 863.017 161.75 861.154 163.431 859.804C164.866 858.652 167.006 856.846 168.225 857.235C172.199 858.505 173.004 856.386 173.659 853.463C171.941 852.938 170.294 852.435 168.636 851.928C167.422 855.859 157.387 853.399 161.255 861.628C156.445 860.729 152.207 864.726 152.844 869.057C152.953 869.792 152.677 870.583 152.457 871.681C152.336 872.014 152.301 871.972 152.284 871.951Z" fill="white"/>
<path d="M138.304 816.647C138.885 816.594 139.273 816.376 139.662 816.157C139.145 816.266 138.628 816.374 138.304 816.647Z" fill="white"/>
</svg>
