<svg width="1551" height="876" viewBox="0 0 1551 876" fill="none" xmlns="http://www.w3.org/2000/svg">
<path d="M0.000244141 589C0.000244141 533.312 0.000147969 477.625 0.362793 421.562C11.578 422.543 22.3126 425.916 33.4039 422.07C36.4097 421.028 39.9619 421.633 43.2466 421.311C51.2985 420.521 59.4141 420.051 67.3652 418.659C74.6348 417.386 81.7106 415.026 88.9028 413.272C89.967 413.012 91.2005 413.47 92.3582 413.568C99.3096 414.156 105.71 413.308 111.768 409.052C115.638 406.334 120.564 403.77 125.089 403.639C132.764 403.418 138.949 399.738 145.686 397.344C152.221 395.022 158.45 391.782 165.057 389.736C174.612 386.776 183.533 382.762 191.612 376.862C192.528 376.193 193.628 375.435 194.69 375.357C203.148 374.735 208.893 368.923 215.477 364.712C220.85 361.275 226.242 357.87 231.629 354.457C231.764 354.371 231.956 354.379 232.104 354.309C234.433 353.204 236.7 351.944 239.094 351.01C246.763 348.021 248.373 337.782 257.08 336.045C257.422 335.976 257.554 335.162 257.92 334.862C263.288 330.458 268.53 325.879 274.126 321.785C277.116 319.597 281.419 318.936 283.91 316.392C288.837 311.359 292.765 305.364 297.423 300.044C299.22 297.992 302.198 296.993 304.074 294.987C307.674 291.138 311.34 287.207 314.117 282.77C317.714 277.023 326.151 275.113 326.496 266.902C326.512 266.518 327.121 266.163 327.446 265.788C331.72 260.858 337.526 256.567 339.915 250.848C343.752 241.665 355.344 238.165 356.034 227.199C356.049 226.95 356.55 226.767 356.699 226.486C358.835 222.477 360.937 218.449 363.074 214.441C364.6 211.58 365.707 208.326 367.819 205.985C371.479 201.927 374.236 197.735 374.95 192.157C375.243 189.867 376.771 187.732 377.758 185.536C381.2 177.878 384.634 170.216 388.104 162.572C391.146 155.873 394.251 149.203 397.28 142.498C397.725 141.513 397.957 140.419 398.197 139.355C399.08 135.441 399.789 131.481 400.828 127.61C401.68 124.436 403.29 121.434 403.894 118.229C405.318 110.667 406.317 103.026 407.569 95.4301C407.694 94.6706 408.505 94.049 408.779 93.285C409.996 89.8923 411.944 86.5142 412.129 83.0509C412.497 76.1321 410.413 69.082 413.933 62.3621C414.632 61.0272 414.234 59.1269 414.381 57.4909C414.513 56.0335 414.151 54.0523 414.956 53.218C418.416 49.6312 417.288 45.9507 415.834 42.1198C414.291 38.0523 413.572 34.1652 417.085 30.5127C417.873 29.6942 417.91 27.7865 417.724 26.4598C416.477 17.5467 415.036 8.65314 419 0C473.354 0 527.709 0 582.531 0.428838C582.947 4.17891 582.875 7.49998 582.846 10.8214C582.707 26.4071 582.948 42.0083 582.299 57.5724C581.95 65.9437 580.131 74.2591 578.884 82.5862C577.338 92.9156 575.735 103.237 574.075 113.548C573.631 116.309 572.765 119.002 572.313 121.762C571.708 125.458 571.662 129.275 570.759 132.885C569.16 139.276 566.896 145.5 565.279 151.886C563.357 159.481 562.361 167.346 559.985 174.781C557.08 183.871 553.016 192.584 549.714 201.556C545.09 214.119 540.693 226.766 536.236 239.391C535.574 241.267 535.11 243.214 534.564 245.131C533.051 250.452 531.524 255.744 526.781 259.322C526.053 259.871 525.587 260.849 525.166 261.709C520.67 270.904 516.63 280.353 511.624 289.259C506.063 299.153 499.508 308.483 493.615 318.198C488.918 325.942 484.895 334.109 479.948 341.681C476.438 347.053 471.818 351.69 467.83 356.762C465.43 359.814 463.255 363.046 461.05 366.246C459.782 368.087 458.822 370.16 457.425 371.887C455.562 374.187 453.423 376.265 451.376 378.413C448.879 381.033 446.257 383.542 443.873 386.259C442.14 388.235 440.694 390.465 439.14 392.595C437.691 394.581 436.514 396.833 434.794 398.541C423.723 409.539 412.123 420.037 401.535 431.475C394.803 438.748 387.847 445.71 380.197 451.89C371.578 458.853 362.306 465.002 353.509 471.754C351.082 473.616 349.749 477.052 347.203 478.58C338.738 483.657 329.829 487.999 322.595 494.936C321.172 496.3 319.588 497.605 317.858 498.517C311.081 502.091 304.099 505.29 297.41 509.016C288.26 514.114 279.414 519.762 270.232 524.799C263.718 528.372 256.838 531.273 250.171 534.573C245.473 536.898 240.997 539.72 236.178 541.738C226.279 545.881 216.212 549.62 206.224 553.552C201.154 555.548 196.213 557.941 191.027 559.552C181.382 562.549 171.671 565.394 161.86 567.778C144.391 572.023 126.863 576.048 109.286 579.82C101.269 581.541 93.1 582.635 84.9563 583.667C70.3921 585.514 55.8215 587.411 41.2004 588.669C33.0729 589.368 24.8377 588.801 16.6512 588.838C11.1008 588.862 5.55059 588.944 0.000244141 589Z" fill="white"/>
<path d="M0.000244141 589.469C5.55059 588.944 11.1008 588.862 16.6512 588.838C24.8377 588.801 33.0729 589.368 41.2004 588.669C55.8215 587.411 70.3921 585.514 84.9563 583.667C93.1 582.635 101.269 581.541 109.286 579.82C126.863 576.048 144.391 572.023 161.86 567.778C171.671 565.394 181.382 562.549 191.027 559.552C196.213 557.941 201.154 555.548 206.224 553.552C216.212 549.62 226.279 545.881 236.178 541.738C240.997 539.72 245.473 536.898 250.171 534.573C256.838 531.273 263.718 528.372 270.232 524.799C279.414 519.762 288.26 514.114 297.41 509.016C304.099 505.29 311.081 502.091 317.858 498.517C319.588 497.605 321.172 496.3 322.595 494.936C329.829 487.999 338.738 483.657 347.203 478.58C349.749 477.052 351.082 473.616 353.509 471.754C362.306 465.002 371.578 458.853 380.197 451.89C387.847 445.71 394.803 438.748 401.535 431.475C412.123 420.037 423.723 409.539 434.794 398.541C436.514 396.833 437.691 394.581 439.14 392.595C440.694 390.465 442.14 388.235 443.873 386.259C446.257 383.542 448.879 381.033 451.376 378.413C453.423 376.265 455.562 374.187 457.425 371.887C458.822 370.16 459.782 368.087 461.05 366.246C463.255 363.046 465.43 359.814 467.83 356.762C471.818 351.69 476.438 347.053 479.948 341.681C484.895 334.109 488.918 325.942 493.615 318.198C499.508 308.483 506.063 299.153 511.624 289.259C516.63 280.353 520.67 270.904 525.166 261.709C525.587 260.849 526.053 259.871 526.781 259.322C531.524 255.744 533.051 250.452 534.564 245.131C535.11 243.214 535.574 241.267 536.236 239.391C540.693 226.766 545.09 214.119 549.714 201.556C553.016 192.584 557.08 183.871 559.985 174.781C562.361 167.346 563.357 159.481 565.279 151.886C566.896 145.5 569.16 139.276 570.759 132.885C571.662 129.275 571.708 125.458 572.313 121.762C572.765 119.002 573.631 116.309 574.075 113.548C575.735 103.237 577.338 92.9156 578.884 82.5862C580.131 74.2591 581.95 65.9437 582.299 57.5724C582.948 42.0083 582.707 26.4071 582.846 10.8214C582.875 7.49998 582.947 4.17891 583 0.428838C621.021 -2.98023e-08 659.042 -2.98023e-08 697.637 0.34544C699.36 7.07034 702.226 13.2873 699.863 19.9997C699.505 21.0147 699.871 22.2654 699.786 23.3984C699.526 26.8809 699.21 30.3592 698.916 33.8391C698.694 36.4568 698.413 39.0714 698.275 41.6936C698.188 43.3285 698.409 44.9789 698.335 46.6154C698.018 53.6852 697.63 60.7519 697.294 67.8209C697.078 72.3579 697.073 76.9116 696.677 81.4319C696.121 87.7831 695.49 94.1409 694.522 100.439C693.473 107.267 691.634 113.986 690.818 120.833C690.031 127.439 690.552 134.206 689.693 140.796C688.649 148.795 684.225 155.792 682.433 163.855C680.686 171.722 680.965 179.974 677.607 187.844C672.98 198.692 671.002 210.646 667.514 222.012C664.97 230.304 661.598 238.352 658.797 246.549C654.836 258.139 652.137 270.361 644.975 281.046C639.469 289.26 636.709 299.294 632.552 308.439C628.652 317.017 624.622 325.541 620.417 333.973C619.417 335.979 616.552 337.343 616.172 339.316C614.903 345.898 611.867 351.107 606.771 355.394C605.687 356.306 605.753 358.475 605.006 359.918C602.994 363.805 601.34 368.058 598.527 371.279C596.912 373.129 595.85 374.273 595.655 376.895C595.469 379.399 594.045 382.105 592.432 384.141C589.835 387.42 584.241 390.17 584.175 393.235C584.022 400.328 579.166 404.491 576.138 409.373C570.853 417.894 563.683 425.241 557.366 433.131C555.712 435.196 554.309 437.46 552.76 439.611C549.086 444.712 541.349 446.672 541.217 454.533C541.213 454.797 540.865 455.091 540.623 455.31C536.763 458.79 532.882 462.246 529.037 465.743C527.934 466.747 526.806 467.765 525.904 468.94C521.539 474.629 517.44 480.534 512.849 486.029C510.555 488.775 506.594 490.325 504.844 493.28C502.408 497.391 500.579 501.302 495.123 502.01C493.859 502.174 492.287 504.078 491.816 505.5C490.028 510.887 486.039 514.151 481.758 517.401C478.467 519.898 476.017 523.828 472.437 525.539C467.417 527.938 464.294 531.651 461.44 536.007C460.735 537.084 459.689 537.957 458.723 538.841C454.345 542.848 447.623 544.122 445.362 550.737C444.923 552.022 442.499 552.99 440.816 553.424C434.121 555.151 429.718 560.135 424.794 564.35C419.781 568.64 415.195 573.466 409.953 577.439C406.243 580.251 401.611 581.812 397.655 584.343C394.481 586.373 391.928 589.399 388.703 591.318C382.051 595.278 375.126 598.777 368.337 602.508C367.175 603.146 365.875 603.791 365.073 604.784C361.791 608.847 358.636 612.936 352.478 611.98C351.965 611.901 351.312 612.556 350.76 612.925C343.666 617.663 336.822 622.848 329.396 626.991C325.027 629.428 319.793 630.443 314.84 631.66C311.497 632.482 308.994 633.737 307.825 637.202C307.532 638.071 306.004 639.356 305.471 639.177C302.094 638.043 300.226 639.202 298.699 642.267C298.266 643.137 296.151 643.167 294.809 643.586C289.588 645.217 284.211 646.473 279.187 648.575C272.529 651.36 266.126 654.763 259.654 657.983C254.164 660.713 246.739 658.729 242.623 665.024C242.297 665.523 240.159 664.588 238.961 664.822C237.048 665.196 234.236 665.447 233.533 666.711C231.196 670.915 227.901 671.415 223.79 670.71C222.679 670.519 221.426 670.479 220.363 670.792C212.955 672.973 205.577 675.254 198.199 677.534C197.252 677.827 196.178 678.092 195.472 678.718C186.805 686.407 175.361 684.933 165.252 687.797C161.555 688.845 157.411 688.22 153.508 688.677C151.567 688.905 149.737 689.959 147.809 690.454C144.103 691.405 140.363 692.222 136.638 693.097C134.481 693.604 132.306 694.045 130.173 694.637C125.943 695.811 121.399 698.718 117.592 697.94C110.255 696.442 103.924 699.517 97.1497 700.231C85.9644 701.411 74.9011 703.788 63.7096 704.854C54.5627 705.725 45.2947 705.243 36.0984 705.714C31.9441 705.927 27.8425 707.494 23.7012 707.569C15.8069 707.712 7.90123 707.225 0.000244141 707C0.000244141 667.979 0.000244141 628.958 0.000244141 589.469Z" fill="white"/>
<path d="M418.531 0C415.036 8.65314 416.477 17.5467 417.724 26.4598C417.91 27.7865 417.873 29.6942 417.085 30.5127C413.572 34.1652 414.291 38.0523 415.834 42.1198C417.288 45.9507 418.416 49.6312 414.956 53.218C414.151 54.0523 414.513 56.0335 414.381 57.4909C414.234 59.1269 414.632 61.0272 413.933 62.3621C410.413 69.082 412.497 76.1321 412.129 83.0509C411.944 86.5142 409.996 89.8923 408.779 93.285C408.505 94.049 407.694 94.6706 407.569 95.4301C406.317 103.026 405.318 110.667 403.894 118.229C403.29 121.434 401.68 124.436 400.828 127.61C399.789 131.481 399.08 135.441 398.197 139.355C397.957 140.419 397.725 141.513 397.28 142.498C394.251 149.203 391.146 155.873 388.104 162.572C384.634 170.216 381.2 177.878 377.758 185.536C376.771 187.732 375.243 189.867 374.95 192.157C374.236 197.735 371.479 201.927 367.819 205.985C365.707 208.326 364.6 211.58 363.074 214.441C360.937 218.449 358.835 222.477 356.699 226.486C356.55 226.767 356.049 226.95 356.034 227.199C355.344 238.165 343.752 241.665 339.915 250.848C337.526 256.567 331.72 260.858 327.446 265.788C327.121 266.163 326.512 266.518 326.496 266.902C326.151 275.113 317.714 277.023 314.117 282.77C311.34 287.207 307.674 291.138 304.074 294.987C302.198 296.993 299.22 297.992 297.423 300.044C292.765 305.364 288.837 311.359 283.91 316.392C281.419 318.936 277.116 319.597 274.126 321.785C268.53 325.879 263.288 330.458 257.92 334.862C257.554 335.162 257.422 335.976 257.08 336.045C248.373 337.782 246.763 348.021 239.094 351.01C236.7 351.944 234.433 353.204 232.104 354.309C231.956 354.379 231.764 354.371 231.629 354.457C226.242 357.87 220.85 361.275 215.477 364.712C208.893 368.923 203.148 374.735 194.69 375.357C193.628 375.435 192.528 376.193 191.612 376.862C183.533 382.762 174.612 386.776 165.057 389.736C158.45 391.782 152.221 395.022 145.686 397.344C138.949 399.738 132.764 403.418 125.089 403.639C120.564 403.77 115.638 406.334 111.768 409.052C105.71 413.308 99.3096 414.156 92.3582 413.568C91.2005 413.47 89.967 413.012 88.9028 413.272C81.7106 415.026 74.6348 417.386 67.3652 418.659C59.4141 420.051 51.2985 420.521 43.2466 421.311C39.9619 421.633 36.4097 421.028 33.4039 422.07C22.3126 425.916 11.578 422.543 0.362793 421.093C0.000147969 362.979 0.000207663 304.958 0.443848 246.469C8.23125 245.568 15.5787 244.728 22.918 244.795C35.819 244.912 47.8675 240.978 60.1975 238.144C64.4476 237.167 68.6671 237.092 71.4287 233.101C71.7532 232.633 72.5609 232.408 73.1897 232.254C77.6337 231.169 82.0386 229.703 86.552 229.166C96.4799 227.985 103.877 221.518 112.417 217.454C119.202 214.225 126.667 212.2 132.033 206.437C132.131 206.332 132.348 206.279 132.502 206.293C140.629 207.013 144.082 200.07 148.893 195.799C156.724 188.847 163.875 181.123 171.248 173.661C175.763 169.092 180.433 164.631 184.511 159.691C187.355 156.246 189.151 151.958 191.72 148.258C193.589 145.566 194.531 142.189 198.843 141.294C200.846 140.879 202.647 137.429 203.713 134.993C205.809 130.204 207.238 125.127 209.174 120.261C209.493 119.458 210.968 119.085 211.945 118.584C212.783 118.155 214.173 118.056 214.462 117.421C217.767 110.159 221.406 102.992 223.979 95.4663C228.102 83.405 228.079 70.178 234.767 58.7035C236.855 55.121 236.597 50.1645 237.36 45.8277C237.44 45.3781 237.297 44.763 237.025 44.3968C232.189 37.8829 235.553 31.0306 237.016 24.7587C238.946 16.4878 239.016 8.30227 239 0C298.688 0 358.375 0 418.531 0Z" fill="white"/>
<path d="M0.000244141 707.469C7.90123 707.225 15.8069 707.712 23.7012 707.569C27.8425 707.494 31.9441 705.927 36.0984 705.714C45.2947 705.243 54.5627 705.725 63.7096 704.854C74.9011 703.788 85.9644 701.411 97.1497 700.231C103.924 699.517 110.255 696.442 117.592 697.94C121.399 698.718 125.943 695.811 130.173 694.637C132.306 694.045 134.481 693.604 136.638 693.097C140.363 692.222 144.103 691.405 147.809 690.454C149.737 689.959 151.567 688.905 153.508 688.677C157.411 688.22 161.555 688.845 165.252 687.797C175.361 684.933 186.805 686.407 195.472 678.718C196.178 678.092 197.252 677.827 198.199 677.534C205.577 675.254 212.955 672.973 220.363 670.792C221.426 670.479 222.679 670.519 223.79 670.71C227.901 671.415 231.196 670.915 233.533 666.711C234.236 665.447 237.048 665.196 238.961 664.822C240.159 664.588 242.297 665.523 242.623 665.024C246.739 658.729 254.164 660.713 259.654 657.983C266.126 654.763 272.529 651.36 279.187 648.575C284.211 646.473 289.588 645.217 294.809 643.586C296.151 643.167 298.266 643.137 298.699 642.267C300.226 639.202 302.094 638.043 305.471 639.177C306.004 639.356 307.532 638.071 307.825 637.202C308.994 633.737 311.497 632.482 314.84 631.66C319.793 630.443 325.027 629.428 329.396 626.991C336.822 622.848 343.666 617.663 350.76 612.925C351.312 612.556 351.965 611.901 352.478 611.98C358.636 612.936 361.791 608.847 365.073 604.784C365.875 603.791 367.175 603.146 368.337 602.508C375.126 598.777 382.051 595.278 388.703 591.318C391.928 589.399 394.481 586.373 397.655 584.343C401.611 581.812 406.243 580.251 409.953 577.439C415.195 573.466 419.781 568.64 424.794 564.35C429.718 560.135 434.121 555.151 440.816 553.424C442.499 552.99 444.923 552.022 445.362 550.737C447.623 544.122 454.345 542.848 458.723 538.841C459.689 537.957 460.735 537.084 461.44 536.007C464.294 531.651 467.417 527.938 472.437 525.539C476.017 523.828 478.467 519.898 481.758 517.401C486.039 514.151 490.028 510.887 491.816 505.5C492.287 504.078 493.859 502.174 495.123 502.01C500.579 501.302 502.408 497.391 504.844 493.28C506.594 490.325 510.555 488.775 512.849 486.029C517.44 480.534 521.539 474.629 525.904 468.94C526.806 467.765 527.934 466.747 529.037 465.743C532.882 462.246 536.763 458.79 540.623 455.31C540.865 455.091 541.213 454.797 541.217 454.533C541.349 446.672 549.086 444.712 552.76 439.611C554.309 437.46 555.712 435.196 557.366 433.131C563.683 425.241 570.853 417.894 576.138 409.373C579.166 404.491 584.022 400.328 584.175 393.235C584.241 390.17 589.835 387.42 592.432 384.141C594.045 382.105 595.469 379.399 595.655 376.895C595.85 374.273 596.912 373.129 598.527 371.279C601.34 368.058 602.994 363.805 605.006 359.918C605.753 358.475 605.687 356.306 606.771 355.394C611.867 351.107 614.903 345.898 616.172 339.316C616.552 337.343 619.417 335.979 620.417 333.973C624.622 325.541 628.652 317.017 632.552 308.439C636.709 299.294 639.469 289.26 644.975 281.046C652.137 270.361 654.836 258.139 658.797 246.549C661.598 238.352 664.97 230.304 667.514 222.012C671.002 210.646 672.98 198.692 677.607 187.844C680.965 179.974 680.686 171.722 682.433 163.855C684.225 155.792 688.649 148.795 689.693 140.796C690.552 134.206 690.031 127.439 690.818 120.833C691.634 113.986 693.473 107.267 694.522 100.439C695.49 94.1409 696.121 87.7831 696.677 81.4319C697.073 76.9116 697.078 72.3579 697.294 67.8209C697.63 60.7519 698.018 53.6852 698.335 46.6154C698.409 44.9789 698.188 43.3285 698.275 41.6936C698.413 39.0714 698.694 36.4568 698.916 33.8391C699.21 30.3592 699.526 26.8809 699.786 23.3984C699.871 22.2654 699.505 21.0147 699.863 19.9997C702.226 13.2873 699.36 7.07034 698.106 0.34544C706.688 2.98023e-08 715.375 0 724.532 0C723.048 4.07746 723.58 6.2864 727.997 9.27784C731.804 11.8562 734.787 17.5634 735.492 22.2819C736.218 27.1455 739.023 28.5807 741.964 31.0712C743.802 32.6276 745.019 35.4601 745.53 37.9243C746.524 42.7155 749.528 45.8054 752.831 48.9765C754.012 50.1109 754.254 52.2237 755.256 54.7122C761.919 55.6036 765.607 61.9043 769.235 68.7318C770.412 68.0851 771.596 67.4347 773.421 66.432C774.218 69.784 775.008 73.1076 775.923 76.9529C769.301 73.034 769.722 79.8244 767.246 82.9824C770.62 90.4339 770.365 97.3167 768.702 104.517C767.062 111.616 765.243 118.899 765.274 126.094C765.305 133.361 763.578 140.016 761.963 146.87C760.567 152.795 759.649 158.831 758.516 164.818C757.153 172.018 756.136 179.307 754.314 186.389C752.756 192.448 750.034 198.199 748.271 204.215C746.594 209.936 745.857 215.942 744.037 221.608C742.076 227.715 738.533 233.379 740.256 240.25C740.502 241.229 739.965 242.515 739.517 243.539C737.534 248.076 735.152 252.461 733.462 257.1C729.099 269.073 725.062 281.165 720.817 293.182C719.441 297.077 718.666 301.582 716.163 304.606C708.532 313.826 707.72 326.18 700.662 335.784C696.004 342.123 693.96 350.362 690.593 357.681C688.975 361.197 686.998 364.548 685.197 367.981C681.388 375.241 677.776 382.613 673.732 389.74C668.929 398.205 663.757 406.461 658.748 414.809C658.664 414.95 658.607 415.113 658.563 415.273C655.969 424.835 649.386 431.988 643.748 439.698C639.956 444.885 635.844 449.84 632.112 455.067C624.826 465.272 618.744 476.569 610.25 485.619C599.974 496.568 592.257 509.524 581.364 519.917C574.615 526.355 568.876 533.837 562.436 540.616C557.212 546.115 551.62 551.264 546.19 556.568C540.656 561.974 535.238 567.507 529.548 572.744C524.828 577.088 519.687 580.973 514.911 585.259C507.814 591.628 501.139 598.493 493.789 604.545C487.097 610.055 479.643 614.629 472.717 619.869C467.461 623.845 462.424 628.125 457.443 632.446C453.102 636.21 449.005 640.254 444.729 644.095C443.776 644.951 442.528 645.485 441.403 646.144C430.173 652.723 418.932 659.285 407.71 665.879C401.396 669.59 395.115 673.359 388.81 677.085C387.389 677.925 385.923 678.69 384.483 679.498C380.481 681.746 376.542 684.118 372.463 686.217C368.075 688.475 362.958 689.73 359.205 692.731C347.066 702.436 331.998 706.148 318.674 713.382C313.515 716.183 307.615 717.595 302.122 719.811C293.868 723.14 285.726 726.751 277.438 729.99C272.217 732.03 266.755 733.446 261.513 735.437C255.055 737.891 248.719 740.665 242.311 743.253C241.908 743.416 241.317 743.044 240.85 743.129C237.992 743.65 235.039 743.92 232.316 744.853C225.918 747.045 219.668 749.666 213.286 751.91C209.864 753.114 206.301 754.675 202.789 754.71C195.728 754.779 189.126 755.682 183.124 759.698C182.149 760.35 180.576 760.08 179.291 760.305C176.224 760.843 173.169 761.443 170.101 761.977C167.395 762.449 164.681 762.874 161.968 763.302C160.678 763.505 159.352 763.552 158.092 763.868C153.49 765.021 148.96 766.545 144.305 767.392C138.206 768.501 131.829 768.427 125.905 770.068C115.804 772.865 105.493 773.375 95.2032 774.397C89.9209 774.922 84.6393 775.461 79.3657 776.066C68.7271 777.287 58.118 778.871 47.4493 779.684C41.6092 780.13 35.6621 778.983 29.7827 779.17C25.6101 779.302 21.4788 780.524 17.3102 781.129C16.0712 781.309 14.6298 781.388 13.5192 780.933C8.96171 779.065 4.49726 778.85 0.000244141 781C0.000244141 756.646 0.000244141 732.292 0.000244141 707.469Z" fill="white"/>
<path d="M904.087 160.846C905.026 161.813 906.953 163.155 906.751 163.688C904.628 169.281 906.742 173.818 909.325 177.549C911.534 177.826 913.843 177.475 914.476 178.344C915.456 179.689 915.42 181.857 915.58 183.696C915.827 186.545 916.07 189.418 915.965 192.268C915.792 196.931 919.384 196.786 922.287 197.46C926.401 198.415 926.541 202.236 927.93 205.115C928.594 206.491 928.79 208.092 929.221 209.677C930.655 209.128 931.699 208.728 932.899 208.268C933.312 208.997 933.967 209.663 934.069 210.405C935.018 217.304 939.639 222.502 942.356 228.575C942.781 229.526 943.009 230.576 943.236 231.601C943.407 232.372 943.255 233.789 943.543 233.871C947.814 235.076 948.008 238.63 947.854 241.155C949.492 240.535 950.905 240.001 952.318 239.466C952.482 239.918 952.646 240.37 952.81 240.822C948.147 243.929 947.947 247.625 959.566 261.59C958.946 258.789 958.348 256.084 957.634 252.855C963.026 255.056 964.339 261 961.049 264.167C960.372 264.818 960.334 266.134 959.796 267.722C959.412 270.187 958.972 272.096 959.133 273.952C959.27 275.529 960.785 277.186 960.502 278.563C959.503 283.412 958.095 288.187 956.649 292.93C954.886 298.712 952.943 304.438 951.051 310.179C948.771 317.096 946.489 324.013 944.155 330.912C942.107 336.968 939.922 342.979 937.914 349.048C936.045 354.7 934.616 360.513 932.479 366.056C929.266 374.387 925.569 382.531 922.151 390.785C921.006 393.548 920.343 396.531 919.018 399.194C913.755 409.777 907.399 419.925 903.239 430.913C899.999 439.472 895.265 447.157 891.767 455.49C890.553 458.381 889.69 461.456 888.182 464.179C883.236 473.11 877.965 481.861 873.012 490.788C867.48 500.762 862.503 511.058 856.639 520.827C851.988 528.577 846.316 535.711 841.211 543.195C840.217 544.653 839.753 546.471 839.035 548.119C837.927 550.662 837.396 553.761 835.595 555.644C828.007 563.58 821.982 572.47 817.309 582.374C816.264 584.589 814.5 586.488 812.942 588.432C808.481 593.999 803.848 599.431 799.481 605.069C793.29 613.063 788.329 622.378 780.917 628.961C771.983 636.895 767.136 647.573 759.447 656.32C750.307 666.718 741.113 677.169 731.86 687.515C725.06 695.119 717.776 702.295 710.625 709.581C707.188 713.083 703.933 716.938 699.943 719.686C691.429 725.548 684.822 733.327 677.558 740.458C671.498 746.407 666.728 753.883 658.029 756.72C656.875 757.096 655.899 758.251 655.024 759.211C651.024 763.601 647.51 768.539 643.047 772.38C632.359 781.578 621.305 790.359 610.241 799.109C607.173 801.535 603.447 803.111 600.216 805.356C596.546 807.905 593.211 810.941 589.519 813.455C582.559 818.193 575.44 822.7 568.398 827.32C561.007 832.169 553.573 836.956 546.259 841.921C538.067 847.482 530.665 854.291 521.062 857.595C520.486 857.793 520.126 858.549 519.577 858.909C515.168 861.797 510.667 864.548 506.336 867.547C502.464 870.228 498.772 873.172 495 876C427.646 876 360.292 876 292.507 875.649C293.335 874.108 294.391 872.425 295.885 871.812C302.106 869.261 308.456 867.023 314.766 864.689C318.14 863.441 321.483 862.081 324.922 861.042C329.113 859.775 333.582 859.255 337.59 857.591C345.85 854.163 353.875 850.171 362.025 846.474C362.734 846.152 363.681 846.402 364.475 846.211C367.762 845.419 371.229 844.996 374.263 843.625C378.938 841.512 383.242 838.593 387.836 836.281C391.83 834.27 396.127 832.853 400.077 830.769C406.427 827.419 412.548 823.639 418.863 820.219C425.534 816.607 432.376 813.309 439.038 809.681C446.165 805.8 453.204 801.752 460.217 797.667C465.737 794.452 471.436 791.444 476.557 787.669C483.554 782.51 493.761 776.767 502.36 774.124C503.062 773.908 503.893 773.176 504.12 772.501C505.974 766.983 511.027 766.088 515.442 763.765C521.188 760.744 525.709 755.998 531.986 753.117C538.854 749.964 543.386 741.984 550.111 738.19C559.156 733.087 566.148 725.801 573.995 719.445C583.508 711.74 592.543 703.448 601.96 695.621C606.384 691.945 611.732 689.274 615.746 685.237C621.601 679.348 626.218 672.18 634.379 668.93C634.908 668.719 635.218 667.943 635.615 667.419C638.463 663.664 641.102 659.726 644.212 656.203C647.049 652.989 650.481 650.31 653.497 647.243C659.018 641.63 664.504 635.978 669.859 630.207C675.758 623.85 681.635 617.461 687.261 610.864C693.366 603.704 698.705 595.831 705.265 589.138C709.832 584.48 715.221 580.742 717.574 574.284C717.954 573.24 718.927 572.4 719.672 571.504C724.724 565.435 730.049 559.573 734.784 553.268C741.528 544.289 747.963 535.068 754.3 525.795C759.059 518.832 763.374 511.568 768.039 504.54C772.446 497.9 777.248 491.516 781.507 484.786C784.755 479.651 787.868 474.337 790.215 468.755C792.126 464.212 793.877 460.181 797.352 456.201C802.485 450.323 805.403 442.498 809.181 435.458C810.356 433.269 811.109 430.851 812.318 428.684C816.25 421.633 820.382 414.694 824.278 407.624C826.256 404.036 828.366 400.41 829.593 396.54C832.487 387.408 835.433 378.457 840.944 370.367C843.207 367.047 843.081 362.183 844.481 358.175C848.142 347.694 855.367 338.526 855.991 326.911C856.025 326.274 856.366 325.641 856.623 325.03C860.016 316.95 863.409 308.869 866.832 300.801C867.476 299.282 868.324 297.848 868.951 296.322C869.891 294.031 870.986 291.755 871.544 289.362C873.14 282.52 874.143 275.522 876.054 268.777C877.84 262.477 880.246 256.319 882.816 250.284C886.844 240.824 885.1 230.073 889.697 220.781C889.907 220.358 889.823 219.796 889.912 219.305C891.377 211.164 892.643 202.979 894.392 194.898C895.543 189.576 897.459 184.423 898.885 179.154C899.302 177.613 899.452 175.914 899.312 174.323C898.848 169.064 898.876 164.061 904.087 160.846Z" fill="white"/>
<path d="M903.922 160.516C898.876 164.061 898.848 169.064 899.312 174.323C899.452 175.914 899.302 177.613 898.885 179.154C897.459 184.423 895.543 189.576 894.392 194.898C892.643 202.979 891.377 211.164 889.912 219.305C889.823 219.796 889.907 220.358 889.697 220.781C885.1 230.073 886.844 240.824 882.816 250.284C880.246 256.319 877.84 262.477 876.054 268.777C874.143 275.522 873.14 282.52 871.544 289.362C870.986 291.755 869.891 294.031 868.951 296.322C868.324 297.848 867.476 299.282 866.832 300.801C863.409 308.869 860.016 316.95 856.623 325.03C856.366 325.641 856.025 326.274 855.991 326.911C855.367 338.526 848.142 347.694 844.481 358.175C843.081 362.183 843.207 367.047 840.944 370.367C835.433 378.457 832.487 387.408 829.593 396.54C828.366 400.41 826.256 404.036 824.278 407.624C820.382 414.694 816.25 421.633 812.318 428.684C811.109 430.851 810.356 433.269 809.181 435.458C805.403 442.498 802.485 450.323 797.352 456.201C793.877 460.181 792.126 464.212 790.215 468.755C787.868 474.337 784.755 479.651 781.507 484.786C777.248 491.516 772.446 497.9 768.039 504.54C763.374 511.568 759.059 518.832 754.3 525.795C747.963 535.068 741.528 544.289 734.784 553.268C730.049 559.573 724.724 565.435 719.672 571.504C718.927 572.4 717.954 573.24 717.574 574.284C715.221 580.742 709.832 584.48 705.265 589.138C698.705 595.831 693.366 603.704 687.261 610.864C681.635 617.461 675.758 623.85 669.859 630.207C664.504 635.978 659.018 641.63 653.497 647.243C650.481 650.31 647.049 652.989 644.212 656.203C641.102 659.726 638.463 663.664 635.615 667.419C635.218 667.943 634.908 668.719 634.379 668.93C626.218 672.18 621.601 679.348 615.746 685.237C611.732 689.274 606.384 691.945 601.96 695.621C592.543 703.448 583.508 711.74 573.995 719.445C566.148 725.801 559.156 733.087 550.111 738.19C543.386 741.984 538.854 749.964 531.986 753.117C525.709 755.998 521.188 760.744 515.442 763.765C511.027 766.088 505.974 766.983 504.12 772.501C503.893 773.176 503.062 773.908 502.36 774.124C493.761 776.767 483.554 782.51 476.557 787.669C471.436 791.444 465.737 794.452 460.217 797.667C453.204 801.752 446.165 805.8 439.038 809.681C432.376 813.309 425.534 816.607 418.863 820.219C412.548 823.639 406.427 827.419 400.077 830.769C396.127 832.853 391.83 834.27 387.836 836.281C383.242 838.593 378.938 841.512 374.263 843.625C371.229 844.996 367.762 845.419 364.475 846.211C363.681 846.402 362.734 846.152 362.025 846.474C353.875 850.171 345.85 854.163 337.59 857.591C333.582 859.255 329.113 859.775 324.922 861.042C321.483 862.081 318.14 863.441 314.766 864.689C308.456 867.023 302.106 869.261 295.885 871.812C294.391 872.425 293.335 874.108 292.039 875.649C194.667 876 97.3336 876 0.000244141 876C0.000244141 871.265 0.000160903 866.605 0.409546 861.52C5.05771 860.891 9.29738 860.705 13.5348 860.477C15.0241 860.396 16.5127 860.057 17.9934 860.103C26.1015 860.354 34.2055 860.834 42.3142 860.922C45.5966 860.957 48.8882 860.202 52.1744 859.797C54.1491 859.553 56.1147 859.172 58.0962 859.058C66.151 858.595 74.407 859.148 82.2075 857.51C88.7773 856.131 95.1911 857.695 102.034 855.593C113.326 852.125 125.628 851.932 137.511 850.406C146.893 849.201 155.826 844.664 165.705 846.814C167.216 847.143 169.11 845.795 170.806 845.166C172.358 844.59 173.834 843.745 175.426 843.353C181.643 841.819 187.913 840.496 194.125 838.943C199.377 837.629 204.505 835.659 209.82 834.808C214.69 834.029 219.739 834.388 224.706 834.162C225.309 834.135 225.974 833.696 226.467 833.278C232.386 828.275 239.449 826.481 246.934 825.375C250.788 824.806 254.448 822.994 258.227 821.844C261.941 820.713 265.675 819.639 269.436 818.678C271.342 818.191 273.471 818.361 275.25 817.629C283.149 814.377 290.872 810.686 298.824 807.577C306.684 804.504 314.772 802.02 322.698 799.108C325.604 798.041 328.271 796.333 331.155 795.189C336.795 792.95 342.66 791.225 348.158 788.694C355.084 785.505 361.769 781.781 368.499 778.177C375.033 774.68 382.998 773.929 388.233 767.898C388.577 767.501 389.497 767.408 390.117 767.475C396.473 768.165 400.49 763.201 405.515 760.849C411.257 758.16 416.293 753.99 421.742 750.636C424.528 748.921 427.513 747.518 430.466 746.092C433.561 744.596 436.955 743.6 439.811 741.754C446.391 737.502 452.6 732.677 459.188 728.438C467.05 723.378 475.489 719.161 483.058 713.716C492.266 707.091 500.258 698.768 510.911 694.18C511.79 693.802 512.496 692.973 513.213 692.282C522.553 683.283 532.212 674.771 544.487 669.801C545.936 669.214 546.749 667.122 547.93 665.792C551.296 661.999 554.505 658.038 558.148 654.53C561.082 651.705 564.603 649.5 567.782 646.92C571.889 643.586 575.915 640.153 579.976 636.763C581.247 635.703 582.606 634.732 583.774 633.569C592.288 625.091 600.766 616.576 609.251 608.07C613.571 603.739 618.978 600.034 621.944 594.917C626.443 587.156 634.965 583.684 639.494 575.653C642.246 570.775 648.598 567.344 651.529 561.631C656.394 552.15 666.461 546.682 670.738 536.716C671.122 535.821 672.519 535.331 673.489 534.723C678.035 531.873 682.315 528.871 683.268 522.968C683.87 519.233 685.294 516.008 689.301 514.519C690.219 514.178 690.818 512.828 691.439 511.862C698.188 501.364 704.89 490.836 711.651 480.345C715.561 474.277 719.42 468.169 723.548 462.25C727.475 456.621 728.855 449.6 734.695 444.858C738.345 441.893 740.4 436.836 742.815 432.519C744.701 429.147 745.701 425.265 747.693 421.972C751.292 416.026 757.609 411.508 756.795 403.325C756.694 402.301 758.141 401.15 758.801 400.018C762.796 393.174 767.115 386.49 770.66 379.419C774.714 371.336 778.182 362.951 781.7 354.611C784.515 347.937 787.027 341.136 789.665 334.388C791.561 329.541 791.377 323.794 796.044 320.121C796.834 319.499 796.991 318.069 797.431 317.008C800.291 310.111 803.189 303.229 805.974 296.302C806.622 294.692 807.001 292.947 807.286 291.228C807.597 289.348 807.06 287.087 807.921 285.579C812.48 277.595 814.277 268.724 816.652 260.033C818.082 254.801 819.25 249.492 820.851 244.314C823.48 235.813 826.744 227.491 829.026 218.903C831.009 211.442 832.111 203.736 833.385 196.102C833.964 192.632 833.862 189.05 834.377 185.565C834.631 183.847 835.738 182.274 836.198 180.565C838.442 172.234 842.172 163.912 842.345 155.524C842.52 147.039 845.607 139.427 846.465 131.28C846.591 130.081 848.655 129.086 849.822 127.997C851.614 129.227 853.406 130.457 856.173 132.357C855.738 129.333 855.41 127.059 855.018 124.337C857.53 122.899 857.768 113.892 853.882 112.2C850.09 110.549 846.988 109.027 846.492 104.453C846.439 103.972 844.961 103.646 843.566 102.965C845.534 101.997 846.933 101.31 848.321 100.628C848.028 96.4718 847.732 92.2562 847.396 87.4827C845.868 88.0938 844.09 88.805 842.312 89.5162C841.953 89.3388 841.594 89.1614 841.235 88.984C843.977 85.1003 846.718 81.2166 850.045 76.5039C851.564 80.5801 852.816 83.9395 854.151 87.5233C855.065 85.348 855.797 83.6066 856.528 81.8652C858.583 86.0259 862.886 87.0744 864.847 91.0905C866.467 94.4098 868.448 98.0541 870.363 101.518C871.402 103.398 873.538 104.671 875.43 106.454C875.12 106.644 874.293 107.148 873.012 107.929C876.478 114.998 879.959 122.097 883.483 129.284C885.042 128.816 886.7 128.318 886.924 128.251C890.798 131.396 893.914 133.958 897.067 136.475C899.255 138.221 898.707 142.439 896.203 144.153C895.243 144.81 894.647 145.999 893.772 147.085C900.774 148.964 901.286 149.681 898.851 153.176C900.528 155.572 902.143 157.879 903.922 160.516Z" fill="white"/>
<path d="M495.469 876C498.772 873.172 502.464 870.228 506.336 867.547C510.667 864.548 515.168 861.797 519.577 858.909C520.126 858.549 520.486 857.793 521.062 857.595C530.665 854.291 538.067 847.482 546.259 841.921C553.573 836.956 561.007 832.169 568.398 827.32C575.44 822.7 582.559 818.193 589.519 813.455C593.211 810.941 596.546 807.905 600.216 805.356C603.447 803.111 607.173 801.535 610.241 799.109C621.305 790.359 632.359 781.578 643.047 772.38C647.51 768.539 651.024 763.601 655.024 759.211C655.899 758.251 656.875 757.096 658.029 756.72C666.728 753.883 671.498 746.407 677.558 740.458C684.822 733.327 691.429 725.548 699.943 719.686C703.933 716.938 707.188 713.083 710.625 709.581C717.776 702.295 725.06 695.119 731.86 687.515C741.113 677.169 750.307 666.718 759.447 656.32C767.136 647.573 771.983 636.895 780.917 628.961C788.329 622.378 793.29 613.063 799.481 605.069C803.848 599.431 808.481 593.999 812.942 588.432C814.5 586.488 816.264 584.589 817.309 582.374C821.982 572.47 828.007 563.58 835.595 555.644C837.396 553.761 837.927 550.662 839.035 548.119C839.753 546.471 840.217 544.653 841.211 543.195C846.316 535.711 851.988 528.577 856.639 520.827C862.503 511.058 867.48 500.762 873.012 490.788C877.965 481.861 883.236 473.11 888.182 464.179C889.69 461.456 890.553 458.381 891.767 455.49C895.265 447.157 899.999 439.472 903.239 430.913C907.399 419.925 913.755 409.777 919.018 399.194C920.343 396.531 921.006 393.548 922.151 390.785C925.569 382.531 929.266 374.387 932.479 366.056C934.616 360.513 936.045 354.7 937.914 349.048C939.922 342.979 942.107 336.968 944.155 330.912C946.489 324.013 948.771 317.096 951.051 310.179C952.943 304.438 954.886 298.712 956.649 292.93C958.095 288.187 959.503 283.412 960.502 278.563C960.785 277.186 959.27 275.529 959.133 273.952C958.972 272.096 959.412 270.187 959.818 268.114C960.359 267.999 960.622 268.157 961.093 268.888C962.245 269.928 963.139 270.482 964.032 271.035C965.327 272.392 966.661 273.714 967.905 275.115C968.959 276.301 970.87 277.695 970.736 278.794C970.23 282.934 972.627 288.103 966.256 291.018C965.898 290.374 965.284 289.271 964.76 288.33C963.518 291.234 962.388 293.878 961.091 296.91C964.477 298.124 962.554 307.34 970.99 303.973C970.58 306.239 970.439 308.178 969.859 309.976C968.792 313.284 970.883 314.491 973.12 316.077C975.222 317.568 977.728 319.363 978.573 321.587C980.963 327.877 985.27 332.605 989.459 337.586C990.783 339.159 990.825 341.865 991.296 344.086C991.761 346.277 992.214 348.501 992.33 350.728C992.462 353.246 995.176 356.225 991.243 358.267C991.04 358.372 991.314 360.387 991.893 360.843C995.129 363.39 998.012 365.567 991.902 368.279C990.698 368.813 990.29 371.141 989.773 372.142C991.1 374.395 992.367 376.899 993.958 379.176C997.022 383.563 1000.44 387.712 1003.35 392.189C1004.45 393.875 1004.58 396.196 1005.03 398.479C1003.76 399.406 1002.2 399.821 1001.55 400.824C1000.81 401.987 1001.07 403.751 1000.53 405.108C995.265 418.353 990.103 431.643 984.545 444.766C979.885 455.768 974.736 466.564 969.805 477.452C967.921 481.615 966.09 485.803 964.145 489.937C961.48 495.603 958.757 501.244 955.979 506.855C955.634 507.551 954.674 507.917 954.214 508.584C952.733 510.732 951.165 512.852 949.972 515.159C947.401 520.132 945.834 525.868 942.374 530.07C938.926 534.255 935.223 537.798 934.665 543.557C934.517 545.086 933.396 546.596 932.492 547.962C927.692 555.225 922.612 562.31 918.043 569.713C914.806 574.957 912.608 580.853 909.275 586.026C902.004 597.31 894.351 608.349 886.745 619.414C885.073 621.848 882.774 623.849 881.07 626.265C876.474 632.782 872.262 639.578 867.497 645.964C860.487 655.358 853.185 664.536 845.902 673.723C840.337 680.743 834.638 687.657 828.941 694.571C825.685 698.523 822.358 702.42 818.98 706.269C815.305 710.457 811.531 714.558 807.81 718.706C807.043 719.56 806.292 720.431 805.58 721.331C801.665 726.284 798.475 732.137 793.674 735.978C788.054 740.473 786.23 749.066 777.861 750.453C777.349 750.538 777.093 751.858 776.615 752.53C775.282 754.404 774.107 756.456 772.492 758.056C764.041 766.43 755.5 774.713 746.938 782.973C738.81 790.812 730.671 798.64 722.413 806.341C720.497 808.128 717.868 809.146 715.934 810.919C709.112 817.171 702.557 823.718 695.681 829.908C692.038 833.188 686.749 835.211 684.283 839.115C678.185 848.768 666.986 851.662 659.561 859.484C654.875 864.42 648.721 867.947 643.355 872.267C642.271 873.14 641.77 874.737 641 876C592.646 876 544.292 876 495.469 876Z" fill="white"/>
<path d="M0.000244141 781.469C4.49726 778.85 8.96171 779.065 13.5192 780.933C14.6298 781.388 16.0712 781.309 17.3102 781.129C21.4788 780.524 25.6101 779.302 29.7827 779.17C35.6621 778.983 41.6092 780.13 47.4493 779.684C58.118 778.871 68.7271 777.287 79.3657 776.066C84.6393 775.461 89.9209 774.922 95.2032 774.397C105.493 773.375 115.804 772.865 125.905 770.068C131.829 768.427 138.206 768.501 144.305 767.392C148.96 766.545 153.49 765.021 158.092 763.868C159.352 763.552 160.678 763.505 161.968 763.302C164.681 762.874 167.395 762.449 170.101 761.977C173.169 761.443 176.224 760.843 179.291 760.305C180.576 760.08 182.149 760.35 183.124 759.698C189.126 755.682 195.728 754.779 202.789 754.71C206.301 754.675 209.864 753.114 213.286 751.91C219.668 749.666 225.918 747.045 232.316 744.853C235.039 743.92 237.992 743.65 240.85 743.129C241.317 743.044 241.908 743.416 242.311 743.253C248.719 740.665 255.055 737.891 261.513 735.437C266.755 733.446 272.217 732.03 277.438 729.99C285.726 726.751 293.868 723.14 302.122 719.811C307.615 717.595 313.515 716.183 318.674 713.382C331.998 706.148 347.066 702.436 359.205 692.731C362.958 689.73 368.075 688.475 372.463 686.217C376.542 684.118 380.481 681.746 384.483 679.498C385.923 678.69 387.389 677.925 388.81 677.085C395.115 673.359 401.396 669.59 407.71 665.879C418.932 659.285 430.173 652.723 441.403 646.144C442.528 645.485 443.776 644.951 444.729 644.095C449.005 640.254 453.102 636.21 457.443 632.446C462.424 628.125 467.461 623.845 472.717 619.869C479.643 614.629 487.097 610.055 493.789 604.545C501.139 598.493 507.814 591.628 514.911 585.259C519.687 580.973 524.828 577.088 529.548 572.744C535.238 567.507 540.656 561.974 546.19 556.568C551.62 551.264 557.212 546.115 562.436 540.616C568.876 533.837 574.615 526.355 581.364 519.917C592.257 509.524 599.974 496.568 610.25 485.619C618.744 476.569 624.826 465.272 632.112 455.067C635.844 449.84 639.956 444.885 643.748 439.698C649.386 431.988 655.969 424.835 658.563 415.273C658.607 415.113 658.664 414.95 658.748 414.809C663.757 406.461 668.929 398.205 673.732 389.74C677.776 382.613 681.388 375.241 685.197 367.981C686.998 364.548 688.975 361.197 690.593 357.681C693.96 350.362 696.004 342.123 700.662 335.784C707.72 326.18 708.532 313.826 716.163 304.606C718.666 301.582 719.441 297.077 720.817 293.182C725.062 281.165 729.099 269.073 733.462 257.1C735.152 252.461 737.534 248.076 739.517 243.539C739.965 242.515 740.502 241.229 740.256 240.25C738.533 233.379 742.076 227.715 744.037 221.608C745.857 215.942 746.594 209.936 748.271 204.215C750.034 198.199 752.756 192.448 754.314 186.389C756.136 179.307 757.153 172.018 758.516 164.818C759.649 158.831 760.567 152.795 761.963 146.87C763.578 140.016 765.305 133.361 765.274 126.094C765.243 118.899 767.062 111.616 768.702 104.517C770.365 97.3167 770.62 90.4339 767.156 83.3353C773.356 83.078 773.084 89.0627 775.684 92.5355C778.875 96.7989 782.308 100.901 785.888 104.844C787.815 106.966 790.267 108.611 792.752 110.697C792.794 110.621 793.311 109.671 794.086 108.251C797.287 111.308 800.262 114.151 803.79 117.522C804.315 117.297 805.91 116.613 807.964 115.732C805.701 120.67 808.957 122.536 811.422 125.095C812.777 126.502 813.022 128.977 813.4 130.959C813.033 130.949 813.08 131.005 812.97 130.73C812.277 130.62 811.694 130.785 810.815 131.131C810.179 132.509 809.706 133.686 809.519 134.906C808.623 140.746 807.74 146.59 806.978 152.449C806.375 157.091 806.105 161.781 805.385 166.403C805.047 168.574 803.992 170.631 803.271 172.743C802.533 174.905 801.761 177.057 801.093 179.241C800.681 180.587 800.496 182.001 800.101 183.353C799.608 185.038 798.835 186.656 798.475 188.364C796.81 196.261 795.423 204.222 793.58 212.075C792.457 216.86 790.525 221.449 789.242 226.203C787.148 233.965 785.58 241.879 783.257 249.568C780.165 259.806 776.702 269.94 773.141 280.028C769.558 290.177 765.941 300.33 761.818 310.265C758.046 319.354 753.463 328.102 749.456 337.098C746.664 343.366 744.51 349.925 741.602 356.135C734.649 370.975 727.438 385.694 720.278 400.436C719.347 402.352 718.102 404.116 716.995 405.946C713.072 412.431 708.966 418.813 705.273 425.427C701.657 431.902 698.988 438.956 694.951 445.135C689.502 453.475 683.229 461.285 677.156 469.206C666.411 483.221 658.655 499.318 646.276 512.248C638.279 520.601 631.404 530.022 623.921 538.876C620.517 542.904 616.791 546.66 613.331 550.643C609.22 555.376 605.353 560.323 601.169 564.988C596.518 570.174 591.686 575.2 586.827 580.194C582.334 584.813 577.819 589.424 573.098 593.807C568.123 598.424 562.763 602.628 557.82 607.277C554.153 610.725 550.991 614.707 547.396 618.239C545.189 620.407 542.549 622.127 540.174 624.132C534.015 629.332 527.976 634.677 521.734 639.774C516.635 643.936 511.201 647.689 506.135 651.888C503.475 654.093 501.596 657.296 498.822 659.298C492.021 664.205 484.872 668.625 477.928 673.339C472.511 677.017 467.257 680.937 461.802 684.557C459.366 686.174 456.421 687.043 454.05 688.733C449.489 691.985 445.383 695.901 440.709 698.964C432.072 704.621 422.008 708.018 414.49 715.482C414.035 715.934 413.362 716.18 412.77 716.48C405.08 720.377 397.294 724.098 389.732 728.229C385.966 730.287 382.911 733.848 379.007 735.418C367.964 739.859 356.469 743.236 346.793 750.571C346.284 750.957 345.604 751.134 344.986 751.359C339.336 753.42 333.593 755.256 328.047 757.566C314.619 763.16 301.354 769.151 287.882 774.636C279.498 778.049 270.852 780.817 262.338 783.915C261.092 784.368 259.977 785.214 258.716 785.593C252.858 787.354 246.986 789.072 241.087 790.691C237.341 791.72 233.528 792.504 229.767 793.483C226.126 794.43 222.524 795.522 218.888 796.487C211.853 798.353 204.796 800.137 197.767 802.024C189.677 804.195 181.708 806.991 173.499 808.502C165.139 810.042 156.551 810.346 148.064 811.209C147.576 811.259 147.109 811.491 146.625 811.61C139.429 813.382 132.32 815.819 125.017 816.771C111.604 818.518 98.0772 819.384 84.5988 820.628C73.0738 821.692 61.5579 822.865 50.0234 823.813C42.3847 824.44 34.7249 824.901 27.0653 825.154C22.3455 825.311 17.6027 824.734 12.8804 824.862C8.57986 824.978 4.2931 825.601 0.000244141 826C0.000245141 811.312 0.000244141 796.625 0.000244141 781.469Z" fill="white"/>
<path d="M238.531 0C239.016 8.30227 238.946 16.4878 237.016 24.7587C235.553 31.0306 232.189 37.8829 237.025 44.3968C237.297 44.763 237.44 45.3781 237.36 45.8277C236.597 50.1645 236.855 55.121 234.767 58.7035C228.079 70.178 228.102 83.405 223.979 95.4663C221.406 102.992 217.767 110.159 214.462 117.421C214.173 118.056 212.783 118.155 211.945 118.584C210.968 119.085 209.493 119.458 209.174 120.261C207.238 125.127 205.809 130.204 203.713 134.993C202.647 137.429 200.846 140.879 198.843 141.294C194.531 142.189 193.589 145.566 191.72 148.258C189.151 151.958 187.355 156.246 184.511 159.691C180.433 164.631 175.763 169.092 171.248 173.661C163.875 181.123 156.724 188.847 148.893 195.799C144.082 200.07 140.629 207.013 132.502 206.293C132.348 206.279 132.131 206.332 132.033 206.437C126.667 212.2 119.202 214.225 112.417 217.454C103.877 221.518 96.4799 227.985 86.552 229.166C82.0386 229.703 77.6337 231.169 73.1897 232.254C72.5609 232.408 71.7532 232.633 71.4287 233.101C68.6671 237.092 64.4476 237.167 60.1975 238.144C47.8675 240.978 35.819 244.912 22.918 244.795C15.5787 244.728 8.23125 245.568 0.443848 246C0.000207663 164.074 0.000244141 82.148 0.000244141 0C79.3543 0 158.709 0 238.531 0Z" fill="white"/>
<path d="M0.000244141 826.469C4.2931 825.601 8.57986 824.978 12.8804 824.862C17.6027 824.734 22.3455 825.311 27.0653 825.154C34.7249 824.901 42.3847 824.44 50.0234 823.813C61.5579 822.865 73.0738 821.692 84.5988 820.628C98.0772 819.384 111.604 818.518 125.017 816.771C132.32 815.819 139.429 813.382 146.625 811.61C147.109 811.491 147.576 811.259 148.064 811.209C156.551 810.346 165.139 810.042 173.499 808.502C181.708 806.991 189.677 804.195 197.767 802.024C204.796 800.137 211.853 798.353 218.888 796.487C222.524 795.522 226.126 794.43 229.767 793.483C233.528 792.504 237.341 791.72 241.087 790.691C246.986 789.072 252.858 787.354 258.716 785.593C259.977 785.214 261.092 784.368 262.338 783.915C270.852 780.817 279.498 778.049 287.882 774.636C301.354 769.151 314.619 763.16 328.047 757.566C333.593 755.256 339.336 753.42 344.986 751.359C345.604 751.134 346.284 750.957 346.793 750.571C356.469 743.236 367.964 739.859 379.007 735.418C382.911 733.848 385.966 730.287 389.732 728.229C397.294 724.098 405.08 720.377 412.77 716.48C413.362 716.18 414.035 715.934 414.49 715.482C422.008 708.018 432.072 704.621 440.709 698.964C445.383 695.901 449.489 691.985 454.05 688.733C456.421 687.043 459.366 686.174 461.802 684.557C467.257 680.937 472.511 677.017 477.928 673.339C484.872 668.625 492.021 664.205 498.822 659.298C501.596 657.296 503.475 654.093 506.135 651.888C511.201 647.689 516.635 643.936 521.734 639.774C527.976 634.677 534.015 629.332 540.174 624.132C542.549 622.127 545.189 620.407 547.396 618.239C550.991 614.707 554.153 610.725 557.82 607.277C562.763 602.628 568.123 598.424 573.098 593.807C577.819 589.424 582.334 584.813 586.827 580.194C591.686 575.2 596.518 570.174 601.169 564.988C605.353 560.323 609.22 555.376 613.331 550.643C616.791 546.66 620.517 542.904 623.921 538.876C631.404 530.022 638.279 520.601 646.276 512.248C658.655 499.318 666.411 483.221 677.156 469.206C683.229 461.285 689.502 453.475 694.951 445.135C698.988 438.956 701.657 431.902 705.273 425.427C708.966 418.813 713.072 412.431 716.995 405.946C718.102 404.116 719.347 402.352 720.278 400.436C727.438 385.694 734.649 370.975 741.602 356.135C744.51 349.925 746.664 343.366 749.456 337.098C753.463 328.102 758.046 319.354 761.818 310.265C765.941 300.33 769.558 290.177 773.141 280.028C776.702 269.94 780.165 259.806 783.257 249.568C785.58 241.879 787.148 233.965 789.242 226.203C790.525 221.449 792.457 216.86 793.58 212.075C795.423 204.222 796.81 196.261 798.475 188.364C798.835 186.656 799.608 185.038 800.101 183.353C800.496 182.001 800.681 180.587 801.093 179.241C801.761 177.057 802.533 174.905 803.271 172.743C803.992 170.631 805.047 168.574 805.385 166.403C806.105 161.781 806.375 157.091 806.978 152.449C807.74 146.59 808.623 140.746 809.519 134.906C809.706 133.686 810.179 132.509 811.184 131.297C812.258 131.19 812.669 131.097 813.08 131.005C813.08 131.005 813.033 130.949 813.03 130.912C813.556 132.002 814.085 133.127 814.571 134.727C814.303 136.008 814.079 136.816 813.855 137.624C814.579 137.395 815.303 137.167 816.027 136.938C817.779 135.079 819.531 133.219 821.992 131.176C823.49 131.011 824.279 131.03 825.068 131.048C825.749 131.369 826.539 131.563 827.089 132.036C828.426 133.187 829.651 134.467 830.921 135.694C829.488 136.449 828.123 137.426 826.602 137.892C825.274 138.299 823.77 138.13 821.323 138.276C822.823 139.552 823.587 140.201 824.689 141.386C825.691 143.67 826.354 145.418 827.126 147.456C828.907 146.338 830.007 145.648 831.106 144.958C831.649 145.12 832.193 145.282 833.103 145.843C834.291 146.148 835.112 146.055 835.933 145.961C835.454 144.812 834.975 143.662 834.177 142.037C833.645 141.052 833.433 140.544 833.221 140.035C833.168 139.104 833.115 138.173 833.624 137.069C834.744 136.567 835.3 136.238 835.857 135.91C835.236 133.871 834.615 131.832 833.684 129.253C832.516 128.56 831.657 128.405 830.799 128.25C830.799 128.25 830.739 128.236 830.751 127.885C830.514 126.737 830.265 125.94 830.015 125.143C830.015 125.143 829.864 125.096 830.024 124.759C830.458 123.687 830.731 122.952 831.004 122.217C831.004 122.217 831.427 122.038 831.941 121.909C832.98 121.494 833.505 121.207 834.029 120.921C835.101 120.614 836.173 120.307 837.98 119.994C839.498 119.983 840.28 119.978 841.062 119.973C841.845 120.675 842.627 121.377 843.782 122.584C845.804 124.04 847.454 124.992 849.105 125.944C849.38 126.428 849.656 126.912 849.877 127.697C848.655 129.086 846.591 130.081 846.465 131.28C845.607 139.427 842.52 147.039 842.345 155.524C842.172 163.912 838.442 172.234 836.198 180.565C835.738 182.274 834.631 183.847 834.377 185.565C833.862 189.05 833.964 192.632 833.385 196.102C832.111 203.736 831.009 211.442 829.026 218.903C826.744 227.491 823.48 235.813 820.851 244.314C819.25 249.492 818.082 254.801 816.652 260.033C814.277 268.724 812.48 277.595 807.921 285.579C807.06 287.087 807.597 289.348 807.286 291.228C807.001 292.947 806.622 294.692 805.974 296.302C803.189 303.229 800.291 310.111 797.431 317.008C796.991 318.069 796.834 319.499 796.044 320.121C791.377 323.794 791.561 329.541 789.665 334.388C787.027 341.136 784.515 347.937 781.7 354.611C778.182 362.951 774.714 371.336 770.66 379.419C767.115 386.49 762.796 393.174 758.801 400.018C758.141 401.15 756.694 402.301 756.795 403.325C757.609 411.508 751.292 416.026 747.693 421.972C745.701 425.265 744.701 429.147 742.815 432.519C740.4 436.836 738.345 441.893 734.695 444.858C728.855 449.6 727.475 456.621 723.548 462.25C719.42 468.169 715.561 474.277 711.651 480.345C704.89 490.836 698.188 501.364 691.439 511.862C690.818 512.828 690.219 514.178 689.301 514.519C685.294 516.008 683.87 519.233 683.268 522.968C682.315 528.871 678.035 531.873 673.489 534.723C672.519 535.331 671.122 535.821 670.738 536.716C666.461 546.682 656.394 552.15 651.529 561.631C648.598 567.344 642.246 570.775 639.494 575.653C634.965 583.684 626.443 587.156 621.944 594.917C618.978 600.034 613.571 603.739 609.251 608.07C600.766 616.576 592.288 625.091 583.774 633.569C582.606 634.732 581.247 635.703 579.976 636.763C575.915 640.153 571.889 643.586 567.782 646.92C564.603 649.5 561.082 651.705 558.148 654.53C554.505 658.038 551.296 661.999 547.93 665.792C546.749 667.122 545.936 669.214 544.487 669.801C532.212 674.771 522.553 683.283 513.213 692.282C512.496 692.973 511.79 693.802 510.911 694.18C500.258 698.768 492.266 707.091 483.058 713.716C475.489 719.161 467.05 723.378 459.188 728.438C452.6 732.677 446.391 737.502 439.811 741.754C436.955 743.6 433.561 744.596 430.466 746.092C427.513 747.518 424.528 748.921 421.742 750.636C416.293 753.99 411.257 758.16 405.515 760.849C400.49 763.201 396.473 768.165 390.117 767.475C389.497 767.408 388.577 767.501 388.233 767.898C382.998 773.929 375.033 774.68 368.499 778.177C361.769 781.781 355.084 785.505 348.158 788.694C342.66 791.225 336.795 792.95 331.155 795.189C328.271 796.333 325.604 798.041 322.698 799.108C314.772 802.02 306.684 804.504 298.824 807.577C290.872 810.686 283.149 814.377 275.25 817.629C273.471 818.361 271.342 818.191 269.436 818.678C265.675 819.639 261.941 820.713 258.227 821.844C254.448 822.994 250.788 824.806 246.934 825.375C239.449 826.481 232.386 828.275 226.467 833.278C225.974 833.696 225.309 834.135 224.706 834.162C219.739 834.388 214.69 834.029 209.82 834.808C204.505 835.659 199.377 837.629 194.125 838.943C187.913 840.496 181.643 841.819 175.426 843.353C173.834 843.745 172.358 844.59 170.806 845.166C169.11 845.795 167.216 847.143 165.705 846.814C155.826 844.664 146.893 849.201 137.511 850.406C125.628 851.932 113.326 852.125 102.034 855.593C95.1911 857.695 88.7773 856.131 82.2075 857.51C74.407 859.148 66.151 858.595 58.0962 859.058C56.1147 859.172 54.1491 859.553 52.1744 859.797C48.8882 860.202 45.5966 860.957 42.3142 860.922C34.2055 860.834 26.1015 860.354 17.9934 860.103C16.5127 860.057 15.0241 860.396 13.5348 860.477C9.29738 860.705 5.05771 860.891 0.409546 861.047C0.000160903 849.646 0.000245141 838.292 0.000244141 826.469Z" fill="white"/>
<path d="M641.469 876C641.77 874.737 642.271 873.14 643.355 872.267C648.721 867.947 654.875 864.42 659.561 859.484C666.986 851.662 678.185 848.768 684.283 839.115C686.749 835.211 692.038 833.188 695.681 829.908C702.557 823.718 709.112 817.171 715.934 810.919C717.868 809.146 720.497 808.128 722.413 806.341C730.671 798.64 738.81 790.812 746.938 782.973C755.5 774.713 764.041 766.43 772.492 758.056C774.107 756.456 775.282 754.404 776.615 752.53C777.093 751.858 777.349 750.538 777.861 750.453C786.23 749.066 788.054 740.473 793.674 735.978C798.475 732.137 801.665 726.284 805.58 721.331C806.292 720.431 807.043 719.56 807.81 718.706C811.531 714.558 815.305 710.457 818.98 706.269C822.358 702.42 825.685 698.523 828.941 694.571C834.638 687.657 840.337 680.743 845.902 673.723C853.185 664.536 860.487 655.358 867.497 645.964C872.262 639.578 876.474 632.782 881.07 626.265C882.774 623.849 885.073 621.848 886.745 619.414C894.351 608.349 902.004 597.31 909.275 586.026C912.608 580.853 914.806 574.957 918.043 569.713C922.612 562.31 927.692 555.225 932.492 547.962C933.396 546.596 934.517 545.086 934.665 543.557C935.223 537.798 938.926 534.255 942.374 530.07C945.834 525.868 947.401 520.132 949.972 515.159C951.165 512.852 952.733 510.732 954.214 508.584C954.674 507.917 955.634 507.551 955.979 506.855C958.757 501.244 961.48 495.603 964.145 489.937C966.09 485.803 967.921 481.615 969.805 477.452C974.736 466.564 979.885 455.768 984.545 444.766C990.103 431.643 995.265 418.353 1000.53 405.108C1001.07 403.751 1000.81 401.987 1001.55 400.824C1002.2 399.821 1003.76 399.406 1005.26 398.817C1006.64 399.374 1007.67 399.844 1008.97 400.836C1009.53 401.893 1009.81 402.427 1010.1 402.961C1009.98 404.242 1009.86 405.522 1009.62 408.073C1008.23 405.782 1007.5 404.581 1006.39 403.149C1005.8 402.845 1005.58 402.773 1005.36 402.701C1005.53 403.119 1005.69 403.538 1005.86 403.957C1006.6 406.832 1007.34 409.707 1008.08 412.583C1008.54 412.638 1009 412.693 1009.46 412.748C1010.39 411.301 1011.32 409.855 1012.14 408.572C1014.5 410.175 1016.51 410.89 1017.38 412.308C1018.38 413.935 1019.35 417.375 1018.63 417.974C1013.3 422.405 1017.94 426.002 1019.79 428.953C1023.77 435.289 1029.1 440.579 1035.29 445.007C1036.67 445.994 1036.85 448.652 1038.01 451.621C1039.84 450.734 1041.8 449.766 1043.78 448.837C1045.81 447.884 1047.93 446.564 1049.71 450.052C1051.49 453.074 1053.27 452.211 1055.1 450.948C1055.75 452.066 1056.4 453.184 1056.91 454.941C1055.49 456.078 1054.21 456.577 1052.95 457.057C1052.97 457.038 1052.97 457.098 1052.88 457.009C1052.54 456.776 1052.29 456.745 1051.58 456.855C1050.59 456.685 1050.04 456.489 1049.48 456.26C1049.48 456.227 1049.37 456.199 1049.04 456.08C1046.39 455.21 1044.09 454.459 1041.78 453.708C1041.58 454.144 1041.37 454.581 1041.17 455.017C1044.05 457.903 1046.93 460.79 1049.82 464.098C1049.25 467.273 1048.97 470.135 1048.03 472.76C1044.93 481.393 1042.12 490.207 1038.05 498.377C1036.63 501.232 1034.85 503.522 1034.48 506.968C1034.23 509.356 1032.68 512.376 1030.74 513.659C1026.66 516.363 1025.82 520.05 1024.52 524.354C1022.68 530.478 1019.4 536.242 1016.23 541.879C1011.91 549.56 1007 556.9 1002.59 564.532C999.401 570.052 996.445 575.725 993.717 581.487C991.444 586.288 987.749 589.989 984.845 594.17C978.199 603.737 973.508 614.65 967.861 624.929C963.706 632.493 961.109 641.249 952.546 645.609C951.774 646.002 951.397 647.182 950.853 648.008C942.879 660.131 935.951 673.157 926.553 684.053C920.652 690.894 917.564 699.494 910.388 705.655C906.275 709.186 904.192 715.623 899.693 719.981C895.381 724.159 892.494 729.774 888.691 734.525C886.274 737.545 883.296 740.11 880.63 742.936C876.911 746.88 871.996 750.318 869.905 755.005C867.691 759.968 864.301 762.935 860.513 766.128C858.807 767.565 857.641 769.684 856.378 771.591C855.379 773.098 854.823 774.931 853.698 776.317C846.096 785.676 834.561 791.289 828.785 802.415C828.575 802.819 827.985 803.008 827.649 803.369C825.365 805.822 823.107 808.298 820.831 810.758C819.496 812.201 818.294 813.821 816.765 815.021C813.435 817.636 809.507 819.622 806.619 822.629C803.398 825.983 801.812 831.35 798.145 833.717C793.67 836.604 789.917 839.644 786.679 843.836C784.832 846.227 781.496 847.405 779.125 849.469C773.933 853.989 768.747 858.547 763.903 863.431C760.006 867.36 756.616 871.792 753 876C715.979 876 678.958 876 641.469 876Z" fill="white"/>
<path d="M753.469 876C756.616 871.792 760.006 867.36 763.903 863.431C768.747 858.547 773.933 853.989 779.125 849.469C781.496 847.405 784.832 846.227 786.679 843.836C789.917 839.644 793.67 836.604 798.145 833.717C801.812 831.35 803.398 825.983 806.619 822.629C809.507 819.622 813.435 817.636 816.765 815.021C818.294 813.821 819.496 812.201 820.831 810.758C823.107 808.298 825.365 805.822 827.649 803.369C827.985 803.008 828.575 802.819 828.785 802.415C834.561 791.289 846.096 785.676 853.698 776.317C854.823 774.931 855.379 773.098 856.378 771.591C857.641 769.684 858.807 767.565 860.513 766.128C864.301 762.935 867.691 759.968 869.905 755.005C871.996 750.318 876.911 746.88 880.63 742.936C883.296 740.11 886.274 737.545 888.691 734.525C892.494 729.774 895.381 724.159 899.693 719.981C904.192 715.623 906.275 709.186 910.388 705.655C917.564 699.494 920.652 690.894 926.553 684.053C935.951 673.157 942.879 660.131 950.853 648.008C951.397 647.182 951.774 646.002 952.546 645.609C961.109 641.249 963.706 632.493 967.861 624.929C973.508 614.65 978.199 603.737 984.845 594.17C987.749 589.989 991.444 586.288 993.717 581.487C996.445 575.725 999.401 570.052 1002.59 564.532C1007 556.9 1011.91 549.56 1016.23 541.879C1019.4 536.242 1022.68 530.478 1024.52 524.354C1025.82 520.05 1026.66 516.363 1030.74 513.659C1032.68 512.376 1034.23 509.356 1034.48 506.968C1034.85 503.522 1036.63 501.232 1038.05 498.377C1042.12 490.207 1044.93 481.393 1048.03 472.76C1048.97 470.135 1049.25 467.273 1049.85 463.759C1050.78 460.971 1054.49 460.385 1052.93 457.075C1054.21 456.577 1055.49 456.078 1056.99 455.312C1059.73 458.474 1062.33 461.845 1064.73 465.355C1065.93 467.125 1066.77 469.145 1067.78 471.052C1067.45 471.315 1067.12 471.579 1066.79 471.842C1066.06 471.453 1065.34 471.063 1064.46 470.589C1064.08 472.055 1063.68 473.549 1063.48 474.312C1065.82 477.47 1067.87 480.26 1069.94 483.037C1070.47 483.755 1070.92 484.78 1071.65 485.071C1076.5 487.015 1076.71 490.579 1075.54 493.966C1077.11 496.647 1078.29 498.822 1079.63 500.899C1080.28 501.906 1081.16 502.79 1082.04 503.623C1084.26 505.737 1086.04 507.768 1087.43 510.879C1089.16 514.74 1089.17 520.177 1095.08 522.27C1098.35 523.425 1100.29 528.083 1103.08 530.923C1104.11 531.976 1105.84 532.345 1107.62 533.035C1107.99 533.044 1107.93 533.023 1107.93 533.023C1107.7 533.901 1107.48 534.778 1107.14 536.1C1107.43 536.419 1108.27 537.336 1108.79 538.812C1106.41 543.346 1104.22 547.262 1102.3 551.305C1097 562.454 1092.02 573.758 1086.52 584.807C1081.77 594.348 1076.59 603.674 1071.42 613.002C1066.66 621.621 1061.78 630.186 1056.73 638.64C1053.34 644.301 1049.65 649.782 1045.94 655.243C1040.67 663.008 1034.36 670.224 1030.2 678.529C1026.53 685.859 1022.64 692.643 1017.39 699.008C1010.58 707.251 1004.96 716.484 998.855 725.308C994.52 731.575 991.092 738.772 985.711 743.942C977.753 751.589 972.719 761.211 965.853 769.531C964.175 771.563 963.165 774.152 961.46 776.154C954.751 784.033 947.76 791.671 941.121 799.606C935.08 806.827 929.447 814.388 923.451 821.649C921.296 824.259 917.924 826.047 916.332 828.895C914.202 832.704 913.916 837.703 907.957 837.97C907.31 837.999 906.728 839.388 906.109 840.14C904.746 841.798 903.703 844.26 901.953 844.966C894.836 847.838 893.846 857.195 886.249 859.368C885.991 859.442 885.67 859.853 885.651 860.126C885.318 864.917 881.529 866.851 878.4 869.557C876.689 871.036 876.097 873.81 875 876C834.646 876 794.292 876 753.469 876Z" fill="white"/>
<path d="M1194.86 581.993C1194.51 582.864 1193.92 583.716 1193.85 584.608C1193.7 586.486 1193.03 589.171 1193.99 590.14C1198.23 594.454 1203.12 598.12 1207.49 602.324C1212.09 606.75 1213.76 601.279 1216.24 599.727C1218.69 598.191 1220.35 595.377 1222.53 592.927C1230.61 602.376 1238.5 611.93 1246.79 621.122C1250.2 624.902 1254.66 627.717 1258.27 631.337C1260.05 633.11 1260.98 635.719 1262.57 638.414C1271.81 642.765 1277.7 651.643 1283.69 661.21C1286.63 657.213 1288.64 658.692 1291.25 660.85C1295.37 664.263 1300.48 666.573 1304.23 670.301C1306.51 672.565 1310.33 675.087 1308.35 680.028C1307.8 681.414 1310 683.904 1310.63 685.235C1308.53 687.113 1305.11 689.008 1305.34 690.202C1305.9 693.084 1307.79 695.979 1309.85 698.208C1311.32 699.787 1314.27 699.908 1315.97 701.361C1318.27 703.313 1320 705.923 1321.96 708.836C1322.91 709.955 1323.87 710.487 1324.83 711.018C1325.31 712.006 1325.8 712.994 1326.63 714.443C1326.31 716.646 1325.64 718.389 1324.69 719.973C1323.93 718.907 1323.45 717.999 1322.93 716.75C1321.99 715.269 1321.08 714.128 1319.98 712.769C1317.85 711.674 1315.9 710.799 1313.98 709.933C1313.82 710.356 1313.42 711.42 1312.89 712.835C1311.24 711.373 1310 710.279 1307.73 708.267C1309.13 711.983 1310.87 714.398 1310.72 716.693C1310.49 720.241 1311.79 722.632 1314.11 725.247C1315.48 726.378 1316.79 727.158 1318.08 727.953C1318.06 727.967 1318.08 727.924 1318.07 728.336C1317.69 731.596 1318.14 734.908 1316.82 737.201C1313.17 743.527 1308.7 749.378 1304.73 755.528C1303.7 757.124 1303.57 759.292 1302.57 760.912C1299.29 766.209 1291.83 769.008 1293.03 777.019C1293.1 777.501 1292.36 778.119 1291.97 778.657C1289.26 782.406 1286.29 785.991 1283.91 789.936C1280.86 794.994 1278.48 800.453 1275.46 805.535C1271.84 811.652 1267.87 817.567 1264 823.537C1263.28 824.641 1262.26 825.541 1261.49 826.616C1256.25 833.967 1250.95 841.283 1245.85 848.733C1243.72 851.854 1242.11 855.329 1240.09 858.541C1238.48 861.112 1236.7 863.584 1234.86 866C1232.6 868.98 1229.49 871.58 1231 876C1177.98 876 1124.96 876 1071.63 875.709C1076.79 870.546 1081.45 865.297 1085.07 858.606C1088.89 851.537 1094.96 845.658 1100.19 839.376C1109.47 828.22 1118.88 817.223 1126.46 804.719C1132.16 795.304 1138.82 786.467 1145.08 777.393C1146.2 775.767 1147.59 774.319 1148.64 772.649C1153.62 764.7 1158.47 756.675 1163.47 748.735C1165.29 745.838 1166.81 742.238 1169.47 740.515C1172.58 738.501 1173.79 736.334 1174.11 732.965C1174.26 731.369 1174.75 729.63 1175.62 728.302C1181.84 718.81 1188.02 709.279 1194.58 700.022C1198.97 693.817 1199.89 686.13 1205.19 679.998C1210.51 673.846 1213.53 665.45 1216.54 657.643C1218.36 652.905 1218.23 647.418 1218.98 642.268C1219.76 641.502 1220.54 640.736 1221.65 640.348C1221.21 642.658 1220.43 644.59 1219.43 647.075C1221.17 645.606 1222.21 644.842 1223.1 643.933C1223.79 643.229 1224.3 642.345 1224.89 641.541C1223.9 641.06 1222.92 640.579 1221.93 640.098C1222.52 636.105 1223.12 632.112 1223.71 628.12C1224.34 628.061 1224.97 628.002 1225.6 627.943C1226.29 630.147 1226.99 632.35 1227.68 634.553C1228.26 634.465 1228.84 634.376 1229.41 634.288C1229.15 630.815 1228.89 627.343 1228.53 622.609C1224.93 627.774 1221.91 627.19 1219.19 623.382C1218.31 625.266 1217.42 627.148 1215.96 630.254C1214.74 625.017 1213.93 621.27 1212.98 617.56C1212.7 616.48 1212.06 615.48 1211.51 614.488C1210.54 612.748 1209.5 611.044 1209.44 608.773C1204.8 605.724 1200.17 602.676 1195.53 599.628C1195.45 599.762 1195.36 599.896 1195.28 600.03C1194.02 598.88 1192.75 597.731 1191.43 596.59C1191.16 595.809 1190.93 595.019 1190.71 594.23C1190.45 594.346 1190.18 594.463 1189.91 594.579C1190.27 595.388 1190.64 596.197 1191 597.005C1187.85 599.893 1186.51 596.702 1186.23 594.902C1185.72 591.665 1186.36 588.213 1181.97 587.276C1182.28 585.967 1182.2 584.267 1183 583.446C1184.02 582.412 1185.77 582.096 1187.64 581.276C1187.74 581.645 1188.14 583.164 1188.61 584.995C1190.04 583.953 1191.23 583.09 1192.99 582.104C1194 581.986 1194.43 581.99 1194.86 581.993ZM1268.28 672.879C1267.92 672.595 1267.22 672.273 1267.25 672.031C1267.74 667.551 1267.63 667.863 1262.35 665.728C1260.38 664.931 1258.11 662.491 1257.77 660.495C1256.74 654.398 1255.43 652.977 1248.77 652.764C1247.94 652.737 1246.64 651.595 1246.45 650.77C1246.09 649.118 1246.35 647.328 1246.35 646.929C1244.6 645.389 1243.32 644.477 1242.31 643.323C1240.9 641.704 1239.7 639.904 1238.36 638.108C1237.16 642.696 1236.19 642.997 1231.51 639.534C1231.75 641.916 1231.88 645.205 1232.11 645.211C1238.22 645.389 1237.76 651.021 1239.39 654.406C1240.55 656.823 1238.71 660.472 1242.68 662.025C1245.3 663.049 1247.7 664.635 1250.2 665.97C1250.63 665.532 1251.05 665.093 1251.47 664.655C1249.35 661.788 1247.22 658.921 1244.92 655.824C1243.75 657.071 1243.04 657.831 1242.32 658.591C1241.85 656.5 1242.02 654.217 1243.2 653.39C1244.78 652.289 1253.65 656.922 1254.1 658.885C1254.48 660.553 1254.18 662.379 1254.18 664.756C1258.4 660.985 1259.57 664.441 1260.53 667.141C1261.48 669.778 1261.74 672.659 1262.35 675.65C1263.34 675.09 1264.28 674.562 1264.65 674.351C1266.63 676.519 1268.63 680.165 1269.99 679.94C1274.35 679.218 1274.82 683.112 1275.7 684.765C1277.59 688.272 1279.49 689.721 1283.18 688.151C1284.64 693.743 1301.44 708.169 1307.08 708.215C1304.72 704.681 1302.61 701.521 1300.28 698.042C1292.67 690.333 1284.7 682.258 1276.74 674.198C1273.25 677.357 1270.93 677.1 1270.15 673.375C1270.84 673.399 1271.53 673.423 1272.23 673.446C1271.96 672.742 1271.7 672.038 1271.43 671.334C1270.59 671.855 1269.75 672.376 1268.28 672.879ZM1219.5 613.574C1220.81 605.904 1220.81 605.904 1213.58 605.255C1212.97 609.161 1212.97 609.161 1219.5 613.574ZM1252.14 644.142C1253.75 646.026 1255.36 647.91 1256.97 649.793C1257.34 649.496 1257.72 649.199 1258.09 648.902C1257.44 647.106 1257.09 645.069 1255.98 643.621C1255.47 642.954 1253.46 643.44 1252.14 644.142Z" fill="white"/>
<path d="M875.469 876C876.097 873.81 876.689 871.036 878.4 869.557C881.529 866.851 885.318 864.917 885.651 860.126C885.67 859.853 885.991 859.442 886.249 859.368C893.846 857.195 894.836 847.838 901.953 844.966C903.703 844.26 904.746 841.798 906.109 840.14C906.728 839.388 907.31 837.999 907.957 837.97C913.916 837.703 914.202 832.704 916.332 828.895C917.924 826.047 921.296 824.259 923.451 821.649C929.447 814.388 935.08 806.827 941.121 799.606C947.76 791.671 954.751 784.033 961.46 776.154C963.165 774.152 964.175 771.563 965.853 769.531C972.719 761.211 977.753 751.589 985.711 743.942C991.092 738.772 994.52 731.575 998.855 725.308C1004.96 716.484 1010.58 707.251 1017.39 699.008C1022.64 692.643 1026.53 685.859 1030.2 678.529C1034.36 670.224 1040.67 663.008 1045.94 655.243C1049.65 649.782 1053.34 644.301 1056.73 638.64C1061.78 630.186 1066.66 621.621 1071.42 613.002C1076.59 603.674 1081.77 594.348 1086.52 584.807C1092.02 573.758 1097 562.454 1102.3 551.305C1104.22 547.262 1106.41 543.346 1108.79 539.169C1110.74 540.53 1112.38 542.093 1114.39 544.004C1114.79 541.995 1115.14 540.207 1115.71 537.295C1124.37 546.238 1132.41 554.55 1140.28 562.683C1140.16 562.819 1140.97 561.896 1142.65 559.98C1142.89 562.991 1143.85 565.38 1143.05 566.706C1140.78 570.452 1142.61 572.866 1144.94 575.264C1145.34 575.683 1146.53 575.335 1147.36 575.359C1148.3 575.387 1149.55 575.061 1150.15 575.539C1152.79 577.669 1155.26 580.026 1157.78 582.322C1158 582.531 1158.15 583.166 1158.23 583.147C1164.43 581.832 1164.18 589.605 1168.73 590.566C1168.56 590.849 1168.38 591.131 1167.88 591.878C1164.81 599.279 1156.18 602.625 1156.06 611.189C1156.06 611.73 1155.29 612.231 1154.97 612.802C1152.64 616.904 1150.11 620.909 1148.08 625.158C1145.44 630.717 1143.59 636.677 1140.69 642.084C1137.76 647.536 1132.79 652.111 1130.81 657.8C1127.14 668.376 1116.98 674.973 1114.55 686.093C1114.34 687.071 1113.11 687.826 1112.35 688.689C1110.26 691.081 1107.84 693.265 1106.16 695.917C1103.28 700.474 1100.93 705.369 1098.21 710.04C1093.89 717.487 1089.47 724.886 1085.02 732.256C1084.18 733.641 1082.92 734.763 1081.92 736.058C1076.95 742.504 1072.01 748.967 1067.07 755.429C1066.97 755.555 1066.94 755.736 1066.89 755.894C1064.67 762.278 1062.09 768.35 1054.84 770.655C1054.29 770.83 1053.82 771.501 1053.47 772.043C1050.34 776.914 1047.46 781.974 1044.07 786.662C1036.81 796.714 1029.17 806.498 1021.91 816.555C1018.66 821.057 1016.45 826.38 1012.87 830.561C1007.88 836.396 999.996 839.777 998.11 848.247C998.043 848.547 997.77 848.822 997.542 849.06C992.905 853.902 988.032 858.542 983.692 863.637C980.44 867.455 977.872 871.858 975 876C941.979 876 908.958 876 875.469 876Z" fill="white"/>
<path d="M1324.97 720.131C1325.64 718.389 1326.31 716.646 1326.98 714.536C1329.77 716.179 1332.54 718.208 1335.34 720.2C1340.09 723.587 1345.01 726.776 1349.53 730.444C1350.7 731.392 1350.68 733.813 1351.37 736.095C1351.83 735.005 1352.2 734.151 1352.32 733.888C1356.28 736.011 1360.47 737.845 1364.19 740.366C1367.43 742.559 1370.03 745.678 1373.13 748.097C1374.9 749.47 1377.11 750.263 1379.13 751.31C1379.56 751.531 1380.06 751.643 1380.42 751.936C1387.82 757.951 1395.11 764.103 1402.64 769.942C1404.75 771.579 1407.71 772.081 1410.03 773.502C1415.1 776.6 1420.02 779.955 1425.14 783.294C1422.84 787.071 1420.02 786.515 1417.61 785.041C1411.36 781.214 1405.38 776.954 1399.15 773.075C1393.74 769.699 1388.02 766.8 1382.67 763.336C1377.25 759.83 1372.11 755.89 1366.5 751.898C1365.9 752.575 1365 753.587 1363.68 755.067C1364.94 755.399 1365.74 755.609 1367.06 755.955C1366.16 758.158 1363.96 760.879 1364.55 762.688C1365.6 765.905 1367.76 769.517 1370.52 771.238C1374.5 773.716 1378.94 774.741 1380.24 780.442C1380.67 782.342 1384.43 783.77 1386.92 784.866C1393.92 787.959 1392.98 794.903 1389.9 798.606C1389.28 799.342 1388.15 799.642 1386.14 800.767C1389.31 803.464 1392.16 805.881 1394.41 807.797C1397.26 804.759 1399.69 800.852 1400.83 801.197C1405.24 802.528 1401.48 806.146 1401.93 808.754C1402.18 810.157 1402.85 811.621 1403.73 812.742C1404.63 813.892 1406.02 814.658 1408.54 815.425C1408.15 813.245 1407.76 811.065 1407.38 808.883C1414.25 808.034 1421.31 805.457 1427.79 810.624C1428.26 809.337 1428.86 807.664 1429.28 806.479C1432.48 808.133 1435.69 809.794 1438.91 811.455C1439.2 811.051 1439.49 810.647 1439.79 810.242C1436.55 804.32 1433.31 798.398 1429.75 791.89C1428.87 792.704 1427.93 793.573 1427.02 794.418C1426.83 794.268 1426.39 794.093 1426.38 793.89C1426.25 791.956 1425.99 790.001 1426.15 788.082C1426.5 783.516 1428.02 783.026 1432.04 785.225C1435.66 787.202 1439.62 788.571 1442.96 790.011C1443.25 786.806 1443.58 783.087 1443.91 779.368C1444.37 779.41 1444.82 779.452 1445.27 779.494C1446.93 784.164 1448.59 788.834 1450.24 793.504C1451.01 793.255 1451.77 793.005 1452.53 792.755C1449.84 783.592 1447.14 774.428 1444.43 765.201C1439.15 767.143 1435.24 765.618 1433.19 761.365C1430.87 756.566 1428.9 751.479 1422.12 751.807C1421.49 751.838 1420.69 751.029 1420.19 750.425C1416.12 745.49 1412.1 740.51 1407.95 735.405C1404.29 739.65 1401.19 738.774 1398.68 734.114C1396.02 729.167 1393.08 724.365 1390.5 719.378C1390.08 718.557 1390.88 716.105 1391.08 716.109C1393.5 716.165 1396.63 715.687 1398.19 716.997C1401.91 720.113 1404.45 724.672 1408.26 727.624C1413.78 731.899 1420 735.276 1425.93 739.022C1426.89 739.631 1428.32 739.918 1428.83 740.773C1433.28 748.161 1440.7 748.096 1448.04 748.832C1447.69 747.233 1447.14 745.849 1447.19 744.487C1447.21 743.723 1448.23 742.994 1448.8 742.249C1449.51 742.816 1450.89 743.46 1450.83 743.937C1450.09 750.26 1454.98 753.181 1458.44 756.975C1459.2 757.806 1459.79 758.792 1460.44 759.684C1462.84 756.708 1464.26 757.724 1464.84 761.033C1465.15 762.806 1465.08 764.643 1465.14 765.555C1468.63 766.494 1471.83 766.742 1474.35 768.169C1478.29 770.393 1481.63 771.335 1484.87 766.53C1485.38 767.722 1485.88 768.306 1485.81 768.805C1484.7 776.403 1491.72 778.568 1495.79 781.233C1500.08 784.042 1503.61 787.285 1506.73 790.987C1508.55 793.151 1509.37 794.594 1512.27 792.71C1513.95 791.617 1515.77 790.981 1517.4 793.986C1518.48 795.962 1520.82 797.39 1524.25 797.92C1528.17 798.526 1531.41 803.296 1535.03 806.142C1536.79 807.522 1538.76 808.638 1541.18 810.238C1541.18 812.234 1540.87 815.359 1541.25 818.399C1541.82 823.016 1539.36 825.117 1535.48 824.811C1531.08 824.464 1526.75 823.031 1522.42 821.95C1520.14 821.379 1517.88 820.645 1515.68 819.803C1514.4 819.313 1512.36 818.637 1512.19 817.747C1510.93 811.347 1505.78 809.167 1501.06 806.098C1498.42 804.39 1496.96 800.912 1494.86 798.322C1494.1 797.389 1493.03 796.709 1492.08 795.932C1490.72 794.806 1489.47 793.4 1487.92 792.659C1486.22 791.849 1483.5 790.647 1482.48 791.375C1477.82 794.722 1474.96 794.881 1471 790.16C1467.61 786.117 1464.19 782.58 1458.58 781.964C1457.68 781.865 1456.89 780.62 1456.09 779.865C1455.07 778.91 1454.1 777.915 1452.26 776.103C1452.78 779.937 1453.1 782.306 1453.47 785.052C1460.05 784.974 1463.32 788.737 1464.13 795.078C1464.19 795.548 1464.39 796.271 1464.71 796.398C1469.75 798.368 1471.32 803.627 1474.88 806.993C1476.15 808.203 1477.29 809.564 1478.48 810.856C1478.1 811.579 1477.71 812.301 1477.33 813.023C1470.88 811.241 1464.43 809.459 1457.45 807.53C1455.36 808.478 1457.98 814.834 1452.38 813.883C1453.23 811.127 1453.92 808.87 1454.78 806.047C1450.45 806.437 1448.55 804.726 1447.29 801.212C1446.25 798.315 1439.36 797.831 1436.11 800.11C1436.85 800.758 1437.96 802.033 1438.21 801.884C1440.66 800.409 1442.76 799.813 1443.78 803.323C1444.39 805.432 1444.67 807.636 1445.24 809.759C1446.39 814.018 1446.48 819.144 1452.86 819.341C1453.37 819.357 1454.01 820.306 1454.3 820.952C1454.7 821.838 1454.71 822.897 1455.08 823.801C1457.02 828.504 1457.94 832.943 1451.77 835.521C1454.84 837.729 1457.32 839.516 1459.8 841.304C1460.2 841.595 1460.92 841.851 1460.96 842.189C1461.9 849.606 1470.2 853.276 1470.27 861.454C1470.3 866.053 1472.67 870.633 1473.99 875.611C1471.3 876 1468.6 876 1465.6 875.688C1464.81 872.185 1463.97 871.838 1457.43 872.219C1457.29 873.452 1457.15 874.726 1457 876C1446.65 876 1436.29 876 1425.64 875.69C1427.27 871.379 1423.68 870.516 1421.36 868.208C1420.12 871.073 1419.06 873.536 1418 876C1416.93 876 1415.87 876 1414.41 875.643C1413.19 872.56 1412.35 869.835 1411.26 866.302C1409.12 869.57 1407.64 871.83 1406.15 874.086C1405.03 873.333 1403.69 872.779 1402.88 871.79C1402.14 870.88 1401.98 869.502 1401.54 868.287C1400.23 869.673 1399.12 870.844 1397.89 871.681C1397.67 870.583 1397.4 869.792 1397.51 869.057C1398.14 864.726 1393.91 860.729 1389.09 861.628C1392.96 853.399 1382.93 855.859 1381.71 851.928C1380.06 852.435 1378.41 852.938 1376.69 853.463C1377.35 856.386 1378.15 858.505 1382.12 857.235C1383.34 856.846 1385.48 858.651 1386.92 859.804C1388.6 861.154 1389.86 863.017 1391.5 864.426C1394.41 866.918 1395.75 869.421 1392.6 873.395C1394.43 872.906 1396.26 872.418 1398.13 872.272C1399.46 873.744 1400.73 874.872 1402 876C1345.31 876 1288.63 876 1231.47 876C1229.49 871.58 1232.6 868.98 1234.86 866C1236.7 863.584 1238.48 861.112 1240.09 858.541C1242.11 855.329 1243.72 851.854 1245.85 848.733C1250.95 841.283 1256.25 833.967 1261.49 826.616C1262.26 825.541 1263.28 824.641 1264 823.537C1267.87 817.567 1271.84 811.652 1275.46 805.535C1278.48 800.453 1280.86 794.994 1283.91 789.936C1286.29 785.991 1289.26 782.406 1291.97 778.657C1292.36 778.119 1293.1 777.501 1293.03 777.019C1291.83 769.008 1299.29 766.209 1302.57 760.912C1303.57 759.292 1303.7 757.124 1304.73 755.528C1308.7 749.378 1313.17 743.527 1316.82 737.201C1318.14 734.908 1317.69 731.596 1318.36 728.492C1322.31 730.921 1326.82 732.959 1329.39 736.432C1334.27 742.996 1340.63 746.936 1347.84 749.971C1349.36 750.609 1351.34 750.528 1352.53 751.49C1354.09 752.754 1355.08 754.723 1356.02 755.984C1358.1 754.504 1359.41 753.906 1360.22 752.9C1360.95 751.979 1361.68 749.716 1361.47 749.585C1358.53 747.781 1355.77 743.488 1353.96 743.274C1347.17 742.475 1346.56 738.094 1345.78 733.399C1344.11 732.668 1342.39 732.193 1340.98 731.248C1335.59 727.624 1330.3 723.849 1324.97 720.131ZM1412.24 816.482C1411.72 816.374 1411.2 816.266 1410.69 816.157C1411.08 816.376 1411.46 816.594 1412.24 816.482Z" fill="white"/>
<path d="M975.469 876C977.872 871.858 980.44 867.455 983.692 863.637C988.032 858.542 992.905 853.902 997.542 849.06C997.77 848.822 998.043 848.547 998.11 848.247C999.996 839.777 1007.88 836.396 1012.87 830.561C1016.45 826.38 1018.66 821.057 1021.91 816.555C1029.17 806.498 1036.81 796.714 1044.07 786.662C1047.46 781.974 1050.34 776.914 1053.47 772.043C1053.82 771.501 1054.29 770.83 1054.84 770.655C1062.09 768.35 1064.67 762.278 1066.89 755.894C1066.94 755.736 1066.97 755.555 1067.07 755.429C1072.01 748.967 1076.95 742.504 1081.92 736.058C1082.92 734.763 1084.18 733.641 1085.02 732.256C1089.47 724.886 1093.89 717.487 1098.21 710.04C1100.93 705.369 1103.28 700.474 1106.16 695.917C1107.84 693.265 1110.26 691.081 1112.35 688.689C1113.11 687.826 1114.34 687.071 1114.55 686.093C1116.98 674.973 1127.14 668.376 1130.81 657.8C1132.79 652.111 1137.76 647.536 1140.69 642.084C1143.59 636.677 1145.44 630.717 1148.08 625.158C1150.11 620.909 1152.64 616.904 1154.97 612.802C1155.29 612.231 1156.06 611.73 1156.06 611.189C1156.18 602.625 1164.81 599.279 1167.83 592.144C1170.12 594.087 1172.12 596.228 1174.1 598.354C1177.19 595.182 1179.33 595.704 1181.25 600.497C1182.07 602.558 1183.81 604.253 1185.19 606.198C1186.46 604.018 1187.53 602.166 1189.43 598.881C1191.21 601.733 1192.56 603.989 1194 606.181C1196.96 610.672 1196.81 616.636 1200.97 620.594C1202.1 621.667 1203.1 623.222 1203.43 624.717C1203.93 626.929 1204.01 628.503 1207.17 628.469C1208.43 628.456 1209.71 631.486 1211.18 633.743C1211.97 634.933 1212.57 635.511 1213.17 636.088C1214.92 638.024 1216.66 639.96 1218.69 642.082C1218.23 647.418 1218.36 652.905 1216.54 657.643C1213.53 665.45 1210.51 673.846 1205.19 679.998C1199.89 686.13 1198.97 693.817 1194.58 700.022C1188.02 709.279 1181.84 718.81 1175.62 728.302C1174.75 729.63 1174.26 731.369 1174.11 732.965C1173.79 736.334 1172.58 738.501 1169.47 740.515C1166.81 742.238 1165.29 745.838 1163.47 748.735C1158.47 756.675 1153.62 764.7 1148.64 772.649C1147.59 774.319 1146.2 775.767 1145.08 777.393C1138.82 786.467 1132.16 795.304 1126.46 804.719C1118.88 817.223 1109.47 828.22 1100.19 839.376C1094.96 845.658 1088.89 851.537 1085.07 858.606C1081.45 865.297 1076.79 870.546 1071.16 875.709C1039.31 876 1007.63 876 975.469 876Z" fill="white"/>
<path d="M1402.46 876C1400.73 874.872 1399.46 873.744 1398.12 872.294C1398.05 871.972 1398.01 872.014 1398.01 872.014C1399.12 870.844 1400.23 869.673 1401.54 868.287C1401.98 869.502 1402.14 870.88 1402.88 871.79C1403.69 872.779 1405.03 873.333 1406.15 874.086C1407.64 871.83 1409.12 869.57 1411.26 866.302C1412.35 869.835 1413.19 872.56 1414.01 875.643C1410.31 876 1406.61 876 1402.46 876Z" fill="white"/>
<path d="M1418.44 876C1419.06 873.536 1420.12 871.073 1421.36 868.208C1423.68 870.516 1427.27 871.379 1425.17 875.69C1422.96 876 1420.92 876 1418.44 876Z" fill="white"/>
<path d="M1457.44 876C1457.15 874.726 1457.29 873.452 1457.43 872.219C1463.97 871.838 1464.81 872.185 1465.15 875.688C1462.63 876 1460.26 876 1457.44 876Z" fill="white"/>
<path d="M1264.2 609.986C1265.52 606.376 1266.8 603.124 1268.31 599.295C1268.62 599.274 1270.02 599.18 1271.68 599.068C1271.68 601.178 1271.68 603.101 1271.68 605.301C1273.53 605.973 1275.37 606.637 1277.85 607.535C1275.62 614.075 1282.59 613.503 1285.48 616.238C1295.25 625.5 1305.16 634.624 1314.43 644.403C1315.31 645.333 1315.98 646.599 1316.36 647.828C1316.67 648.795 1316.76 650.222 1316.25 650.923C1315.88 651.423 1314.34 651.096 1313.32 651.068C1311.93 651.031 1310.4 650.506 1309.19 650.929C1304.9 652.424 1302.08 649.795 1298.98 647.775C1295.78 645.687 1292.5 643.713 1289.35 641.534C1288.73 641.098 1288.58 639.961 1287.94 638.539C1286.7 640.348 1285.86 641.583 1284.2 644.001C1283.69 641.313 1282.68 639.409 1283.22 638.23C1285.65 633.005 1283.84 630.426 1278.66 628.998C1274.62 627.884 1275.42 625.691 1277.68 623.649C1272.69 619.807 1266.2 617.414 1264.2 609.986Z" fill="white"/>
<path d="M1218.77 556.324C1222.24 559.989 1225.31 563.628 1228.77 566.861C1232.18 570.056 1231.88 573.93 1227.77 576.193C1226.25 577.03 1224.96 578.294 1223.06 579.747C1222.79 577.78 1223.09 575.469 1222.08 574.358C1221.4 573.615 1218.85 574.576 1215.92 574.917C1213.6 572.314 1211.9 568.027 1210.68 563.162C1210.03 560.524 1206.88 558.589 1205.26 556.081C1203.94 554.051 1202.68 551.685 1202.47 549.372C1202.38 548.387 1205.32 546.014 1206.41 546.271C1208.79 546.834 1211.22 548.329 1212.98 550.095C1214.5 551.618 1215.01 554.103 1216.2 556.019C1216.43 556.393 1217.73 556.104 1218.77 556.324Z" fill="white"/>
<path d="M1130.03 528.973C1133.54 527.914 1132.43 530.877 1133.07 532.399C1134.2 535.107 1135.37 537.945 1138.31 536.002C1140.72 538.023 1143.23 539.635 1145.09 541.797C1147.64 544.741 1149.27 548.548 1152.05 551.19C1156.99 555.886 1159.55 564.015 1168.85 563.041C1168.1 571.123 1176.38 571.6 1179.44 576.456C1180.29 577.803 1180.86 579.322 1181.56 580.762C1180.33 580.837 1178.77 581.432 1177.91 580.9C1172.59 577.599 1166.98 575.057 1163.53 568.912C1161.03 564.479 1155.8 561.641 1152.03 557.851C1149.68 555.488 1148.14 551.989 1144.7 553.406C1143.25 551.354 1141.93 549.6 1140.75 547.752C1140.37 547.147 1140.1 546.236 1140.25 545.568C1140.84 542.873 1139.9 542.16 1137.16 541.728C1134.67 541.338 1132.18 539.79 1130.12 538.197C1126.77 535.604 1128.35 532.529 1130.05 529.284C1130.08 528.924 1130.03 528.973 1130.03 528.973Z" fill="white"/>
<path d="M1381.8 719.428C1379.83 721.196 1378.03 722.665 1375.84 724.451C1375.17 722.707 1373.91 720.751 1373.75 718.706C1373.41 714.6 1371.5 713.078 1367.48 712.889C1363.88 712.718 1359.25 714.89 1357.24 709.554C1355.91 710.301 1354.21 710.779 1353.36 711.897C1352.84 712.573 1353.63 714.242 1353.89 715.825C1350.06 715.606 1348.44 714.189 1349.99 710.818C1350.92 708.79 1352.37 706.997 1353.77 704.798C1357.57 708.362 1361.76 708.239 1366.63 706.89C1373.11 705.099 1378.1 710.919 1385.21 711.151C1383.97 714.213 1382.97 716.671 1381.8 719.428Z" fill="white"/>
<path d="M1257.37 588.558C1258.33 587.676 1259.09 587.076 1259.84 586.475C1260.24 586.549 1260.65 586.622 1261.05 586.695C1260.78 588.1 1260.52 589.506 1260.25 590.911C1259.93 590.851 1259.61 590.79 1259.29 590.73C1259.84 592.183 1260.64 593.605 1260.83 595.104C1260.9 595.649 1259.53 596.377 1258.81 597.022C1255.86 593.667 1252.55 597.054 1249.52 596.475C1247.24 596.037 1244.53 595.229 1243.07 593.621C1240.28 590.544 1238.18 586.826 1235.96 583.27C1235.46 582.481 1235.66 581.264 1235.54 580.244C1236.84 580.098 1238.37 579.45 1239.42 579.9C1242.68 581.294 1245.77 583.105 1249.45 585.027C1249.34 583.332 1249.26 581.94 1249.15 580.195C1251.1 581.373 1252.77 582.374 1254.11 583.182C1252.99 584.246 1251.85 585.33 1250.8 586.336C1254.29 591.049 1255.1 591.31 1257.37 588.558Z" fill="white"/>
<path d="M1102.28 508.775C1101.92 510.007 1101.65 510.899 1101.03 512.938C1097.3 507.236 1094.54 501.985 1090.75 497.624C1088.84 495.428 1088.26 490.41 1083.24 491.942C1082.89 492.048 1082.03 491.639 1081.98 491.376C1080.99 485.113 1072.93 485.167 1071.53 479.048C1072.46 478.48 1073.69 477.725 1075.61 476.544C1078.05 479.48 1080.28 482.566 1082.92 485.251C1087.58 489.99 1092.75 494.247 1097.19 499.178C1099.49 501.743 1100.68 505.317 1102.28 508.775Z" fill="white"/>
<path d="M1130.1 528.895C1128.03 529.519 1125.94 530.172 1123.85 530.825C1123.32 527.12 1115.52 529.484 1117.58 523.3C1117.79 522.675 1115.38 520.933 1113.97 520.072C1112.14 518.959 1108.73 518.564 1108.39 517.237C1107.38 513.391 1107.5 509.236 1107.4 505.197C1107.39 504.873 1109.58 504.001 1109.81 504.246C1110.73 505.258 1111.81 506.584 1111.85 507.829C1111.92 509.884 1111.24 511.966 1112.05 513.104C1118.02 518.161 1124 523.218 1130 528.624C1130.03 528.973 1130.08 528.924 1130.1 528.895Z" fill="white"/>
<path d="M1184.34 527.281C1185.3 525.396 1186.04 523.821 1187.19 521.367C1189.59 525.052 1191.8 528.432 1194.25 532.203C1192.25 535.3 1197.59 542.857 1187.63 543.646C1186.5 538.477 1185.31 533.034 1184.34 527.281Z" fill="white"/>
<path d="M1200.7 564.58C1202.89 568.644 1204.68 572.361 1199.95 575.812C1198.04 572.476 1196.14 569.15 1193.44 564.443C1193.89 560.638 1194.57 554.94 1195.25 549.243C1195.82 549.243 1196.39 549.243 1196.97 549.243C1198.86 553.244 1202.52 556.771 1199.63 562.061C1199.39 562.494 1200.2 563.503 1200.7 564.58Z" fill="white"/>
<path d="M1171.7 523.916C1170.65 522.094 1169.91 520.44 1169.12 518.674C1172.79 515.549 1175.59 518.74 1178.3 520.07C1179.82 520.816 1181.01 522.908 1181.65 524.65C1182.5 526.981 1181.91 529.129 1178.7 528.779C1176.3 528.516 1173.93 527.919 1171.45 527.452C1171.64 526.285 1171.83 525.184 1171.7 523.916Z" fill="white"/>
<path d="M825.457 130.97C824.279 131.03 823.49 131.011 822.305 130.987C821.656 130.503 821.401 130.025 821.211 129.087C821.524 128.158 821.774 127.689 822.023 127.22C821.729 126.57 821.392 125.346 821.147 125.364C819.666 125.473 818.205 125.866 816.316 126.249C815.867 122.652 815.49 119.627 814.965 115.427C817.327 118.571 818.615 120.286 819.441 121.387C821.351 119.787 822.648 118.7 823.555 117.94C824.615 120.806 825.604 122.603 825.897 124.506C826.216 126.583 825.89 128.759 825.457 130.97Z" fill="white"/>
<path d="M972.005 283.705C972.003 280.788 972.003 278.313 972.003 274.983C973.802 275.153 976.492 274.92 976.687 275.511C977.487 277.933 978.205 280.771 977.636 283.138C977.16 285.115 974.848 286.65 973.349 288.381C972.978 288.107 972.606 287.834 972.235 287.56C972.158 286.423 972.082 285.285 972.005 283.705Z" fill="white"/>
<path d="M1445.63 745.474C1444.3 745.642 1442.44 745.881 1442.06 745.245C1440.5 742.583 1439.29 739.698 1438.19 736.799C1437.95 736.148 1438.49 734.663 1439.07 734.382C1439.7 734.075 1441.36 734.459 1441.6 734.989C1443.14 738.304 1444.42 741.744 1445.63 745.474Z" fill="white"/>
<path d="M1528.09 748.085C1529.12 747.384 1529.85 746.822 1530.59 746.26C1530.99 746.573 1531.38 746.886 1531.78 747.199C1529.61 750.205 1527.43 753.211 1524.92 756.68C1523.59 754.018 1522.26 751.357 1521.07 748.977C1523.75 748.677 1525.78 748.451 1528.09 748.085Z" fill="white"/>
<path d="M1150.98 522.889C1150.32 520.855 1149.67 519.204 1148.96 517.421C1156 517.149 1156 517.149 1155.27 526.309C1153.67 525.174 1152.33 524.223 1150.98 522.889Z" fill="white"/>
<path d="M1256.9 624.225C1256.42 622.112 1256.17 620.276 1255.86 617.908C1262.33 618.929 1260.52 624.344 1263.18 626.774C1262.82 627.204 1262.47 627.634 1262.11 628.064C1260.45 626.877 1258.79 625.69 1256.9 624.225Z" fill="white"/>
<path d="M1028.46 424.441C1027.92 422.255 1027.62 420.381 1027.33 418.507C1027.62 418.304 1027.91 418.1 1028.21 417.897C1030.34 420.709 1032.47 423.521 1034.61 426.333C1035.19 426.275 1035.77 426.216 1036.35 426.158C1035.38 427.396 1034.41 428.633 1033.45 429.87C1032.61 428.676 1031.86 427.41 1030.91 426.315C1030.33 425.656 1029.45 425.264 1028.46 424.441Z" fill="white"/>
<path d="M1333.39 669.495C1332.45 667.46 1331.67 665.757 1330.89 664.055C1331.32 663.596 1331.75 663.137 1332.17 662.678C1334.12 664.289 1336.3 665.706 1337.9 667.609C1338.49 668.318 1337.74 670.16 1337.6 671.485C1336.26 670.933 1334.91 670.381 1333.39 669.495Z" fill="white"/>
<path d="M1176.09 561.844C1176.73 559.939 1177.42 558.409 1178.11 556.878C1178.79 556.857 1179.47 556.835 1180.15 556.813C1180.88 559.694 1181.61 562.574 1182.35 565.455C1181.75 565.82 1181.14 566.185 1180.54 566.549C1179.07 565.106 1177.6 563.663 1176.09 561.844Z" fill="white"/>
<path d="M1401.4 795.772C1401.37 793.789 1401.17 792.083 1400.97 790.377C1401.39 790.171 1401.8 789.965 1402.21 789.758C1403.75 790.82 1405.29 791.882 1406.92 793.009C1406.17 794.751 1405.78 796.423 1404.81 797.604C1404.19 798.352 1402.68 798.368 1401.58 798.712C1401.46 797.825 1401.35 796.937 1401.4 795.772Z" fill="white"/>
<path d="M831.078 144.591C830.007 145.648 828.907 146.338 827.126 147.456C826.354 145.418 825.691 143.67 825.015 141.565C825.612 140.999 826.208 140.708 826.836 140.596C828.163 140.361 829.506 140.219 830.842 140.039C830.911 141.434 830.981 142.829 831.078 144.591Z" fill="white"/>
<path d="M1108 533.075C1107.68 530.951 1107.34 528.797 1106.87 525.725C1107.29 525.336 1108.55 524.162 1109.3 523.467C1110.19 525.101 1111.06 526.381 1111.61 527.785C1112.11 529.058 1112.26 530.465 1112.57 531.813C1111.23 532.031 1109.9 532.249 1108.25 532.745C1107.93 533.023 1107.99 533.044 1108 533.075Z" fill="white"/>
<path d="M1025.78 399.968C1026.6 399.83 1027.2 399.965 1027.79 400.099C1025.48 405.189 1029.92 402.542 1032.06 403.547C1031.73 404.795 1031.36 406.161 1030.99 407.527C1029.22 407.044 1026.9 407.082 1025.82 405.943C1024.52 404.58 1023.19 402.234 1025.78 399.968Z" fill="white"/>
<path d="M1543.7 815.32C1543.81 813.875 1544.24 811.758 1544.37 811.776C1546.29 812.041 1548.17 812.592 1550.03 813.066C1548.42 818.95 1547.53 819.237 1543.7 815.32Z" fill="white"/>
<path d="M1194.79 581.649C1194.43 581.99 1194 581.986 1193.25 581.98C1189.41 579.319 1188.34 575.816 1190.21 571.332C1190.42 571.332 1191.49 571.332 1191.13 571.332C1192.49 575.106 1193.6 578.205 1194.79 581.649Z" fill="white"/>
<path d="M1523.31 768.265C1522.49 766.235 1521.81 764.542 1521.12 762.848C1521.42 762.538 1521.72 762.229 1522.02 761.92C1523.94 763.796 1525.93 765.611 1527.69 767.627C1527.9 767.876 1526.85 769.908 1526.47 769.881C1525.43 769.805 1524.44 769.073 1523.31 768.265Z" fill="white"/>
<path d="M964.371 271.021C963.139 270.482 962.245 269.928 961.225 269.08C962.632 267.827 964.609 265.772 965.595 266.17C967.038 266.753 967.771 269.094 969.527 271.792C966.967 271.374 965.838 271.19 964.371 271.021Z" fill="white"/>
<path d="M1456.07 736.958C1456.83 738.894 1457.5 740.476 1458.18 742.059C1453.18 740.923 1451.17 738.588 1454.03 733.668C1454.84 734.898 1455.41 735.752 1456.07 736.958Z" fill="white"/>
<path d="M1413.72 800.101C1412.24 798.72 1410.93 797.077 1409.53 795.336C1411.04 793.087 1411.04 793.087 1416.08 796.196C1415.35 797.407 1414.62 798.623 1413.72 800.101Z" fill="white"/>
<path d="M1204.75 539.597C1204.36 537.961 1204.09 536.669 1203.83 535.377C1204.43 535.191 1205.03 535.005 1205.63 534.819C1206.78 537.559 1207.93 540.299 1209.07 543.04C1208.49 543.408 1207.9 543.777 1207.31 544.146C1206.5 542.744 1205.69 541.343 1204.75 539.597Z" fill="white"/>
<path d="M1213.53 636.046C1212.57 635.511 1211.97 634.933 1211.21 634.086C1213.11 631.068 1215.56 630.109 1219.9 632.302C1217.4 633.847 1215.64 634.926 1213.53 636.046Z" fill="white"/>
<path d="M1292.69 604.349C1291.92 602.62 1291.36 601.19 1290.8 599.761C1291.29 599.46 1291.78 599.16 1292.28 598.859C1294.01 601.091 1295.75 603.323 1297.48 605.555C1296.99 606.051 1296.5 606.547 1296.01 607.043C1294.97 606.245 1293.94 605.446 1292.69 604.349Z" fill="white"/>
<path d="M1549.4 788.356C1549.95 788.975 1550.43 789.49 1550.34 789.846C1549.87 791.579 1549.24 793.269 1548.67 794.975C1547.86 794.584 1547.05 794.194 1546.24 793.803C1547.19 791.928 1548.13 790.053 1549.4 788.356Z" fill="white"/>
<path d="M1288.5 610.074C1288.3 607.971 1288.3 606.198 1288.3 604.425C1288.75 604.256 1289.21 604.086 1289.67 603.917C1290.57 606.282 1291.47 608.648 1292.36 611.014C1291.14 610.811 1289.92 610.607 1288.5 610.074Z" fill="white"/>
<path d="M1087.85 475.3C1088.09 477.296 1088.38 478.933 1088.68 480.57C1088.05 480.759 1087.42 480.948 1086.8 481.137C1085.99 478.635 1085.19 476.133 1084.38 473.631C1085.56 474.068 1086.73 474.505 1087.85 475.3Z" fill="white"/>
<path d="M1345.01 711.667C1344.78 712.916 1344.56 713.757 1344.06 715.608C1342.93 711.641 1342.1 708.762 1341.07 705.143C1345.92 705.316 1344.42 709.013 1345.01 711.667Z" fill="white"/>
<path d="M1433.2 778.606C1432.71 779.937 1432.12 780.917 1431.53 781.898C1430.78 780.958 1429.35 779.96 1429.42 779.091C1429.54 777.697 1430.66 776.389 1432.04 773.708C1432.64 776.248 1432.87 777.252 1433.2 778.606Z" fill="white"/>
<path d="M1008.5 351.592C1005.36 352.115 1004.54 350.473 1005.2 348.22C1005.46 347.349 1007 346.857 1007.96 346.193C1008.25 347.928 1008.54 349.664 1008.5 351.592Z" fill="white"/>
<path d="M1054.94 450.634C1053.27 452.211 1051.49 453.074 1050.03 450.036C1050.42 448.255 1050.98 446.736 1051.79 444.536C1052.96 446.809 1053.87 448.564 1054.94 450.634Z" fill="white"/>
<path d="M849.197 125.585C847.454 124.992 845.804 124.04 844.079 122.768C849.445 121.623 849.584 121.696 849.197 125.585Z" fill="white"/>
<path d="M815.999 136.635C815.303 137.167 814.579 137.395 813.855 137.624C814.079 136.816 814.303 136.008 814.775 135.053C815.339 135.381 815.655 135.856 815.999 136.635Z" fill="white"/>
<path d="M1324.76 710.72C1323.87 710.487 1322.91 709.955 1322.02 709.187C1322.96 709.441 1323.83 709.932 1324.76 710.72Z" fill="white"/>
<path d="M835.554 135.969C835.3 136.238 834.744 136.567 833.924 136.88C834.192 136.586 834.722 136.307 835.554 135.969Z" fill="white"/>
<path d="M821.707 127.146C821.774 127.689 821.524 128.158 821.099 128.828C821.079 128.376 821.235 127.723 821.707 127.146Z" fill="white"/>
<path d="M830.686 122.264C830.731 122.952 830.458 123.687 830.047 124.683C830.063 124.066 830.216 123.189 830.686 122.264Z" fill="white"/>
<path d="M833.864 120.667C833.505 121.207 832.98 121.494 832.166 121.865C832.485 121.438 833.092 120.925 833.864 120.667Z" fill="white"/>
<path d="M830.008 125.477C830.265 125.94 830.514 126.737 830.76 127.855C830.504 127.387 830.252 126.599 830.008 125.477Z" fill="white"/>
<path d="M1005.94 403.777C1005.69 403.538 1005.53 403.119 1005.36 402.701C1005.58 402.773 1005.8 402.845 1006.07 403.069C1006.12 403.221 1006.02 403.598 1005.94 403.777Z" fill="white"/>
<path d="M840.889 119.705C840.28 119.978 839.498 119.983 838.324 119.98C838.86 119.794 839.788 119.616 840.889 119.705Z" fill="white"/>
<path d="M830.974 128.559C831.657 128.405 832.516 128.56 833.653 128.883C833.004 128.99 832.076 128.929 830.974 128.559Z" fill="white"/>
<path d="M835.572 146.019C835.112 146.055 834.291 146.148 833.245 146.094C833.75 145.989 834.481 146.033 835.572 146.019Z" fill="white"/>
<path d="M833.121 140.371C833.433 140.544 833.645 141.052 833.93 141.828C833.676 141.632 833.349 141.169 833.121 140.371Z" fill="white"/>
<path d="M1010.1 402.618C1009.81 402.427 1009.53 401.893 1009.18 401.058C1009.45 401.264 1009.77 401.77 1010.1 402.618Z" fill="white"/>
<path d="M812.97 130.73C812.669 131.097 812.258 131.19 811.478 131.116C811.694 130.785 812.277 130.62 812.97 130.73Z" fill="white"/>
<path d="M1052.95 457.057C1054.49 460.385 1050.78 460.971 1049.84 463.338C1046.93 460.79 1044.05 457.903 1041.17 455.017C1041.37 454.581 1041.58 454.144 1041.78 453.708C1044.09 454.459 1046.39 455.21 1049.01 456.127C1049.31 456.292 1049.49 456.293 1049.49 456.293C1050.04 456.489 1050.59 456.685 1051.82 456.932C1052.5 456.984 1052.97 457.098 1052.97 457.098C1052.97 457.098 1052.97 457.038 1052.95 457.057Z" fill="white"/>
<path d="M1049.48 456.26C1049.49 456.293 1049.31 456.292 1049.34 456.245C1049.37 456.199 1049.48 456.227 1049.48 456.26Z" fill="white"/>
<path d="M1052.88 457.009C1052.97 457.098 1052.5 456.984 1052.26 456.907C1052.29 456.745 1052.54 456.776 1052.88 457.009Z" fill="white"/>
<path d="M1324.69 719.973C1330.3 723.849 1335.59 727.624 1340.98 731.248C1342.39 732.193 1344.11 732.668 1345.78 733.399C1346.56 738.094 1347.17 742.475 1353.96 743.274C1355.77 743.488 1358.53 747.781 1361.47 749.585C1361.68 749.716 1360.95 751.979 1360.22 752.9C1359.41 753.906 1358.1 754.504 1356.02 755.984C1355.08 754.723 1354.09 752.754 1352.53 751.49C1351.34 750.528 1349.36 750.609 1347.84 749.971C1340.63 746.936 1334.27 742.996 1329.39 736.432C1326.82 732.959 1322.31 730.921 1318.37 728.08C1318.08 727.924 1318.06 727.967 1318.01 727.615C1316.66 726.473 1315.35 725.685 1314.05 724.897C1311.79 722.632 1310.49 720.241 1310.72 716.693C1310.87 714.398 1309.13 711.983 1307.73 708.267C1310 710.279 1311.24 711.373 1312.89 712.835C1313.42 711.42 1313.82 710.356 1313.98 709.933C1315.9 710.799 1317.85 711.675 1319.94 713.101C1321.05 714.799 1322.01 715.945 1322.96 717.091C1323.45 717.999 1323.93 718.907 1324.69 719.973Z" fill="white"/>
<path d="M1269.71 673.67C1270.93 677.1 1273.25 677.357 1276.74 674.198C1284.7 682.258 1292.67 690.333 1300.28 698.042C1302.61 701.521 1304.72 704.681 1307.08 708.215C1301.44 708.169 1284.64 693.743 1283.18 688.151C1279.49 689.721 1277.59 688.272 1275.7 684.765C1274.82 683.112 1274.35 679.218 1269.99 679.94C1268.63 680.165 1266.63 676.519 1264.65 674.351C1264.28 674.562 1263.34 675.09 1262.35 675.65C1261.74 672.659 1261.48 669.778 1260.53 667.141C1259.57 664.441 1258.4 660.985 1254.18 664.756C1254.18 662.379 1254.48 660.553 1254.1 658.885C1253.65 656.922 1244.78 652.289 1243.2 653.39C1242.02 654.217 1241.85 656.5 1242.32 658.591C1243.04 657.831 1243.75 657.071 1244.92 655.824C1247.22 658.921 1249.35 661.788 1251.47 664.655C1251.05 665.093 1250.63 665.532 1250.2 665.97C1247.7 664.635 1245.3 663.049 1242.68 662.025C1238.71 660.472 1240.55 656.823 1239.39 654.406C1237.76 651.021 1238.22 645.389 1232.11 645.211C1231.88 645.205 1231.75 641.916 1231.51 639.534C1236.19 642.997 1237.16 642.696 1238.36 638.108C1239.7 639.904 1240.9 641.704 1242.31 643.323C1243.32 644.477 1244.6 645.389 1246.35 646.929C1246.35 647.328 1246.09 649.118 1246.45 650.77C1246.64 651.595 1247.94 652.737 1248.77 652.764C1255.43 652.977 1256.74 654.398 1257.77 660.495C1258.11 662.491 1260.38 664.931 1262.35 665.728C1267.63 667.863 1267.74 667.551 1267.25 672.031C1267.22 672.273 1267.92 672.595 1268.79 673.083C1269.44 673.415 1269.57 673.543 1269.71 673.67Z" fill="white"/>
<path d="M1219.14 613.635C1212.97 609.161 1212.97 609.161 1213.58 605.255C1220.81 605.904 1220.81 605.904 1219.14 613.635Z" fill="white"/>
<path d="M1252.13 643.773C1253.46 643.44 1255.47 642.954 1255.98 643.621C1257.09 645.069 1257.44 647.106 1258.09 648.902C1257.72 649.199 1257.34 649.496 1256.97 649.793C1255.36 647.91 1253.75 646.026 1252.13 643.773Z" fill="white"/>
<path d="M1221.95 640.072C1222.92 640.579 1223.9 641.06 1224.89 641.541C1224.3 642.345 1223.79 643.229 1223.1 643.933C1222.21 644.842 1221.17 645.606 1219.43 647.075C1220.43 644.59 1221.21 642.658 1222 640.36C1222.01 639.995 1221.97 640.046 1221.95 640.072Z" fill="white"/>
<path d="M1314.11 725.247C1315.35 725.685 1316.66 726.473 1318.03 727.6C1316.79 727.158 1315.48 726.378 1314.11 725.247Z" fill="white"/>
<path d="M1322.93 716.75C1322.01 715.945 1321.05 714.799 1320.13 713.32C1321.08 714.128 1321.99 715.269 1322.93 716.75Z" fill="white"/>
<path d="M1269.11 673.093C1269.75 672.376 1270.59 671.855 1271.43 671.334C1271.7 672.038 1271.96 672.742 1272.23 673.446C1271.53 673.423 1270.84 673.399 1269.93 673.523C1269.57 673.543 1269.44 673.415 1269.11 673.093Z" fill="white"/>
<path d="M1190.97 597.022C1190.64 596.197 1190.27 595.388 1189.91 594.579C1190.18 594.463 1190.45 594.346 1190.71 594.23C1190.93 595.019 1191.16 595.809 1191.13 596.834C1190.88 597.07 1190.94 597.039 1190.97 597.022Z" fill="white"/>
<path d="M1398.07 871.951C1396.26 872.418 1394.43 872.906 1392.6 873.395C1395.75 869.421 1394.41 866.918 1391.5 864.426C1389.86 863.017 1388.6 861.154 1386.92 859.804C1385.48 858.651 1383.34 856.846 1382.12 857.235C1378.15 858.505 1377.35 856.386 1376.69 853.463C1378.41 852.938 1380.06 852.435 1381.71 851.928C1382.93 855.859 1392.96 853.399 1389.09 861.628C1393.91 860.729 1398.14 864.726 1397.51 869.057C1397.4 869.792 1397.67 870.583 1397.89 871.681C1398.01 872.014 1398.05 871.972 1398.07 871.951Z" fill="white"/>
<path d="M1412.05 816.647C1411.46 816.594 1411.08 816.376 1410.69 816.157C1411.2 816.266 1411.72 816.374 1412.05 816.647Z" fill="white"/>
</svg>
