<svg width="37" height="62" viewBox="0 0 37 62" fill="none" xmlns="http://www.w3.org/2000/svg">
<path d="M14.3093 30.8699L35.2776 10.0381C36.3808 8.93552 37 7.44404 37 5.88939C37 4.33474 36.3808 2.84325 35.2776 1.74068C34.7269 1.18912 34.0718 0.75133 33.35 0.452572C32.6282 0.153814 31.854 0 31.0721 0C30.2901 0 29.5159 0.153814 28.7941 0.452572C28.0723 0.75133 27.4172 1.18912 26.8666 1.74068L1.75208 26.6918C1.19691 27.2388 0.756253 27.8897 0.455539 28.6068C0.154824 29.3239 0 30.093 0 30.8699C0 31.6467 0.154824 32.4159 0.455539 33.133C0.756253 33.8501 1.19691 34.501 1.75208 35.048L26.8666 60.2933C27.42 60.8387 28.0764 61.2702 28.7981 61.5631C29.5198 61.8559 30.2925 62.0044 31.0721 61.9999C31.8516 62.0044 32.6244 61.8559 33.346 61.5631C34.0677 61.2702 34.7241 60.8387 35.2776 60.2933C36.3808 59.1908 37 57.6993 37 56.1446C37 54.59 36.3808 53.0985 35.2776 51.9959L14.3093 30.8699Z" fill="white" fill-opacity="0.46"/>
</svg>
