<svg width="3613" height="549" viewBox="0 0 3613 549" fill="none" xmlns="http://www.w3.org/2000/svg">
<path d="M0.032959 543.5C8.41696 504.161 16.513 466.171 24.806 427.257C29.268 427.257 33.173 427.257 37.077 427.257C130.743 427.256 224.409 427.306 318.075 427.156C325.329 427.144 332.872 426.737 339.778 424.759C358.422 419.417 370.163 394.808 362.502 376.975C360.419 372.126 355.975 367.492 351.425 364.692C344.71 360.561 337.103 357.648 329.575 355.104C270.262 335.066 210.872 315.257 151.525 295.318C146.167 293.518 140.843 291.537 135.683 289.237C102.234 274.325 82.535 248.366 77.225 212.496C70.544 167.364 76.561 123.297 93.941 81.2258C111.63 38.4098 144.712 13.6768 189.85 5.25278C203.533 2.69878 217.62 1.19178 231.528 1.14878C340.859 0.808779 450.193 0.935783 559.525 0.946783C562.442 0.946783 565.359 1.25478 569.082 1.46378C560.804 40.2438 552.691 78.2508 544.391 117.134C539.934 117.134 536.001 117.134 532.069 117.134C445.07 117.135 358.07 117.092 271.071 117.221C264.465 117.231 257.652 117.636 251.296 119.264C232.727 124.022 221.246 144.558 226.018 163.191C227.779 170.068 231.845 175.406 237.805 178.689C245.05 182.679 252.611 186.381 260.442 188.98C315.115 207.126 369.889 224.968 424.641 242.874C440.224 247.97 455.174 254.396 468.888 263.487C497.255 282.291 512.309 309.097 514.835 342.634C517.968 384.229 510.516 424.368 494.728 462.803C475.675 509.185 440.354 534.853 390.937 541.121C378.089 542.751 365.036 543.381 352.075 543.401C238.743 543.572 125.41 543.501 12.077 543.501C8.49503 543.5 4.90996 543.5 0.032959 543.5Z" fill="white"/>
<path d="M642.544 1.33301C685.577 1.33301 727.488 1.33301 770.565 1.33301C761.576 44.361 752.714 86.78 743.575 130.529C748.859 130.529 752.453 130.529 756.048 130.529C786.706 130.531 817.365 130.588 848.023 130.518C871.172 130.465 893.958 132.965 915.808 140.921C924.526 144.095 933.219 147.791 941.185 152.498C979.374 175.065 996.512 209.519 993.468 253.003C991.897 275.445 986.676 297.712 982.081 319.845C967.329 390.9 952.103 461.856 937.047 532.848C936.36 536.086 935.548 539.296 934.693 542.953C892.217 542.953 850.04 542.953 806.939 542.953C809.911 528.656 812.676 515.046 815.575 501.464C829.13 437.982 842.858 374.536 856.2 311.009C859.277 296.356 861.337 281.479 859.252 266.356C856.94 249.578 848.301 237.612 831.995 232.806C822.206 229.92 811.805 228.085 801.619 227.776C777.314 227.039 752.973 227.474 728.647 227.486C727.028 227.487 725.409 227.909 723.123 228.228C700.732 333.015 678.352 437.754 655.881 542.916C613.104 542.916 570.978 542.916 527.757 542.916C566.126 361.881 604.334 181.612 642.544 1.33301Z" fill="white"/>
<path d="M1314.68 281.825C1317.92 271.087 1320 261.385 1319.21 251.258C1318.31 239.727 1312.38 231.599 1301.37 228.458C1294.12 226.39 1286.33 225.382 1278.77 225.355C1214.45 225.12 1150.12 225.218 1085.8 225.217C1081.85 225.217 1077.9 225.217 1072.85 225.217C1079.66 193.259 1086.23 162.439 1092.91 131.079C1096.27 130.879 1099.19 130.554 1102.11 130.553C1183.1 130.528 1264.09 130.358 1345.08 130.735C1356.94 130.79 1369.12 132.223 1380.6 135.18C1420.19 145.381 1445.66 176.994 1449.11 217.866C1451.03 240.451 1447.27 262.316 1442.62 284.215C1429.99 343.819 1417.64 403.482 1404.97 463.077C1403.18 471.509 1400.72 479.883 1397.69 487.956C1384.88 522.14 1359.42 539.625 1323.62 542.886C1317.33 543.459 1310.97 543.471 1304.64 543.475C1236.98 543.514 1169.32 543.638 1101.67 543.36C1090.75 543.315 1079.52 542.716 1068.98 540.138C1034.21 531.633 1013.45 508.546 1005.26 474.267C1002.65 463.354 1001.37 451.876 1001.31 440.648C1001.18 413.903 1004.28 387.486 1012.75 361.893C1028.78 313.436 1063.14 288.323 1113.04 283.198C1122.97 282.179 1133 281.906 1142.99 281.883C1195.98 281.759 1248.97 281.825 1301.97 281.825C1305.93 281.825 1309.9 281.825 1314.68 281.825ZM1295.33 374.228C1291.59 373.986 1288.98 373.672 1286.36 373.67C1250.1 373.641 1213.84 373.617 1177.58 373.703C1172.94 373.714 1168.29 374.246 1163.67 374.719C1152.81 375.83 1145.12 381.51 1140.47 391.288C1134.34 404.158 1131.76 417.815 1132.54 431.976C1133.22 444.364 1139.7 451.159 1152.18 451.28C1188.44 451.632 1224.7 451.375 1260.96 451.349C1261.62 451.349 1262.28 451.26 1262.95 451.192C1271.26 450.34 1277.35 446.174 1280.69 438.536C1282.41 434.605 1283.72 430.426 1284.65 426.233C1287.65 412.604 1290.41 398.919 1293.23 385.249C1293.95 381.777 1294.56 378.283 1295.33 374.228Z" fill="white"/>
<path d="M2461.3 125.587C2494.13 125.907 2529.05 127.131 2563.06 136.778C2567.54 138.048 2571.99 139.437 2576.38 140.978C2624.91 158 2652.86 192.201 2661.16 242.727C2667.91 283.749 2665.12 324.496 2655.93 364.723C2650.98 386.396 2644.87 407.957 2637.31 428.852C2613.98 493.318 2567.19 530.086 2499.98 540.786C2441.77 550.053 2383.26 551.723 2324.87 542.802C2308.89 540.36 2292.92 535.862 2277.8 530.064C2234.78 513.564 2209.78 481.522 2201.02 436.538C2195.42 407.792 2195.71 378.848 2199.33 349.984C2203.64 315.57 2210.77 281.72 2222.9 249.091C2224.41 245.037 2226.03 241.022 2227.68 237.025C2250.9 180.939 2292.6 147.483 2351.81 135.114C2387.24 127.714 2423.14 126.481 2461.3 125.587ZM2533.24 290.991C2533.24 286.66 2533.39 282.324 2533.22 278C2532.06 248.956 2519.25 233.078 2490.98 226.556C2467.26 221.083 2443.33 222.074 2419.5 226.037C2384.99 231.777 2361.39 251.414 2348.74 283.748C2343.55 297.024 2339.36 310.801 2335.99 324.66C2330.16 348.667 2326.54 373.08 2328.56 397.903C2330.8 425.38 2344.27 440.948 2371.37 447.264C2396.09 453.025 2420.95 452.009 2445.76 447.487C2475.46 442.076 2496.68 425.585 2509.7 398.471C2512.43 392.779 2514.94 386.951 2517.1 381.019C2527.65 351.949 2532.53 321.831 2533.24 290.991Z" fill="white"/>
<path d="M2886.48 548.369C2854.33 548.103 2819.08 546.827 2784.75 537.107C2779 535.478 2773.31 533.557 2767.71 531.458C2720.95 513.944 2694.76 479.828 2686.87 431.023C2680.56 391.978 2684.24 353.323 2691.75 314.873C2697 288.045 2703.87 261.664 2714.78 236.477C2723.58 216.146 2734.77 197.355 2750.18 181.277C2772.33 158.17 2799.92 144.921 2830.49 137.111C2852.19 131.568 2874.33 128.771 2896.6 127.453C2928.2 125.584 2959.84 124.598 2991.47 127.094C3015.77 129.011 3039.7 132.728 3062.84 140.806C3114 158.666 3142.2 195.265 3148.79 248.256C3157.16 315.663 3145.18 380.355 3118.53 442.315C3095.28 496.35 3053.09 527.256 2996.01 539.074C2960.9 546.342 2925.33 547.56 2886.48 548.369ZM2945.54 222.267C2932.98 223.305 2923.33 223.864 2913.75 224.937C2877.27 229.022 2850.76 247.11 2836.47 281.397C2821.29 317.836 2813.97 355.943 2815.08 395.404C2815.88 423.499 2830.35 440.639 2857.66 447.169C2881.7 452.916 2905.93 451.97 2930.11 448.025C2963.53 442.572 2986.5 423.677 2999.15 392.577C3004.28 379.981 3008.74 366.964 3011.91 353.756C3018.39 326.807 3022.49 299.423 3019.38 271.599C3016.6 246.78 3004.48 232.829 2980.24 227.223C2968 224.393 2955.29 223.604 2945.54 222.267Z" fill="white"/>
<path d="M3552.56 544.797C3509.1 544.797 3466.2 544.797 3422.1 544.797C3422.82 540.629 3423.33 536.839 3424.13 533.106C3440.01 458.22 3456.13 383.382 3471.65 308.42C3474.13 296.468 3475 283.956 3474.81 271.731C3474.49 250.995 3463.94 238.117 3443.85 232.919C3435.55 230.772 3426.81 229.637 3418.23 229.383C3399.92 228.842 3381.58 229.052 3363.26 229.188C3346.17 229.315 3340.04 234.135 3336.4 251.113C3323.11 312.939 3310.04 374.813 3296.9 436.669C3289.56 471.179 3282.24 505.69 3274.89 540.196C3274.62 541.462 3274.15 542.686 3273.6 544.511C3230.35 544.511 3187.2 544.511 3142.92 544.511C3143.84 539.479 3144.6 534.711 3145.6 529.997C3168.12 424.195 3190.63 318.393 3213.25 212.613C3214.99 204.489 3217.05 196.379 3219.7 188.515C3232.59 150.323 3257.05 131.771 3297.37 129.214C3298.37 129.151 3299.37 129.077 3300.37 129.077C3361.67 129.108 3422.98 128.803 3484.28 129.377C3504.66 129.568 3524.59 134.092 3543.61 141.834C3594.97 162.744 3617 206.085 3611.64 256.318C3608.61 284.674 3601.92 312.685 3596.12 340.691C3582.67 405.544 3568.75 470.302 3555 535.093C3554.33 538.28 3553.42 541.42 3552.56 544.797Z" fill="white"/>
<path d="M1860.18 543.017C1817.47 543.017 1775.62 543.017 1733.78 543.017C1733.26 535.542 1842.34 16.6582 1847.6 1.44922C1889.59 1.44922 1931.77 1.44922 1974.95 1.44922C1936.67 182.039 1898.54 362.007 1860.18 543.017Z" fill="white"/>
<path d="M1790.83 131.039C1784.03 163.677 1777.47 195.186 1770.75 227.437C1765.8 227.437 1761.52 227.355 1757.25 227.451C1737.61 227.891 1717.92 227.534 1698.36 229.032C1661.04 231.893 1635.06 250.946 1620.97 285.976C1612.22 307.742 1607.89 330.638 1603 353.4C1590.08 413.586 1577.25 473.792 1564.35 533.983C1563.73 536.86 1562.84 539.677 1561.97 542.906C1519.57 542.906 1477.44 542.906 1434.35 542.906C1436.66 531.785 1438.78 521.406 1440.97 511.043C1456.92 435.85 1472.49 360.577 1489.1 285.531C1493.25 266.805 1499.51 248.304 1506.93 230.591C1528.82 178.284 1568.65 147.344 1624.22 137.284C1642.82 133.916 1661.82 131.74 1680.71 131.159C1714.99 130.105 1749.31 130.648 1783.62 130.554C1785.58 130.549 1787.54 130.81 1790.83 131.039Z" fill="white"/>
<path d="M2181.03 543.5C2175.98 543.5 2173.02 543.5 2170.05 543.5C2128.42 543.5 2086.78 543.323 2045.14 543.668C2037.91 543.728 2033.87 541.31 2030.01 535.293C2000.87 489.897 1971.36 444.739 1941.95 399.518C1929.83 380.885 1922.75 360.93 1924.64 338.256C1925.89 323.322 1929.93 309.279 1938.28 296.995C1945.54 286.304 1953.43 275.803 1962.41 266.547C2004.85 222.801 2047.79 179.534 2090.48 136.016C2093.9 132.526 2097.26 130.392 2102.52 130.416C2148.49 130.618 2194.46 130.53 2240.42 130.553C2242.04 130.554 2243.66 130.815 2247.03 131.106C2244.13 134.332 2242.18 136.74 2239.99 138.918C2182.87 195.803 2125.73 252.658 2068.62 309.544C2065.56 312.595 2062.5 315.698 2059.82 319.078C2051.68 329.347 2050.04 340.944 2054.82 352.922C2057.5 359.648 2061.36 366.021 2065.43 372.055C2101.55 425.619 2137.83 479.068 2174.05 532.564C2176.06 535.527 2177.91 538.596 2181.03 543.5Z" fill="white"/>
</svg>
