<svg width="1255" height="932" viewBox="0 0 1255 932" fill="none" xmlns="http://www.w3.org/2000/svg">
<path d="M749.353 358.468C684.769 389.532 626.483 427.588 576.025 477.049C543.504 508.928 515.089 543.949 494.081 586.768C498.882 586.935 502.346 587.163 505.81 587.161C551.656 587.138 596.925 591.739 641.254 603.943C668.976 611.575 695.636 621.846 720.72 636.011C737.618 645.554 753.167 656.829 767.249 670.303C815.874 716.829 868.833 757.517 928.665 788.825C994.261 823.149 1063.88 843.142 1137.93 846.279C1172.53 847.745 1207.22 847.437 1241.86 847.92C1245.49 847.971 1249.12 847.927 1254.77 847.927C1252.32 850.096 1251.41 851.291 1250.2 851.915C1193.54 881.189 1135.48 906.894 1072.94 921.091C1020.68 932.954 968.088 934.434 915.061 926.849C856.161 918.424 799.33 901.638 742.39 885.199C678.102 866.638 614.009 847.358 549.453 829.78C481.338 811.234 411.752 806.086 341.398 811.613C224.964 820.76 117.464 857.133 18.037 917.995C12.395 921.448 6.892 925.136 0 929.566C0.622 926.183 0.744 924.089 1.397 922.176C76.237 702.917 191.747 508.788 359.193 347.347C522.929 189.484 714.153 78.424 932.803 15.114C951.65 9.657 970.928 5.689 990.017 1.077C991.914 0.619 993.891 0.492 997.287 0C996.698 3.766 996.379 6.877 995.712 9.911C984.552 60.682 975.414 111.813 969.436 163.453C961.643 230.774 958.438 298.293 963.222 366.002C968.773 444.573 983.484 521.126 1014.74 593.904C1032.06 634.239 1053.7 671.997 1082.52 705.309C1090.77 714.846 1099.85 723.667 1109.21 733.515C1106.83 733.802 1104.76 734.332 1102.72 734.252C1076.36 733.211 1051.52 726.071 1027.75 714.994C987.876 696.412 954.575 668.953 924.318 637.548C880.34 591.9 844.769 540.052 813.062 485.42C790.972 447.357 771.139 408.141 753.651 367.746C752.474 365.024 751.162 362.36 749.353 358.468Z" fill="white"/>
</svg>
