<svg width="37" height="62" viewBox="0 0 37 62" fill="none" xmlns="http://www.w3.org/2000/svg">
<path d="M22.6907 31.1301L1.72243 51.9619C0.619225 53.0645 6.50778e-07 54.556 5.14866e-07 56.1106C3.78955e-07 57.6653 0.619225 59.1567 1.72243 60.2593C2.27307 60.8109 2.92819 61.2487 3.64999 61.5474C4.37179 61.8462 5.14599 62 5.92793 62C6.70986 62 7.48406 61.8462 8.20586 61.5474C8.92766 61.2487 9.58278 60.8109 10.1334 60.2593L35.2479 35.3082C35.8031 34.7612 36.2437 34.1103 36.5445 33.3932C36.8452 32.6761 37 31.907 37 31.1301C37 30.3533 36.8452 29.5841 36.5445 28.867C36.2437 28.1499 35.8031 27.499 35.2479 26.952L10.1334 1.70666C9.57996 1.16126 8.92357 0.729768 8.2019 0.436921C7.48023 0.144071 6.70747 -0.00437811 5.92793 9.64657e-05C5.14839 -0.00437824 4.37563 0.144071 3.65396 0.436921C2.93229 0.729768 2.2759 1.16126 1.72244 1.70666C0.61923 2.80923 5.04423e-06 4.30072 4.90832e-06 5.85537C4.77241e-06 7.41002 0.619229 8.90151 1.72244 10.0041L22.6907 31.1301Z" fill="white" fill-opacity="0.46"/>
</svg>
