<svg width="990" height="120" viewBox="0 0 990 120" fill="none" xmlns="http://www.w3.org/2000/svg">
<path d="M6.4 114H28.16V85.2L6.4 63.44V114ZM90.88 26.064L50.304 66.64L9.728 26.064H6.272V53.456L28.032 75.216L50.176 97.488L72.32 75.216V114H94.08V26.064H90.88ZM107.15 114H132.622L157.454 73.168L144.782 52.176L107.15 114ZM161.55 24.528L148.878 45.392L185.102 105.424L190.35 114.128H215.822L161.55 24.528ZM228.65 26.064V36.944L250.41 58.704V26.064H228.65ZM228.65 114H250.41V68.688L228.65 46.928V114ZM295.022 26.064L316.782 47.824H351.086V26.064H295.022ZM349.934 78.8L349.55 77.904C349.55 77.776 349.55 77.648 349.55 77.52L349.166 76.368L349.038 76.112C348.782 75.6 348.526 75.088 348.27 74.576L348.142 74.448C347.758 73.68 347.374 72.912 346.99 72.144L346.862 71.888C346.734 71.76 346.606 71.632 346.478 71.504C346.35 71.376 346.222 71.248 346.094 71.12C345.966 70.864 345.838 70.608 345.71 70.352L345.582 70.224C345.454 70.096 345.326 69.968 345.198 69.84C345.198 69.712 345.198 69.584 345.198 69.456L344.942 69.2C344.814 69.072 344.686 68.944 344.558 68.816C344.174 68.432 343.79 68.048 343.406 67.664C343.278 67.536 343.15 67.408 343.022 67.28C342.894 67.152 342.766 67.152 342.638 67.152L342.382 66.896C342.254 66.768 342.126 66.64 341.998 66.512C341.742 66.256 341.486 66.128 341.358 66C340.846 65.616 340.334 65.232 339.822 64.848L339.694 64.72C339.438 64.592 339.182 64.464 338.926 64.336C338.67 64.208 338.414 64.08 338.158 63.952L337.518 63.568C337.134 63.312 336.75 63.056 336.366 62.8C336.11 62.672 335.854 62.544 335.598 62.416C335.47 62.416 335.342 62.416 335.214 62.416C334.83 62.288 334.446 62.16 334.062 62.032H333.934C333.678 61.904 333.422 61.776 333.166 61.648H333.038C332.526 61.52 332.014 61.392 331.502 61.264H331.374C331.118 61.136 330.862 61.008 330.606 60.88C330.478 60.88 330.35 60.88 330.222 60.88L329.966 60.752H329.838C329.582 60.624 329.326 60.496 329.07 60.496H328.942C328.686 60.496 328.43 60.496 328.174 60.496H327.79C327.534 60.496 327.278 60.496 327.022 60.496H326.894C326.766 60.496 326.638 60.496 326.51 60.496C326.254 60.496 325.998 60.496 325.742 60.496C325.614 60.496 325.486 60.496 325.358 60.496H325.23C325.102 60.496 324.974 60.496 324.846 60.496C324.59 60.496 324.334 60.496 324.078 60.496H323.822C323.694 60.496 323.566 60.496 323.438 60.496H323.31C323.182 60.496 323.054 60.496 322.926 60.496H289.774C286.702 60.496 284.142 57.936 284.142 54.864C284.142 51.792 286.702 49.232 289.774 49.232H306.03L284.654 27.856L283.758 28.112C283.118 28.24 282.478 28.368 281.838 28.624C277.486 29.904 273.518 32.336 270.318 35.536C267.118 38.736 264.686 42.704 263.406 47.056C262.638 49.616 262.254 52.304 262.254 54.992C262.254 57.68 262.638 60.368 263.406 62.928C264.686 67.28 267.118 71.248 270.318 74.448C273.518 77.648 277.486 80.08 281.838 81.36C284.398 82.128 287.086 82.512 289.774 82.512H322.926C325.998 82.512 328.558 85.072 328.558 88.144C328.558 91.216 325.998 93.776 322.926 93.776H262.382V115.536H322.926C328.942 115.536 334.702 113.616 339.438 110.032C344.046 106.576 347.502 101.584 349.166 96.08C349.934 93.52 350.318 90.832 350.318 88.144C350.318 85.456 349.934 82.768 349.166 80.208L349.934 78.8ZM446.41 92.24V86.096L424.65 64.336V114.128H497.994V92.368L446.41 92.24ZM497.994 81.104V59.344H460.106L448.714 47.952H497.994V26.192H424.522V54.608L451.146 81.232L497.994 81.104ZM542.772 26.064L564.532 47.824H598.836V26.064H542.772ZM597.684 78.8L597.3 77.904C597.3 77.776 597.3 77.648 597.3 77.52L596.916 76.368L596.788 76.112C596.532 75.6 596.276 75.088 596.02 74.576L595.892 74.448C595.508 73.68 595.124 72.912 594.74 72.144L594.612 71.888C594.484 71.76 594.356 71.632 594.228 71.504C594.1 71.376 593.972 71.248 593.844 71.12C593.716 70.864 593.588 70.608 593.46 70.352L593.332 70.224C593.204 70.096 593.076 69.968 592.948 69.84C592.948 69.712 592.948 69.584 592.948 69.456L592.692 69.2C592.564 69.072 592.436 68.944 592.308 68.816C591.924 68.432 591.54 68.048 591.156 67.664C591.028 67.536 590.9 67.408 590.772 67.28C590.644 67.152 590.516 67.152 590.388 67.152L590.132 66.896C590.004 66.768 589.876 66.64 589.748 66.512C589.492 66.256 589.236 66.128 589.108 66C588.596 65.616 588.084 65.232 587.572 64.848L587.444 64.72C587.188 64.592 586.932 64.464 586.676 64.336C586.42 64.208 586.164 64.08 585.908 63.952L585.268 63.568C584.884 63.312 584.5 63.056 584.116 62.8C583.86 62.672 583.604 62.544 583.348 62.416C583.22 62.416 583.092 62.416 582.964 62.416C582.58 62.288 582.196 62.16 581.812 62.032H581.684C581.428 61.904 581.172 61.776 580.916 61.648H580.788C580.276 61.52 579.764 61.392 579.252 61.264H579.124C578.868 61.136 578.612 61.008 578.356 60.88C578.228 60.88 578.1 60.88 577.972 60.88L577.716 60.752H577.588C577.332 60.624 577.076 60.496 576.82 60.496H576.692C576.436 60.496 576.18 60.496 575.924 60.496H575.54C575.284 60.496 575.028 60.496 574.772 60.496H574.644C574.516 60.496 574.388 60.496 574.26 60.496C574.004 60.496 573.748 60.496 573.492 60.496C573.364 60.496 573.236 60.496 573.108 60.496H572.98C572.852 60.496 572.724 60.496 572.596 60.496C572.34 60.496 572.084 60.496 571.828 60.496H571.572C571.444 60.496 571.316 60.496 571.188 60.496H571.06C570.932 60.496 570.804 60.496 570.676 60.496H537.524C534.452 60.496 531.892 57.936 531.892 54.864C531.892 51.792 534.452 49.232 537.524 49.232H553.78L532.404 27.856L531.508 28.112C530.868 28.24 530.228 28.368 529.588 28.624C525.236 29.904 521.268 32.336 518.068 35.536C514.868 38.736 512.436 42.704 511.156 47.056C510.388 49.616 510.004 52.304 510.004 54.992C510.004 57.68 510.388 60.368 511.156 62.928C512.436 67.28 514.868 71.248 518.068 74.448C521.268 77.648 525.236 80.08 529.588 81.36C532.148 82.128 534.836 82.512 537.524 82.512H570.676C573.748 82.512 576.308 85.072 576.308 88.144C576.308 91.216 573.748 93.776 570.676 93.776H510.132V115.536H570.676C576.692 115.536 582.452 113.616 587.188 110.032C591.796 106.576 595.252 101.584 596.916 96.08C597.684 93.52 598.068 90.832 598.068 88.144C598.068 85.456 597.684 82.768 596.916 80.208L597.684 78.8ZM683.202 46.032C682.05 41.424 679.746 37.2 676.418 33.872C671.554 29.008 665.154 26.32 658.242 26.32H611.65V58.448L630.85 77.648H658.114C665.026 77.648 671.426 74.96 676.29 70.096C677.058 69.328 677.698 68.56 678.338 67.792C681.922 63.184 683.842 57.68 683.842 51.792C683.842 49.744 683.586 47.696 683.074 45.776L683.202 46.032ZM659.778 56.4C659.65 56.656 659.394 56.912 659.138 57.168C657.73 58.576 655.81 59.344 653.762 59.344H645.186L633.282 47.44V44.496H653.89C655.938 44.496 657.858 45.264 659.266 46.672C660.29 47.696 660.93 48.848 661.186 50.128C661.314 50.64 661.442 51.28 661.442 51.92C661.442 53.584 660.93 55.12 659.906 56.4H659.778ZM611.65 113.616H633.41V89.936L611.65 68.176V113.616ZM682.65 114H708.122L732.954 73.168L720.282 52.176L682.65 114ZM737.05 24.528L724.378 45.392L760.602 105.424L765.85 114.128H791.322L737.05 24.528ZM817.482 58.576C818.634 56.4 820.042 54.352 821.834 52.56C826.186 48.208 831.946 45.776 838.09 45.776C844.234 45.776 849.994 48.208 854.346 52.56C856.522 54.736 858.186 57.168 859.338 59.984L859.85 61.008H882.89L882.378 58.832C880.202 48.976 874.698 40.016 866.762 33.616C858.698 27.088 848.586 23.504 838.218 23.504C823.37 23.504 809.418 30.8 800.97 42.96L800.074 44.112L816.586 60.624L817.482 58.576ZM859.21 77.392C858.058 80.208 856.394 82.64 854.218 84.816C852.426 86.608 850.378 88.016 848.202 89.168C847.562 89.552 846.922 89.808 846.154 90.064C843.978 90.832 841.674 91.344 839.37 91.472C838.346 91.472 837.194 91.472 836.17 91.344C830.794 90.96 825.674 88.656 821.834 84.816C817.994 80.976 815.69 75.856 815.306 70.48V69.84L796.362 50.896L795.466 53.584C793.802 58.448 792.906 63.568 792.906 68.688C792.906 80.72 797.642 92.112 806.218 100.688C814.794 109.264 826.186 114 838.218 114C844.362 114 850.25 112.848 855.882 110.544C856.906 110.16 857.93 109.648 858.954 109.136C864.714 106.192 869.962 101.84 873.93 96.72C878.026 91.472 880.97 85.328 882.378 78.928L882.89 76.752H859.85L859.21 77.392ZM970.411 38.864C962.091 30.544 951.083 25.936 939.307 25.936C929.451 25.936 920.107 29.136 912.299 35.152L910.763 36.432L926.251 51.92L927.403 51.152C930.859 48.976 934.955 47.824 939.179 47.824C945.067 47.824 950.571 50.128 954.795 54.352C959.019 58.576 961.323 64.08 961.323 69.968C961.323 74.192 960.171 78.288 957.995 81.744L957.227 82.896L972.715 98.384L973.995 96.848C980.011 89.04 983.211 79.696 983.211 69.84C983.211 58.064 978.603 47.056 970.283 38.736L970.411 38.864ZM950.955 88.528C947.499 90.704 943.403 91.856 939.179 91.856C933.291 91.856 927.787 89.552 923.563 85.328C919.339 81.104 917.035 75.6 917.035 69.712C917.035 65.488 918.187 61.392 920.363 57.936L921.131 56.784L905.643 41.296L904.363 42.832C898.347 50.64 895.147 59.984 895.147 69.84C895.147 81.616 899.755 92.624 908.075 100.944C916.395 109.264 927.403 113.872 939.179 113.872C949.035 113.872 958.379 110.672 966.187 104.656L967.723 103.376L952.235 87.888L950.955 88.528Z" fill="white"/>
<path d="M812.444 99L820.589 104.802L814.206 113.761L802 113.66L812.444 99Z" fill="white"/>
</svg>
