<svg width="1188" height="93" viewBox="0 0 1188 93" fill="none" xmlns="http://www.w3.org/2000/svg">
<path d="M0.4 91H22.16V62.2L0.4 40.44V91ZM84.88 3.064L44.304 43.64L3.728 3.064H0.272V30.456L22.032 52.216L44.176 74.488L66.32 52.216V91H88.08V3.064H84.88ZM101.15 91H126.622L151.454 50.168L138.782 29.176L101.15 91ZM155.55 1.52799L142.878 22.392L179.102 82.424L184.35 91.128H209.822L155.55 1.52799ZM222.65 3.064V13.944L244.41 35.704V3.064H222.65ZM222.65 91H244.41V45.688L222.65 23.928V91ZM289.022 3.064L310.782 24.824H345.086V3.064H289.022ZM343.934 55.8L343.55 54.904C343.55 54.776 343.55 54.648 343.55 54.52L343.166 53.368L343.038 53.112C342.782 52.6 342.526 52.088 342.27 51.576L342.142 51.448C341.758 50.68 341.374 49.912 340.99 49.144L340.862 48.888C340.734 48.76 340.606 48.632 340.478 48.504C340.35 48.376 340.222 48.248 340.094 48.12C339.966 47.864 339.838 47.608 339.71 47.352L339.582 47.224C339.454 47.096 339.326 46.968 339.198 46.84C339.198 46.712 339.198 46.584 339.198 46.456L338.942 46.2C338.814 46.072 338.686 45.944 338.558 45.816C338.174 45.432 337.79 45.048 337.406 44.664C337.278 44.536 337.15 44.408 337.022 44.28C336.894 44.152 336.766 44.152 336.638 44.152L336.382 43.896C336.254 43.768 336.126 43.64 335.998 43.512C335.742 43.256 335.486 43.128 335.358 43C334.846 42.616 334.334 42.232 333.822 41.848L333.694 41.72C333.438 41.592 333.182 41.464 332.926 41.336C332.67 41.208 332.414 41.08 332.158 40.952L331.518 40.568C331.134 40.312 330.75 40.056 330.366 39.8C330.11 39.672 329.854 39.544 329.598 39.416C329.47 39.416 329.342 39.416 329.214 39.416C328.83 39.288 328.446 39.16 328.062 39.032H327.934C327.678 38.904 327.422 38.776 327.166 38.648H327.038C326.526 38.52 326.014 38.392 325.502 38.264H325.374C325.118 38.136 324.862 38.008 324.606 37.88C324.478 37.88 324.35 37.88 324.222 37.88L323.966 37.752H323.838C323.582 37.624 323.326 37.496 323.07 37.496H322.942C322.686 37.496 322.43 37.496 322.174 37.496H321.79C321.534 37.496 321.278 37.496 321.022 37.496H320.894C320.766 37.496 320.638 37.496 320.51 37.496C320.254 37.496 319.998 37.496 319.742 37.496C319.614 37.496 319.486 37.496 319.358 37.496H319.23C319.102 37.496 318.974 37.496 318.846 37.496C318.59 37.496 318.334 37.496 318.078 37.496H317.822C317.694 37.496 317.566 37.496 317.438 37.496H317.31C317.182 37.496 317.054 37.496 316.926 37.496H283.774C280.702 37.496 278.142 34.936 278.142 31.864C278.142 28.792 280.702 26.232 283.774 26.232H300.03L278.654 4.856L277.758 5.112C277.118 5.24 276.478 5.368 275.838 5.62399C271.486 6.904 267.518 9.336 264.318 12.536C261.118 15.736 258.686 19.704 257.406 24.056C256.638 26.616 256.254 29.304 256.254 31.992C256.254 34.68 256.638 37.368 257.406 39.928C258.686 44.28 261.118 48.248 264.318 51.448C267.518 54.648 271.486 57.08 275.838 58.36C278.398 59.128 281.086 59.512 283.774 59.512H316.926C319.998 59.512 322.558 62.072 322.558 65.144C322.558 68.216 319.998 70.776 316.926 70.776H256.382V92.536H316.926C322.942 92.536 328.702 90.616 333.438 87.032C338.046 83.576 341.502 78.584 343.166 73.08C343.934 70.52 344.318 67.832 344.318 65.144C344.318 62.456 343.934 59.768 343.166 57.208L343.934 55.8ZM443.482 35.576C444.634 33.4 446.042 31.352 447.834 29.56C452.186 25.208 457.946 22.776 464.09 22.776C470.234 22.776 475.994 25.208 480.346 29.56C482.522 31.736 484.186 34.168 485.338 36.984L485.85 38.008H508.89L508.378 35.832C506.202 25.976 500.698 17.016 492.762 10.616C484.698 4.088 474.586 0.503998 464.218 0.503998C449.37 0.503998 435.418 7.8 426.97 19.96L426.074 21.112L442.586 37.624L443.482 35.576ZM485.21 54.392C484.058 57.208 482.394 59.64 480.218 61.816C478.426 63.608 476.378 65.016 474.202 66.168C473.562 66.552 472.922 66.808 472.154 67.064C469.978 67.832 467.674 68.344 465.37 68.472C464.346 68.472 463.194 68.472 462.17 68.344C456.794 67.96 451.674 65.656 447.834 61.816C443.994 57.976 441.69 52.856 441.306 47.48V46.84L422.362 27.896L421.466 30.584C419.802 35.448 418.906 40.568 418.906 45.688C418.906 57.72 423.642 69.112 432.218 77.688C440.794 86.264 452.186 91 464.218 91C470.362 91 476.25 89.848 481.882 87.544C482.906 87.16 483.93 86.648 484.954 86.136C490.714 83.192 495.962 78.84 499.93 73.72C504.026 68.472 506.97 62.328 508.378 55.928L508.89 53.752H485.85L485.21 54.392ZM596.411 15.864C588.091 7.544 577.083 2.936 565.307 2.936C555.451 2.936 546.107 6.13599 538.299 12.152L536.763 13.432L552.251 28.92L553.403 28.152C556.859 25.976 560.955 24.824 565.179 24.824C571.067 24.824 576.571 27.128 580.795 31.352C585.019 35.576 587.323 41.08 587.323 46.968C587.323 51.192 586.171 55.288 583.995 58.744L583.227 59.896L598.715 75.384L599.995 73.848C606.011 66.04 609.211 56.696 609.211 46.84C609.211 35.064 604.603 24.056 596.283 15.736L596.411 15.864ZM576.955 65.528C573.499 67.704 569.403 68.856 565.179 68.856C559.291 68.856 553.787 66.552 549.563 62.328C545.339 58.104 543.035 52.6 543.035 46.712C543.035 42.488 544.187 38.392 546.363 34.936L547.131 33.784L531.643 18.296L530.363 19.832C524.347 27.64 521.147 36.984 521.147 46.84C521.147 58.616 525.755 69.624 534.075 77.944C542.395 86.264 553.403 90.872 565.179 90.872C575.035 90.872 584.379 87.672 592.187 81.656L593.723 80.376L578.235 64.888L576.955 65.528ZM622.025 91H643.785V62.2L622.025 40.44V91ZM681.801 21.88L681.289 22.392V59L625.993 3.70399L625.481 3.19199H622.025V30.584L643.785 52.344L657.737 66.296L681.673 90.232L682.569 91.128H703.049V0.631996L681.801 21.88ZM715.9 15.608V91H737.66V57.976H767.612V36.216H736.38L715.9 15.608ZM715.772 3.064V5.62399L737.532 27.384V24.824H791.676V3.064H715.772ZM870.786 15.864C862.466 7.544 851.458 2.936 839.682 2.936C829.826 2.936 820.482 6.13599 812.674 12.152L811.138 13.432L826.626 28.92L827.778 28.152C831.234 25.976 835.33 24.824 839.554 24.824C845.442 24.824 850.946 27.128 855.17 31.352C859.394 35.576 861.698 41.08 861.698 46.968C861.698 51.192 860.546 55.288 858.37 58.744L857.602 59.896L873.09 75.384L874.37 73.848C880.386 66.04 883.586 56.696 883.586 46.84C883.586 35.064 878.978 24.056 870.658 15.736L870.786 15.864ZM851.33 65.528C847.874 67.704 843.778 68.856 839.554 68.856C833.666 68.856 828.162 66.552 823.938 62.328C819.714 58.104 817.41 52.6 817.41 46.712C817.41 42.488 818.562 38.392 820.738 34.936L821.506 33.784L806.018 18.296L804.738 19.832C798.722 27.64 795.522 36.984 795.522 46.84C795.522 58.616 800.13 69.624 808.45 77.944C816.77 86.264 827.778 90.872 839.554 90.872C849.41 90.872 858.754 87.672 866.562 81.656L868.098 80.376L852.61 64.888L851.33 65.528ZM952.464 57.976C952.848 57.976 953.232 57.976 953.616 57.976H953.872C960.912 57.848 967.568 55.032 972.56 50.04C977.424 45.176 980.24 38.648 980.496 31.608C980.624 30.712 980.624 29.816 980.624 28.92C980.624 26.872 980.368 24.824 979.856 22.904C978.704 18.296 976.4 14.072 973.072 10.744C969.488 7.16 965.008 4.728 960.016 3.70399C958.352 3.31999 956.688 3.19199 955.024 3.19199H896.272V35.32L918.032 57.08V56.952L951.824 90.616L952.336 91.128H986.128L952.464 57.976ZM950.928 36.344H930.064L919.696 25.976H957.84C957.968 26.36 958.096 26.744 958.224 27.128C958.352 27.384 958.352 27.64 958.352 27.896C958.352 28.024 958.352 28.152 958.352 28.28C958.352 28.408 958.352 28.536 958.352 28.664C958.352 29.816 958.096 30.84 957.712 31.864C957.584 32.12 957.456 32.376 957.328 32.632C957.328 32.76 957.328 32.888 957.2 33.016C957.072 33.144 956.944 33.272 956.816 33.4C956.688 33.528 956.56 33.656 956.432 33.784C955.664 34.552 954.768 35.192 953.744 35.576C953.36 35.704 952.976 35.832 952.592 35.96C952.08 36.088 951.568 36.088 951.056 36.088L950.928 36.344ZM896.528 90.872H918.288V66.68L896.528 44.92V90.872ZM1031.92 91H1053.68V67.192L1031.92 45.432V91ZM998.9 3.064V24.824H1031.92V35.448L1053.68 57.208V24.824H1086.84V3.064H998.9ZM1174.79 15.864C1166.47 7.544 1155.46 2.936 1143.68 2.936C1133.83 2.936 1124.48 6.13599 1116.67 12.152L1115.14 13.432L1130.63 28.92L1131.78 28.152C1135.23 25.976 1139.33 24.824 1143.55 24.824C1149.44 24.824 1154.95 27.128 1159.17 31.352C1163.39 35.576 1165.7 41.08 1165.7 46.968C1165.7 51.192 1164.55 55.288 1162.37 58.744L1161.6 59.896L1177.09 75.384L1178.37 73.848C1184.39 66.04 1187.59 56.696 1187.59 46.84C1187.59 35.064 1182.98 24.056 1174.66 15.736L1174.79 15.864ZM1155.33 65.528C1151.87 67.704 1147.78 68.856 1143.55 68.856C1137.67 68.856 1132.16 66.552 1127.94 62.328C1123.71 58.104 1121.41 52.6 1121.41 46.712C1121.41 42.488 1122.56 38.392 1124.74 34.936L1125.51 33.784L1110.02 18.296L1108.74 19.832C1102.72 27.64 1099.52 36.984 1099.52 46.84C1099.52 58.616 1104.13 69.624 1112.45 77.944C1120.77 86.264 1131.78 90.872 1143.55 90.872C1153.41 90.872 1162.75 87.672 1170.56 81.656L1172.1 80.376L1156.61 64.888L1155.33 65.528Z" fill="white"/>
</svg>
