<svg width="1086" height="125" viewBox="0 0 1086 125" fill="none" xmlns="http://www.w3.org/2000/svg">
<path d="M72.576 26.064V70.096C72.576 75.984 70.272 81.488 66.048 85.712C64.896 86.864 63.616 87.888 62.208 88.784L60.416 89.936L76.16 105.68L77.44 104.784C82.56 100.816 86.784 95.568 89.728 89.68C92.8 83.536 94.336 76.88 94.336 69.968V25.936L72.576 26.064ZM51.84 91.984C51.328 91.984 50.816 91.984 50.304 91.984C44.416 91.984 38.912 89.68 34.688 85.456C30.464 81.232 28.16 75.728 28.16 69.84V67.408L6.272 45.52V69.712C6.272 84.176 13.44 97.744 25.344 105.936C32.64 110.928 41.216 113.616 50.176 113.616C56.192 113.616 61.952 112.464 67.456 110.16L69.888 109.136L52.48 91.728L51.84 91.984ZM28.032 25.68H6.144V35.536L28.032 57.424V25.68ZM107.15 114H128.91V85.2L107.15 63.44V114ZM191.63 26.064L151.054 66.64L110.478 26.064H107.022V53.456L128.782 75.216L150.926 97.488L173.07 75.216V114H194.83V26.064H191.63ZM340.202 46.032C339.05 41.424 336.746 37.2 333.418 33.872C328.554 29.008 322.154 26.32 315.242 26.32H268.65V58.448L287.85 77.648H315.114C322.026 77.648 328.426 74.96 333.29 70.096C334.058 69.328 334.698 68.56 335.338 67.792C338.922 63.184 340.842 57.68 340.842 51.792C340.842 49.744 340.586 47.696 340.074 45.776L340.202 46.032ZM316.778 56.4C316.65 56.656 316.394 56.912 316.138 57.168C314.73 58.576 312.81 59.344 310.762 59.344H302.186L290.282 47.44V44.496H310.89C312.938 44.496 314.858 45.264 316.266 46.672C317.29 47.696 317.93 48.848 318.186 50.128C318.314 50.64 318.442 51.28 318.442 51.92C318.442 53.584 317.93 55.12 316.906 56.4H316.778ZM268.65 113.616H290.41V89.936L268.65 68.176V113.616ZM375.41 92.24V86.096L353.65 64.336V114.128H426.994V92.368L375.41 92.24ZM426.994 81.104V59.344H389.106L377.714 47.952H426.994V26.192H353.522V54.608L380.146 81.232L426.994 81.104ZM495.964 80.976C496.348 80.976 496.732 80.976 497.116 80.976H497.372C504.412 80.848 511.068 78.032 516.06 73.04C520.924 68.176 523.74 61.648 523.996 54.608C524.124 53.712 524.124 52.816 524.124 51.92C524.124 49.872 523.868 47.824 523.356 45.904C522.204 41.296 519.9 37.072 516.572 33.744C512.988 30.16 508.508 27.728 503.516 26.704C501.852 26.32 500.188 26.192 498.524 26.192H439.772V58.32L461.532 80.08V79.952L495.324 113.616L495.836 114.128H529.628L495.964 80.976ZM494.428 59.344H473.564L463.196 48.976H501.34C501.468 49.36 501.596 49.744 501.724 50.128C501.852 50.384 501.852 50.64 501.852 50.896C501.852 51.024 501.852 51.152 501.852 51.28C501.852 51.408 501.852 51.536 501.852 51.664C501.852 52.816 501.596 53.84 501.212 54.864C501.084 55.12 500.956 55.376 500.828 55.632C500.828 55.76 500.828 55.888 500.7 56.016C500.572 56.144 500.444 56.272 500.316 56.4C500.188 56.528 500.06 56.656 499.932 56.784C499.164 57.552 498.268 58.192 497.244 58.576C496.86 58.704 496.476 58.832 496.092 58.96C495.58 59.088 495.068 59.088 494.556 59.088L494.428 59.344ZM440.028 113.872H461.788V89.68L440.028 67.92V113.872ZM542.4 26.064V36.944L564.16 58.704V26.064H542.4ZM542.4 114H564.16V68.688L542.4 46.928V114ZM576.9 38.608V114H598.66V80.976H628.612V59.216H597.38L576.9 38.608ZM576.772 26.064V28.624L598.532 50.384V47.824H652.676V26.064H576.772ZM687.41 92.24V86.096L665.65 64.336V114.128H738.994V92.368L687.41 92.24ZM738.994 81.104V59.344H701.106L689.714 47.952H738.994V26.192H665.522V54.608L692.146 81.232L738.994 81.104ZM807.964 80.976C808.348 80.976 808.732 80.976 809.116 80.976H809.372C816.412 80.848 823.068 78.032 828.06 73.04C832.924 68.176 835.74 61.648 835.996 54.608C836.124 53.712 836.124 52.816 836.124 51.92C836.124 49.872 835.868 47.824 835.356 45.904C834.204 41.296 831.9 37.072 828.572 33.744C824.988 30.16 820.508 27.728 815.516 26.704C813.852 26.32 812.188 26.192 810.524 26.192H751.772V58.32L773.532 80.08V79.952L807.324 113.616L807.836 114.128H841.628L807.964 80.976ZM806.428 59.344H785.564L775.196 48.976H813.34C813.468 49.36 813.596 49.744 813.724 50.128C813.852 50.384 813.852 50.64 813.852 50.896C813.852 51.024 813.852 51.152 813.852 51.28C813.852 51.408 813.852 51.536 813.852 51.664C813.852 52.816 813.596 53.84 813.212 54.864C813.084 55.12 812.956 55.376 812.828 55.632C812.828 55.76 812.828 55.888 812.7 56.016C812.572 56.144 812.444 56.272 812.316 56.4C812.188 56.528 812.06 56.656 811.932 56.784C811.164 57.552 810.268 58.192 809.244 58.576C808.86 58.704 808.476 58.832 808.092 58.96C807.58 59.088 807.068 59.088 806.556 59.088L806.428 59.344ZM752.028 113.872H773.788V89.68L752.028 67.92V113.872ZM854.4 26.064V36.944L876.16 58.704V26.064H854.4ZM854.4 114H876.16V68.688L854.4 46.928V114ZM913.732 58.576C914.884 56.4 916.292 54.352 918.084 52.56C922.436 48.208 928.196 45.776 934.34 45.776C940.484 45.776 946.244 48.208 950.596 52.56C952.772 54.736 954.436 57.168 955.588 59.984L956.1 61.008H979.14L978.628 58.832C976.452 48.976 970.948 40.016 963.012 33.616C954.948 27.088 944.836 23.504 934.468 23.504C919.62 23.504 905.668 30.8 897.22 42.96L896.324 44.112L912.836 60.624L913.732 58.576ZM955.46 77.392C954.308 80.208 952.644 82.64 950.468 84.816C948.676 86.608 946.628 88.016 944.452 89.168C943.812 89.552 943.172 89.808 942.404 90.064C940.228 90.832 937.924 91.344 935.62 91.472C934.596 91.472 933.444 91.472 932.42 91.344C927.044 90.96 921.924 88.656 918.084 84.816C914.244 80.976 911.94 75.856 911.556 70.48V69.84L892.612 50.896L891.716 53.584C890.052 58.448 889.156 63.568 889.156 68.688C889.156 80.72 893.892 92.112 902.468 100.688C911.044 109.264 922.436 114 934.468 114C940.612 114 946.5 112.848 952.132 110.544C953.156 110.16 954.18 109.648 955.204 109.136C960.964 106.192 966.212 101.84 970.18 96.72C974.276 91.472 977.22 85.328 978.628 78.928L979.14 76.752H956.1L955.46 77.392ZM1066.66 38.864C1058.34 30.544 1047.33 25.936 1035.56 25.936C1025.7 25.936 1016.36 29.136 1008.55 35.152L1007.01 36.432L1022.5 51.92L1023.65 51.152C1027.11 48.976 1031.21 47.824 1035.43 47.824C1041.32 47.824 1046.82 50.128 1051.05 54.352C1055.27 58.576 1057.57 64.08 1057.57 69.968C1057.57 74.192 1056.42 78.288 1054.25 81.744L1053.48 82.896L1068.97 98.384L1070.25 96.848C1076.26 89.04 1079.46 79.696 1079.46 69.84C1079.46 58.064 1074.85 47.056 1066.53 38.736L1066.66 38.864ZM1047.21 88.528C1043.75 90.704 1039.65 91.856 1035.43 91.856C1029.54 91.856 1024.04 89.552 1019.81 85.328C1015.59 81.104 1013.29 75.6 1013.29 69.712C1013.29 65.488 1014.44 61.392 1016.61 57.936L1017.38 56.784L1001.89 41.296L1000.61 42.832C994.597 50.64 991.397 59.984 991.397 69.84C991.397 81.616 996.005 92.624 1004.33 100.944C1012.65 109.264 1023.65 113.872 1035.43 113.872C1045.29 113.872 1054.63 110.672 1062.44 104.656L1063.97 103.376L1048.49 87.888L1047.21 88.528Z" fill="white"/>
<path d="M722 17.8696L731.5 17.8696L737.5 12L737.5 3L722 17.8696Z" fill="white"/>
</svg>
