<svg width="771" height="91" viewBox="0 0 771 91" fill="none" xmlns="http://www.w3.org/2000/svg">
<path d="M71.952 21.032C70.8 16.424 68.496 12.2 65.168 8.87199C60.304 4.008 53.904 1.31999 46.992 1.31999H0.4V33.448L19.6 52.648H46.864C53.776 52.648 60.176 49.96 65.04 45.096C65.808 44.328 66.448 43.56 67.088 42.792C70.672 38.184 72.592 32.68 72.592 26.792C72.592 24.744 72.336 22.696 71.824 20.776L71.952 21.032ZM48.528 31.4C48.4 31.656 48.144 31.912 47.888 32.168C46.48 33.576 44.56 34.344 42.512 34.344H33.936L22.032 22.44V19.496H42.64C44.688 19.496 46.608 20.264 48.016 21.672C49.04 22.696 49.68 23.848 49.936 25.128C50.064 25.64 50.192 26.28 50.192 26.92C50.192 28.584 49.68 30.12 48.656 31.4H48.528ZM0.4 88.616H22.16V64.936L0.4 43.176V88.616ZM141.464 55.976C141.848 55.976 142.232 55.976 142.616 55.976H142.872C149.912 55.848 156.568 53.032 161.56 48.04C166.424 43.176 169.24 36.648 169.496 29.608C169.624 28.712 169.624 27.816 169.624 26.92C169.624 24.872 169.368 22.824 168.856 20.904C167.704 16.296 165.4 12.072 162.072 8.744C158.488 5.16 154.008 2.728 149.016 1.70399C147.352 1.31999 145.688 1.19199 144.024 1.19199H85.272V33.32L107.032 55.08V54.952L140.824 88.616L141.336 89.128H175.128L141.464 55.976ZM139.928 34.344H119.064L108.696 23.976H146.84C146.968 24.36 147.096 24.744 147.224 25.128C147.352 25.384 147.352 25.64 147.352 25.896C147.352 26.024 147.352 26.152 147.352 26.28C147.352 26.408 147.352 26.536 147.352 26.664C147.352 27.816 147.096 28.84 146.712 29.864C146.584 30.12 146.456 30.376 146.328 30.632C146.328 30.76 146.328 30.888 146.2 31.016C146.072 31.144 145.944 31.272 145.816 31.4C145.688 31.528 145.56 31.656 145.432 31.784C144.664 32.552 143.768 33.192 142.744 33.576C142.36 33.704 141.976 33.832 141.592 33.96C141.08 34.088 140.568 34.088 140.056 34.088L139.928 34.344ZM85.528 88.872H107.288V64.68L85.528 42.92V88.872ZM254.036 13.864C245.716 5.544 234.708 0.935997 222.932 0.935997C213.076 0.935997 203.732 4.13599 195.924 10.152L194.388 11.432L209.876 26.92L211.028 26.152C214.484 23.976 218.58 22.824 222.804 22.824C228.692 22.824 234.196 25.128 238.42 29.352C242.644 33.576 244.948 39.08 244.948 44.968C244.948 49.192 243.796 53.288 241.62 56.744L240.852 57.896L256.34 73.384L257.62 71.848C263.636 64.04 266.836 54.696 266.836 44.84C266.836 33.064 262.228 22.056 253.908 13.736L254.036 13.864ZM234.58 63.528C231.124 65.704 227.028 66.856 222.804 66.856C216.916 66.856 211.412 64.552 207.188 60.328C202.964 56.104 200.66 50.6 200.66 44.712C200.66 40.488 201.812 36.392 203.988 32.936L204.756 31.784L189.268 16.296L187.988 17.832C181.972 25.64 178.772 34.984 178.772 44.84C178.772 56.616 183.38 67.624 191.7 75.944C200.02 84.264 211.028 88.872 222.804 88.872C232.66 88.872 242.004 85.672 249.812 79.656L251.348 78.376L235.86 62.888L234.58 63.528ZM359.394 20.008C351.202 8.23199 337.762 1.19199 323.426 1.19199H279.65V26.152L301.538 48.04V23.208H323.426C330.594 23.208 337.25 26.792 341.346 32.68C343.906 36.392 345.186 40.744 345.186 45.224C345.186 49.704 343.906 54.056 341.474 57.768C341.474 57.768 341.474 57.768 341.474 57.896C337.634 63.4 331.618 66.856 324.962 67.24C324.45 67.24 323.938 67.24 323.426 67.24H301.538V57.896L279.65 36.008V89.128H323.426C337.762 89.128 351.202 82.088 359.394 70.312C359.522 70.184 359.65 70.056 359.778 69.928C364.77 62.632 367.458 54.056 367.458 45.224C367.458 36.264 364.77 27.688 359.778 20.392L359.394 20.008ZM446.076 1.064V45.096C446.076 50.984 443.772 56.488 439.548 60.712C438.396 61.864 437.116 62.888 435.708 63.784L433.916 64.936L449.66 80.68L450.94 79.784C456.06 75.816 460.284 70.568 463.228 64.68C466.3 58.536 467.836 51.88 467.836 44.968V0.935997L446.076 1.064ZM425.34 66.984C424.828 66.984 424.316 66.984 423.804 66.984C417.916 66.984 412.412 64.68 408.188 60.456C403.964 56.232 401.66 50.728 401.66 44.84V42.408L379.772 20.52V44.712C379.772 59.176 386.94 72.744 398.844 80.936C406.14 85.928 414.716 88.616 423.676 88.616C429.692 88.616 435.452 87.464 440.956 85.16L443.388 84.136L425.98 66.728L425.34 66.984ZM401.532 0.679993H379.644V10.536L401.532 32.424V0.679993ZM513.674 89H535.434V65.192L513.674 43.432V89ZM480.65 1.064V22.824H513.674V33.448L535.434 55.208V22.824H568.586V1.064H480.65ZM656.536 13.864C648.216 5.544 637.208 0.935997 625.432 0.935997C615.576 0.935997 606.232 4.13599 598.424 10.152L596.888 11.432L612.376 26.92L613.528 26.152C616.984 23.976 621.08 22.824 625.304 22.824C631.192 22.824 636.696 25.128 640.92 29.352C645.144 33.576 647.448 39.08 647.448 44.968C647.448 49.192 646.296 53.288 644.12 56.744L643.352 57.896L658.84 73.384L660.12 71.848C666.136 64.04 669.336 54.696 669.336 44.84C669.336 33.064 664.728 22.056 656.408 13.736L656.536 13.864ZM637.08 63.528C633.624 65.704 629.528 66.856 625.304 66.856C619.416 66.856 613.912 64.552 609.688 60.328C605.464 56.104 603.16 50.6 603.16 44.712C603.16 40.488 604.312 36.392 606.488 32.936L607.256 31.784L591.768 16.296L590.488 17.832C584.472 25.64 581.272 34.984 581.272 44.84C581.272 56.616 585.88 67.624 594.2 75.944C602.52 84.264 613.528 88.872 625.304 88.872C635.16 88.872 644.504 85.672 652.312 79.656L653.848 78.376L638.36 62.888L637.08 63.528ZM714.022 1.064L735.782 22.824H770.086V1.064H714.022ZM768.934 53.8L768.55 52.904C768.55 52.776 768.55 52.648 768.55 52.52L768.166 51.368L768.038 51.112C767.782 50.6 767.526 50.088 767.27 49.576L767.142 49.448C766.758 48.68 766.374 47.912 765.99 47.144L765.862 46.888C765.734 46.76 765.606 46.632 765.478 46.504C765.35 46.376 765.222 46.248 765.094 46.12C764.966 45.864 764.838 45.608 764.71 45.352L764.582 45.224C764.454 45.096 764.326 44.968 764.198 44.84C764.198 44.712 764.198 44.584 764.198 44.456L763.942 44.2C763.814 44.072 763.686 43.944 763.558 43.816C763.174 43.432 762.79 43.048 762.406 42.664C762.278 42.536 762.15 42.408 762.022 42.28C761.894 42.152 761.766 42.152 761.638 42.152L761.382 41.896C761.254 41.768 761.126 41.64 760.998 41.512C760.742 41.256 760.486 41.128 760.358 41C759.846 40.616 759.334 40.232 758.822 39.848L758.694 39.72C758.438 39.592 758.182 39.464 757.926 39.336C757.67 39.208 757.414 39.08 757.158 38.952L756.518 38.568C756.134 38.312 755.75 38.056 755.366 37.8C755.11 37.672 754.854 37.544 754.598 37.416C754.47 37.416 754.342 37.416 754.214 37.416C753.83 37.288 753.446 37.16 753.062 37.032H752.934C752.678 36.904 752.422 36.776 752.166 36.648H752.038C751.526 36.52 751.014 36.392 750.502 36.264H750.374C750.118 36.136 749.862 36.008 749.606 35.88C749.478 35.88 749.35 35.88 749.222 35.88L748.966 35.752H748.838C748.582 35.624 748.326 35.496 748.07 35.496H747.942C747.686 35.496 747.43 35.496 747.174 35.496H746.79C746.534 35.496 746.278 35.496 746.022 35.496H745.894C745.766 35.496 745.638 35.496 745.51 35.496C745.254 35.496 744.998 35.496 744.742 35.496C744.614 35.496 744.486 35.496 744.358 35.496H744.23C744.102 35.496 743.974 35.496 743.846 35.496C743.59 35.496 743.334 35.496 743.078 35.496H742.822C742.694 35.496 742.566 35.496 742.438 35.496H742.31C742.182 35.496 742.054 35.496 741.926 35.496H708.774C705.702 35.496 703.142 32.936 703.142 29.864C703.142 26.792 705.702 24.232 708.774 24.232H725.03L703.654 2.856L702.758 3.112C702.118 3.24 701.478 3.368 700.838 3.62399C696.486 4.904 692.518 7.336 689.318 10.536C686.118 13.736 683.686 17.704 682.406 22.056C681.638 24.616 681.254 27.304 681.254 29.992C681.254 32.68 681.638 35.368 682.406 37.928C683.686 42.28 686.118 46.248 689.318 49.448C692.518 52.648 696.486 55.08 700.838 56.36C703.398 57.128 706.086 57.512 708.774 57.512H741.926C744.998 57.512 747.558 60.072 747.558 63.144C747.558 66.216 744.998 68.776 741.926 68.776H681.382V90.536H741.926C747.942 90.536 753.702 88.616 758.438 85.032C763.046 81.576 766.502 76.584 768.166 71.08C768.934 68.52 769.318 65.832 769.318 63.144C769.318 60.456 768.934 57.768 768.166 55.208L768.934 53.8Z" fill="white"/>
</svg>
