<svg width="722" height="137" viewBox="0 0 722 137" fill="none" xmlns="http://www.w3.org/2000/svg">
<path d="M84.696 86.464C85.272 86.464 85.848 86.464 86.424 86.464H86.808C97.368 86.272 107.352 82.048 114.84 74.56C122.136 67.264 126.36 57.472 126.744 46.912C126.936 45.568 126.936 44.224 126.936 42.88C126.936 39.808 126.552 36.736 125.784 33.856C124.056 26.944 120.6 20.608 115.608 15.616C110.232 10.24 103.512 6.592 96.024 5.05599C93.528 4.47999 91.032 4.28799 88.536 4.28799H0.408V52.48L33.048 85.12V84.928L83.736 135.424L84.504 136.192H135.192L84.696 86.464ZM82.392 54.016H51.096L35.544 38.464H92.76C92.952 39.04 93.144 39.616 93.336 40.192C93.528 40.576 93.528 40.96 93.528 41.344C93.528 41.536 93.528 41.728 93.528 41.92C93.528 42.112 93.528 42.304 93.528 42.496C93.528 44.224 93.144 45.76 92.568 47.296C92.376 47.68 92.184 48.064 91.992 48.448C91.992 48.64 91.992 48.832 91.8 49.024C91.608 49.216 91.416 49.408 91.224 49.6C91.032 49.792 90.84 49.984 90.648 50.176C89.496 51.328 88.152 52.288 86.616 52.864C86.04 53.056 85.464 53.248 84.888 53.44C84.12 53.632 83.352 53.632 82.584 53.632L82.392 54.016ZM0.792001 135.808H33.432V99.52L0.792001 66.88V135.808ZM186.99 103.36V94.144L154.35 61.504V136.192H264.366V103.552L186.99 103.36ZM264.366 86.656V54.016H207.534L190.446 36.928H264.366V4.28799H154.158V46.912L194.094 86.848L264.366 86.656ZM319.821 0.447994H283.725L348.045 136L365.517 99.328L366.093 98.176L335.949 34.432L319.821 0.447994ZM376.269 0.639992L354.573 46.528L353.997 47.68L372.045 85.888L375.501 78.784L412.557 0.639992H376.269ZM455.667 107.968H438.771H431.667V136H470.643C471.411 136 472.179 136 472.947 136C473.715 136 474.483 136 475.251 136C477.747 135.808 480.051 135.424 482.355 134.848L455.667 108.16V107.968ZM492.147 71.872C501.747 65.536 508.083 54.784 508.083 42.496C508.083 40.192 507.891 37.888 507.507 35.584C504.435 20.416 491.571 8.89599 475.827 7.74399C474.867 7.74399 473.907 7.74399 472.947 7.74399C471.987 7.74399 471.027 7.74399 470.067 7.74399H431.091V35.776H473.907C476.787 36.16 479.091 38.272 479.667 41.152C479.667 41.536 479.667 42.112 479.667 42.688C479.667 46.144 477.363 48.064 476.403 48.64C475.251 49.408 473.907 49.792 472.563 49.792L457.587 64.384V78.976L472.563 94.336C473.907 94.336 475.251 94.72 476.403 95.488C477.363 96.064 479.667 97.984 479.667 101.44C479.667 102.016 479.667 102.4 479.667 102.784C479.283 104.512 478.323 106.048 476.979 107.008L496.755 126.784C501.939 121.984 505.587 115.648 507.123 108.352C507.507 106.048 507.699 103.744 507.699 101.44C507.699 89.152 501.363 78.4 491.763 72.064L492.147 71.872ZM614.647 52.672C614.647 52.096 614.647 51.52 614.647 50.944C614.647 50.368 614.647 49.792 614.647 49.216C614.072 34.24 606.2 21.184 594.488 13.504C587.768 9.088 579.704 6.592 571.064 6.592C562.424 6.592 554.36 9.088 547.64 13.504C543.031 16.384 539 20.224 535.736 24.64L555.128 44.032C557.816 37.696 563.96 33.088 571.064 33.088C580.28 33.088 587.768 40.576 588.344 49.984V77.248L613.496 102.4C614.264 99.52 614.647 96.64 614.84 93.568C614.84 92.992 614.84 92.416 614.84 91.84C614.84 91.264 614.84 90.688 614.84 90.112L614.647 52.672ZM571.256 109.696C562.424 109.696 555.128 102.592 554.168 93.568V65.152L529.016 40C528.44 42.688 528.056 45.376 527.864 48.064C527.864 49.024 527.864 49.984 527.864 50.944C527.864 51.904 527.864 52.864 527.864 53.824V88.768C527.864 89.728 527.864 90.688 527.864 91.648C527.864 92.608 527.864 93.568 527.864 94.528C529.016 111.616 539.576 126.016 554.36 132.352C559.544 134.656 565.304 136 571.448 136C577.592 136 583.352 134.656 588.536 132.352C595.832 129.088 602.168 123.904 606.776 117.376L587.384 97.984C584.888 104.512 578.744 109.12 571.448 109.12L571.256 109.696ZM721.147 52.672C721.147 52.096 721.147 51.52 721.147 50.944C721.147 50.368 721.147 49.792 721.147 49.216C720.572 34.24 712.7 21.184 700.988 13.504C694.268 9.088 686.204 6.592 677.564 6.592C668.924 6.592 660.86 9.088 654.14 13.504C649.531 16.384 645.5 20.224 642.236 24.64L661.628 44.032C664.316 37.696 670.46 33.088 677.564 33.088C686.78 33.088 694.268 40.576 694.844 49.984V77.248L719.996 102.4C720.764 99.52 721.147 96.64 721.34 93.568C721.34 92.992 721.34 92.416 721.34 91.84C721.34 91.264 721.34 90.688 721.34 90.112L721.147 52.672ZM677.756 109.696C668.924 109.696 661.628 102.592 660.668 93.568V65.152L635.516 40C634.94 42.688 634.556 45.376 634.364 48.064C634.364 49.024 634.364 49.984 634.364 50.944C634.364 51.904 634.364 52.864 634.364 53.824V88.768C634.364 89.728 634.364 90.688 634.364 91.648C634.364 92.608 634.364 93.568 634.364 94.528C635.516 111.616 646.076 126.016 660.86 132.352C666.044 134.656 671.804 136 677.948 136C684.092 136 689.852 134.656 695.036 132.352C702.332 129.088 708.668 123.904 713.276 117.376L693.884 97.984C691.388 104.512 685.244 109.12 677.948 109.12L677.756 109.696Z" fill="white"/>
</svg>
