<svg width="1023" height="93" viewBox="0 0 1023 93" fill="none" xmlns="http://www.w3.org/2000/svg">
<path d="M33.272 3.064L55.032 24.824H89.336V3.064H33.272ZM88.184 55.8L87.8 54.904C87.8 54.776 87.8 54.648 87.8 54.52L87.416 53.368L87.288 53.112C87.032 52.6 86.776 52.088 86.52 51.576L86.392 51.448C86.008 50.68 85.624 49.912 85.24 49.144L85.112 48.888C84.984 48.76 84.856 48.632 84.728 48.504C84.6 48.376 84.472 48.248 84.344 48.12C84.216 47.864 84.088 47.608 83.96 47.352L83.832 47.224C83.704 47.096 83.576 46.968 83.448 46.84C83.448 46.712 83.448 46.584 83.448 46.456L83.192 46.2C83.064 46.072 82.936 45.944 82.808 45.816C82.424 45.432 82.04 45.048 81.656 44.664C81.528 44.536 81.4 44.408 81.272 44.28C81.144 44.152 81.016 44.152 80.888 44.152L80.632 43.896C80.504 43.768 80.376 43.64 80.248 43.512C79.992 43.256 79.736 43.128 79.608 43C79.096 42.616 78.584 42.232 78.072 41.848L77.944 41.72C77.688 41.592 77.432 41.464 77.176 41.336C76.92 41.208 76.664 41.08 76.408 40.952L75.768 40.568C75.384 40.312 75 40.056 74.616 39.8C74.36 39.672 74.104 39.544 73.848 39.416C73.72 39.416 73.592 39.416 73.464 39.416C73.08 39.288 72.696 39.16 72.312 39.032H72.184C71.928 38.904 71.672 38.776 71.416 38.648H71.288C70.776 38.52 70.264 38.392 69.752 38.264H69.624C69.368 38.136 69.112 38.008 68.856 37.88C68.728 37.88 68.6 37.88 68.472 37.88L68.216 37.752H68.088C67.832 37.624 67.576 37.496 67.32 37.496H67.192C66.936 37.496 66.68 37.496 66.424 37.496H66.04C65.784 37.496 65.528 37.496 65.272 37.496H65.144C65.016 37.496 64.888 37.496 64.76 37.496C64.504 37.496 64.248 37.496 63.992 37.496C63.864 37.496 63.736 37.496 63.608 37.496H63.48C63.352 37.496 63.224 37.496 63.096 37.496C62.84 37.496 62.584 37.496 62.328 37.496H62.072C61.944 37.496 61.816 37.496 61.688 37.496H61.56C61.432 37.496 61.304 37.496 61.176 37.496H28.024C24.952 37.496 22.392 34.936 22.392 31.864C22.392 28.792 24.952 26.232 28.024 26.232H44.28L22.904 4.856L22.008 5.112C21.368 5.24 20.728 5.368 20.088 5.62399C15.736 6.904 11.768 9.336 8.568 12.536C5.368 15.736 2.936 19.704 1.656 24.056C0.888 26.616 0.504 29.304 0.504 31.992C0.504 34.68 0.888 37.368 1.656 39.928C2.936 44.28 5.368 48.248 8.568 51.448C11.768 54.648 15.736 57.08 20.088 58.36C22.648 59.128 25.336 59.512 28.024 59.512H61.176C64.248 59.512 66.808 62.072 66.808 65.144C66.808 68.216 64.248 70.776 61.176 70.776H0.632V92.536H61.176C67.192 92.536 72.952 90.616 77.688 87.032C82.296 83.576 85.752 78.584 87.416 73.08C88.184 70.52 88.568 67.832 88.568 65.144C88.568 62.456 88.184 59.768 87.416 57.208L88.184 55.8ZM177.286 15.864C168.966 7.544 157.958 2.936 146.182 2.936C136.326 2.936 126.982 6.13599 119.174 12.152L117.638 13.432L133.126 28.92L134.278 28.152C137.734 25.976 141.83 24.824 146.054 24.824C151.942 24.824 157.446 27.128 161.67 31.352C165.894 35.576 168.198 41.08 168.198 46.968C168.198 51.192 167.046 55.288 164.87 58.744L164.102 59.896L179.59 75.384L180.87 73.848C186.886 66.04 190.086 56.696 190.086 46.84C190.086 35.064 185.478 24.056 177.158 15.736L177.286 15.864ZM157.83 65.528C154.374 67.704 150.278 68.856 146.054 68.856C140.166 68.856 134.662 66.552 130.438 62.328C126.214 58.104 123.91 52.6 123.91 46.712C123.91 42.488 125.062 38.392 127.238 34.936L128.006 33.784L112.518 18.296L111.238 19.832C105.222 27.64 102.022 36.984 102.022 46.84C102.022 58.616 106.63 69.624 114.95 77.944C123.27 86.264 134.278 90.872 146.054 90.872C155.91 90.872 165.254 87.672 173.062 81.656L174.598 80.376L159.11 64.888L157.83 65.528ZM227.732 35.576C228.884 33.4 230.292 31.352 232.084 29.56C236.436 25.208 242.196 22.776 248.34 22.776C254.484 22.776 260.244 25.208 264.596 29.56C266.772 31.736 268.436 34.168 269.588 36.984L270.1 38.008H293.14L292.628 35.832C290.452 25.976 284.948 17.016 277.012 10.616C268.948 4.088 258.836 0.503998 248.468 0.503998C233.62 0.503998 219.668 7.8 211.22 19.96L210.324 21.112L226.836 37.624L227.732 35.576ZM269.46 54.392C268.308 57.208 266.644 59.64 264.468 61.816C262.676 63.608 260.628 65.016 258.452 66.168C257.812 66.552 257.172 66.808 256.404 67.064C254.228 67.832 251.924 68.344 249.62 68.472C248.596 68.472 247.444 68.472 246.42 68.344C241.044 67.96 235.924 65.656 232.084 61.816C228.244 57.976 225.94 52.856 225.556 47.48V46.84L206.612 27.896L205.716 30.584C204.052 35.448 203.156 40.568 203.156 45.688C203.156 57.72 207.892 69.112 216.468 77.688C225.044 86.264 236.436 91 248.468 91C254.612 91 260.5 89.848 266.132 87.544C267.156 87.16 268.18 86.648 269.204 86.136C274.964 83.192 280.212 78.84 284.18 73.72C288.276 68.472 291.22 62.328 292.628 55.928L293.14 53.752H270.1L269.46 54.392ZM305.525 3.064V13.944L327.285 35.704V3.064H305.525ZM305.525 91H327.285V45.688L305.525 23.928V91ZM340.025 91H365.497L390.329 50.168L377.657 29.176L340.025 91ZM394.425 1.52799L381.753 22.392L417.977 82.424L423.225 91.128H448.697L394.425 1.52799ZM482.738 69.24H479.41V3.064H457.65V91H504.498L483.25 69.752L482.738 69.24ZM492.722 69.24L514.482 91H518.834V69.24H492.722ZM592.4 91H614.16V62.2L592.4 40.44V91ZM676.88 3.064L636.304 43.64L595.728 3.064H592.272V30.456L614.032 52.216L636.176 74.488L658.32 52.216V91H680.08V3.064H676.88ZM714.91 69.24V63.096L693.15 41.336V91.128H766.494V69.368L714.91 69.24ZM766.494 58.104V36.344H728.606L717.214 24.952H766.494V3.19199H693.022V31.608L719.646 58.232L766.494 58.104ZM859.144 22.008C850.952 10.232 837.512 3.19199 823.176 3.19199H779.4V28.152L801.288 50.04V25.208H823.176C830.344 25.208 837 28.792 841.096 34.68C843.656 38.392 844.936 42.744 844.936 47.224C844.936 51.704 843.656 56.056 841.224 59.768C841.224 59.768 841.224 59.768 841.224 59.896C837.384 65.4 831.368 68.856 824.712 69.24C824.2 69.24 823.688 69.24 823.176 69.24H801.288V59.896L779.4 38.008V91.128H823.176C837.512 91.128 850.952 84.088 859.144 72.312C859.272 72.184 859.4 72.056 859.528 71.928C864.52 64.632 867.208 56.056 867.208 47.224C867.208 38.264 864.52 29.688 859.528 22.392L859.144 22.008ZM879.65 3.064V13.944L901.41 35.704V3.064H879.65ZM879.65 91H901.41V45.688L879.65 23.928V91ZM914.15 91H939.622L964.454 50.168L951.782 29.176L914.15 91ZM968.55 1.52799L955.878 22.392L992.102 82.424L997.35 91.128H1022.82L968.55 1.52799Z" fill="white"/>
</svg>
