<svg width="51" height="51" viewBox="0 0 51 51" fill="none" xmlns="http://www.w3.org/2000/svg">
<path d="M25.5 4.25C22.2404 4.24986 19.0245 4.99957 16.101 6.44115C13.1775 7.88273 10.6249 9.97753 8.64053 12.5635C6.65617 15.1494 5.29331 18.1572 4.65737 21.3542C4.02143 24.5511 4.12947 27.8515 4.97312 31C5.81677 34.1485 7.37342 37.0607 9.52264 39.5113C11.6719 41.962 14.356 43.8854 17.3675 45.1327C20.379 46.38 23.6371 46.9178 26.8897 46.7044C30.1423 46.4911 33.3022 45.5324 36.125 43.9025C36.3789 43.7697 36.6034 43.5868 36.7848 43.365C36.9663 43.1431 37.101 42.8869 37.1808 42.6116C37.2607 42.3364 37.284 42.0478 37.2495 41.7633C37.2149 41.4788 37.1232 41.2043 36.9797 40.9561C36.8363 40.708 36.6442 40.4915 36.4149 40.3195C36.1856 40.1476 35.9239 40.0238 35.6455 39.9556C35.3672 39.8874 35.0779 39.8762 34.7951 39.9227C34.5123 39.9693 34.2418 40.0725 34 40.2262C30.7592 42.0973 26.9916 42.8468 23.2815 42.3584C19.5714 41.8701 16.126 40.1712 13.4798 37.5253C10.8336 34.8794 9.13434 31.4342 8.64558 27.7242C8.15683 24.0141 8.90588 20.2465 10.7766 17.0055C12.6473 13.7645 15.5351 11.2313 18.9921 9.79878C22.4492 8.36625 26.2823 8.11441 29.8971 9.08234C33.5119 10.0503 36.7063 12.1838 38.9849 15.1522C41.2636 18.1206 42.4991 21.7579 42.5 25.5V27.0938C42.5 28.08 42.1082 29.0259 41.4108 29.7233C40.7134 30.4207 39.7675 30.8125 38.7812 30.8125C37.7949 30.8125 36.8491 30.4207 36.1517 29.7233C35.4543 29.0259 35.0625 28.08 35.0625 27.0938V18.0625C35.0625 17.4989 34.8386 16.9584 34.4401 16.5599C34.0415 16.1614 33.501 15.9375 32.9375 15.9375C32.4433 15.9265 31.9608 16.0881 31.5729 16.3945C31.185 16.7009 30.9161 17.133 30.8125 17.6163C29.2504 16.5359 27.3992 15.9509 25.5 15.9375C23.9002 15.9184 22.3212 16.3009 20.9076 17.0501C19.4939 17.7994 18.2909 18.8913 17.4086 20.2259C16.5263 21.5605 15.993 23.0952 15.8575 24.6893C15.722 26.2834 15.9886 27.8861 16.6329 29.3505C17.2772 30.8149 18.2787 32.0942 19.5456 33.0713C20.8124 34.0484 22.3042 34.692 23.8842 34.9432C25.4643 35.1944 27.0821 35.0452 28.5895 34.5091C30.0969 33.9731 31.4458 33.0674 32.5125 31.875C33.5221 33.1825 34.9142 34.143 36.495 34.6227C38.0758 35.1024 39.7668 35.0776 41.3329 34.5516C42.899 34.0257 44.2622 33.0249 45.2331 31.6882C46.2039 30.3516 46.7341 28.7457 46.75 27.0938V25.5C46.75 22.7094 46.2003 19.9461 45.1324 17.368C44.0645 14.7898 42.4992 12.4472 40.526 10.474C38.5527 8.50074 36.2101 6.93547 33.632 5.86756C31.0538 4.79965 28.2905 4.25 25.5 4.25ZM25.5 30.8125C24.4492 30.8125 23.4221 30.5009 22.5485 29.9172C21.6749 29.3334 20.9939 28.5037 20.5918 27.533C20.1898 26.5623 20.0846 25.4941 20.2895 24.4636C20.4945 23.4331 21.0005 22.4865 21.7435 21.7435C22.4864 21.0005 23.433 20.4946 24.4635 20.2896C25.4941 20.0846 26.5622 20.1898 27.533 20.5919C28.5037 20.994 29.3334 21.6749 29.9171 22.5485C30.5009 23.4222 30.8125 24.4493 30.8125 25.5C30.8125 26.909 30.2528 28.2602 29.2565 29.2565C28.2602 30.2528 26.9089 30.8125 25.5 30.8125Z" fill="white"/>
</svg>
