<svg width="58" height="58" viewBox="0 0 58 58" fill="none" xmlns="http://www.w3.org/2000/svg">
<path d="M15.2007 24.8917C14.8067 25.2873 14.5619 25.8072 14.5079 26.363C14.4538 26.9187 14.5939 27.476 14.9043 27.9402C15.2147 28.4043 15.6762 28.7467 16.2105 28.909C16.7447 29.0714 17.3187 29.0438 17.8348 28.8308C18.1285 28.6995 18.3981 28.5198 18.6323 28.2992C18.8497 28.0765 19.022 27.8139 19.1398 27.5258C19.278 27.2314 19.3442 26.9084 19.3332 26.5833C19.3305 25.9493 19.0788 25.3418 18.6323 24.8917C18.4077 24.6652 18.1404 24.4854 17.8459 24.3627C17.5514 24.24 17.2355 24.1768 16.9165 24.1768C16.5975 24.1768 16.2816 24.24 15.9871 24.3627C15.6926 24.4854 15.4253 24.6652 15.2007 24.8917ZM16.9165 12.0833C17.5574 12.0833 18.1721 12.3379 18.6253 12.7912C19.0786 13.2444 19.3332 13.8591 19.3332 14.5C19.3332 15.1409 19.0786 15.7556 18.6253 16.2088C18.1721 16.6621 17.5574 16.9167 16.9165 16.9167C16.2756 16.9167 15.6609 17.1713 15.2077 17.6245C14.7544 18.0777 14.4998 18.6924 14.4998 19.3333C14.4998 19.9743 14.7544 20.589 15.2077 21.0422C15.6609 21.4954 16.2756 21.75 16.9165 21.75C18.1889 21.7492 19.4388 21.4135 20.5404 20.7766C21.642 20.1398 22.5566 19.2243 23.1923 18.122C23.828 17.0197 24.1624 15.7695 24.1619 14.4971C24.1613 13.2247 23.8259 11.9748 23.1894 10.873C22.5528 9.77122 21.6375 8.8564 20.5353 8.22044C19.4332 7.58449 18.1831 7.2498 16.9107 7.25C15.6382 7.2502 14.3883 7.5853 13.2863 8.22161C12.1844 8.85792 11.2694 9.77303 10.6332 10.875C10.4734 11.1508 10.3697 11.4555 10.3282 11.7716C10.2867 12.0876 10.3081 12.4088 10.3912 12.7165C10.4743 13.0242 10.6175 13.3125 10.8125 13.5647C11.0075 13.8168 11.2504 14.028 11.5273 14.1858C12.0822 14.5009 12.7392 14.5837 13.355 14.4162C13.9707 14.2487 14.4952 13.8444 14.814 13.2917C15.0269 12.9229 15.3335 12.6169 15.7027 12.4047C16.0719 12.1925 16.4907 12.0816 16.9165 12.0833ZM45.9165 14.5H31.4165C30.7756 14.5 30.1609 14.7546 29.7077 15.2078C29.2544 15.661 28.9998 16.2757 28.9998 16.9167C28.9998 17.5576 29.2544 18.1723 29.7077 18.6255C30.1609 19.0787 30.7756 19.3333 31.4165 19.3333H45.9165C46.5574 19.3333 47.1721 19.5879 47.6253 20.0412C48.0786 20.4944 48.3332 21.1091 48.3332 21.75V45.24L44.539 41.7358C44.0933 41.3186 43.5062 41.0854 42.8957 41.0833H21.7498C21.1089 41.0833 20.4942 40.8287 20.041 40.3755C19.5878 39.9223 19.3332 39.3076 19.3332 38.6667V36.25C19.3332 35.6091 19.0786 34.9944 18.6253 34.5412C18.1721 34.0879 17.5574 33.8333 16.9165 33.8333C16.2756 33.8333 15.6609 34.0879 15.2077 34.5412C14.7544 34.9944 14.4998 35.6091 14.4998 36.25V38.6667C14.4998 40.5895 15.2637 42.4336 16.6233 43.7932C17.9829 45.1528 19.827 45.9167 21.7498 45.9167H41.9532L49.2032 52.5142C49.6242 52.9095 50.1729 53.141 50.7498 53.1667C51.0813 53.1631 51.4092 53.0975 51.7165 52.9733C52.1488 52.7847 52.5164 52.4736 52.7741 52.0786C53.0317 51.6835 53.1681 51.2217 53.1665 50.75V21.75C53.1665 19.8272 52.4027 17.9831 51.043 16.6235C49.6834 15.2638 47.8393 14.5 45.9165 14.5Z" fill="white"/>
</svg>
