<svg width="45" height="50" viewBox="0 0 45 50" fill="none" xmlns="http://www.w3.org/2000/svg">
<path d="M44.2532 21.4352V12.7074C40.166 12.7074 37.0467 11.6165 35.0338 9.496C32.9679 7.07598 31.8105 4.01129 31.7609 0.829749V0.199754L23.5095 0V35.4487C23.2265 36.9953 22.4757 38.4179 21.3585 39.5243C20.2414 40.6308 18.8117 41.3678 17.2624 41.6359C15.713 41.9041 14.1188 41.6904 12.6948 41.0237C11.2707 40.3571 10.0856 39.2696 9.2992 37.908C8.51283 36.5464 8.16316 34.9764 8.29739 33.4098C8.43161 31.8432 9.04327 30.3555 10.0498 29.1475C11.0563 27.9396 12.4092 27.0695 13.9259 26.6548C15.4425 26.2401 17.0499 26.3007 18.531 26.8285V18.3774C17.6675 18.2359 16.7939 18.1639 15.9189 18.1623C12.7704 18.1623 9.69267 19.0959 7.07482 20.8451C4.45698 22.5943 2.41662 25.0805 1.21176 27.9892C0.00689712 30.898 -0.308349 34.0988 0.305884 37.1867C0.920117 40.2747 2.43624 43.1112 4.66254 45.3375C6.88883 47.5638 9.7253 49.0799 12.8133 49.6941C15.9012 50.3083 19.102 49.9931 22.0108 48.7882C24.9196 47.5834 27.4057 45.543 29.1549 42.9252C30.9041 40.3073 31.8377 37.2296 31.8377 34.0811C31.836 33.4288 31.795 32.7771 31.7148 32.1297V18.0701C35.4668 20.4132 39.8322 21.5848 44.2532 21.4352Z" fill="#4E4E4E"/>
</svg>
