<svg width="61" height="50" viewBox="0 0 61 50" fill="none" xmlns="http://www.w3.org/2000/svg">
<path d="M61 5.99034C58.7074 6.99178 56.283 7.6538 53.802 7.95579C56.4194 6.38134 58.3809 3.90444 59.3225 0.984571C56.8628 2.45885 54.1703 3.49758 51.362 4.05559C49.4849 2.00591 46.9852 0.641526 44.2549 0.176435C41.5247 -0.288655 38.7184 0.17185 36.2761 1.48573C33.8338 2.79961 31.8936 4.89254 30.76 7.43629C29.6263 9.98003 29.3632 12.8307 30.012 15.5412C25.0388 15.2879 20.174 13.9841 15.7339 11.7143C11.2937 9.44453 7.37748 6.25964 4.2395 2.36653C3.13887 4.30179 2.56053 6.49344 2.562 8.72355C2.5581 10.7946 3.06286 12.8345 4.03135 14.6616C4.99984 16.4887 6.40201 18.0463 8.113 19.1957C6.12433 19.1413 4.17815 18.6039 2.44 17.6295V17.7831C2.45491 20.6848 3.46478 23.4924 5.29881 25.7308C7.13284 27.9691 9.67843 29.501 12.505 30.0672C11.4169 30.4006 10.2873 30.5763 9.15 30.5892C8.36277 30.58 7.57749 30.5081 6.8015 30.3743C7.60642 32.8704 9.1641 35.0519 11.2578 36.6151C13.3515 38.1783 15.877 39.0454 18.483 39.096C14.0825 42.5824 8.64944 44.4852 3.05 44.501C2.03049 44.5043 1.01179 44.4428 0 44.3167C5.71701 48.0334 12.3794 50.0064 19.1845 49.9981C23.8806 50.0472 28.5393 49.1536 32.8885 47.3695C37.2377 45.5855 41.1903 42.9467 44.5154 39.6073C47.8404 36.2679 50.4713 32.2948 52.2543 27.9202C54.0373 23.5456 54.9367 18.8571 54.9 14.1285C54.9 13.6065 54.9 13.0537 54.9 12.5009C57.2933 10.7038 59.3575 8.50067 61 5.99034Z" fill="#4E4E4E"/>
</svg>
