<svg width="72" height="50" viewBox="0 0 72 50" fill="none" xmlns="http://www.w3.org/2000/svg">
<path d="M71.1395 17.6216C71.2993 12.995 70.2875 8.40306 68.1981 4.2721C66.7804 2.57707 64.8129 1.43319 62.6385 1.03978C53.6446 0.223704 44.6136 -0.11078 35.584 0.0377641C26.5873 -0.117522 17.5887 0.206168 8.62646 1.00746C6.85457 1.32978 5.21481 2.16089 3.90728 3.39937C0.998191 6.0822 0.674959 10.6721 0.351728 14.5509C-0.117243 21.5248 -0.117243 28.5224 0.351728 35.4963C0.445239 37.6794 0.770293 39.8464 1.32142 41.9609C1.71116 43.5934 2.49968 45.1039 3.61637 46.3569C4.93279 47.661 6.61074 48.5394 8.43252 48.8781C15.4011 49.7383 22.4227 50.0947 29.4426 49.9447C40.7557 50.1064 50.6789 49.9447 62.4122 49.0397C64.2787 48.7218 66.0039 47.8423 67.3577 46.5185C68.2626 45.6132 68.9385 44.5051 69.3294 43.2862C70.4853 39.7391 71.0531 36.0267 71.0102 32.2963C71.1395 30.4862 71.1395 19.561 71.1395 17.6216ZM28.2789 34.2357V14.2276L47.4143 24.2801C42.0486 27.2539 34.9698 30.6155 28.2789 34.2357Z" fill="#4E4E4E"/>
</svg>
